<svg width="12" height="10" viewBox="0 0 12 10" fill="none" xmlns="http://www.w3.org/2000/svg">
<path d="M6.3453 5.43457L2.62655 9.15332C2.35311 9.42676 1.94296 9.42676 1.69686 9.15332L1.06796 8.55176C0.821863 8.27832 0.821863 7.86816 1.06796 7.62207L3.7203 4.99707L1.06796 2.34473C0.821863 2.09863 0.821863 1.68848 1.06796 1.41504L1.69686 0.786133C1.94296 0.540039 2.35311 0.540039 2.62655 0.786133L6.3453 4.50488C6.59139 4.77832 6.59139 5.18848 6.3453 5.43457ZM11.5953 4.50488C11.8414 4.77832 11.8414 5.18848 11.5953 5.43457L7.87655 9.15332C7.63046 9.42676 7.19296 9.42676 6.94686 9.15332L6.31796 8.55176C6.07186 8.27832 6.07186 7.86816 6.31796 7.62207L8.9703 4.96973L6.31796 2.34473C6.07186 2.09863 6.07186 1.66113 6.31796 1.41504L6.94686 0.786133C7.19296 0.540039 7.60311 0.540039 7.87655 0.786133L11.5953 4.50488Z" fill="#EE212B"/>
</svg>
