<svg width="744" height="471" viewBox="0 0 744 471" fill="none" xmlns="http://www.w3.org/2000/svg">
<path d="M731.345 341.78C732.441 339.952 730.613 339.586 728.419 333.003C726.448 327.089 721.819 325.597 717.717 315.542C709.546 320.14 691.995 320.08 686.314 319.607C679.75 319.06 669.904 322.889 670.45 325.624C670.997 328.359 672.092 328.359 678.656 330C685.22 331.641 696.161 331.641 704.366 332.188C705.758 332.281 707.096 332.477 708.359 332.768C706.093 327.906 705.311 322.316 708.306 320.934C713.06 318.739 719.276 322.397 720.74 327.151C722.203 331.906 725.494 343.241 726.59 345.436C727.687 347.631 730.247 343.61 731.345 341.78Z" fill="#FFB900"/>
<path d="M743.519 367.228V361.327C740.541 359.858 737.702 357.506 735.001 357.506C730.613 357.506 728.054 360.066 729.15 362.992C729.85 364.856 736.345 365.386 743.519 367.228Z" fill="#FFB900"/>
<path d="M697.334 351.654C702.089 352.751 713.791 356.409 718.545 357.505C723.299 358.602 726.224 359.333 726.224 354.945C726.224 351.598 721.757 346.553 717.364 342.723C717.343 343.694 717.212 344.738 716.947 345.865C714.759 355.164 699.443 352.43 686.314 343.678C681.552 340.503 678.09 339.565 675.605 339.652C678.225 347.708 684.552 370.056 693.234 419.858H710.256C715.121 393.605 718.656 381.195 720.218 376.391C718.556 376.332 716.242 376.96 713.058 379.082C704.281 384.933 694.042 386.761 692.579 380.545C691.116 374.328 695.504 371.768 700.99 371.403C706.475 371.038 713.788 371.038 718.177 369.94C722.565 368.843 723.297 368.843 723.663 367.014C724.03 365.186 717.446 362.626 713.058 362.991C708.67 363.357 693.677 363.357 690.019 358.603C686.364 353.849 692.58 350.558 697.334 351.654Z" fill="#FFB900"/>
<path d="M743.519 387.401V375.248C736.995 370.649 729.516 369.573 729.516 369.573C729.516 369.573 735.733 376.521 740.486 383.835C741.327 385.129 742.376 386.306 743.519 387.401Z" fill="#FFB900"/>
<path d="M734.27 382.739C730.979 376.888 728.054 374.693 728.054 374.693C728.054 374.693 730.978 383.104 733.539 394.806C736.099 406.508 734.271 412.359 729.883 411.262C725.495 410.165 724.397 409.067 724.397 399.56C724.397 390.052 724.032 378.716 724.032 378.716C724.032 378.716 724.024 378.695 724.005 378.657C722.405 383.82 719.081 396 714.625 419.857H743.52V402.832C740.098 398.244 737.183 387.918 734.27 382.739Z" fill="#FFB900"/>
<path d="M669.944 343.042C669.917 343.098 669.904 343.129 669.904 343.129C669.904 343.129 669.357 360.087 669.357 374.309C669.357 388.532 667.717 390.172 661.151 391.814C654.587 393.454 651.853 384.703 655.682 367.198C659.511 349.694 663.887 337.113 663.887 337.113C663.887 337.113 659.511 340.395 654.589 349.148C649.665 357.9 644.742 376.498 638.724 381.422C632.708 386.345 626.69 383.609 623.955 375.405C621.22 367.199 638.177 361.73 645.288 350.789C652.4 339.849 661.699 329.455 661.699 329.455C661.699 329.455 650.211 331.097 640.365 338.208C630.519 345.319 626.69 357.353 619.031 356.26C611.373 355.166 608.091 343.132 622.86 333.285C637.63 323.438 660.604 323.986 662.246 319.609C663.886 315.233 660.058 311.404 653.493 311.404C646.929 311.404 639.818 320.702 632.159 318.515C624.501 316.327 620.125 308.122 632.706 303.198C645.287 298.274 657.322 304.292 657.322 301.556C657.322 298.82 654.587 287.334 645.835 286.239C637.083 285.145 617.937 301.009 609.731 299.915C601.525 298.82 598.243 284.051 609.731 279.675C621.219 275.299 633.8 280.223 633.252 276.941C632.705 273.658 618.483 270.924 607.542 267.642C596.602 264.36 591.132 259.983 597.149 248.495C603.166 237.008 620.67 259.983 631.611 269.282C642.551 278.581 648.021 275.846 648.021 275.846C648.021 275.846 647.474 268.188 644.739 261.076C642.004 253.965 629.969 241.384 626.687 224.426C623.405 207.468 630.516 194.34 642.551 206.921C654.586 219.502 650.757 258.34 650.757 258.34C651.304 267.639 655.681 276.392 655.681 276.392C655.681 276.392 664.98 260.529 665.527 251.229C666.074 241.93 666.074 216.767 677.014 214.032C687.955 211.298 687.955 222.784 681.391 243.025C674.827 263.264 666.621 264.906 663.339 274.752C660.057 284.598 657.322 285.145 658.963 287.88C660.603 290.615 664.432 296.633 666.074 293.351C667.716 290.069 672.638 273.111 674.826 266C677.013 258.889 686.313 253.419 693.425 256.701C700.536 259.983 693.425 279.129 685.766 284.599C678.108 290.069 666.62 301.009 666.62 307.573C666.62 314.137 670.996 313.044 678.108 311.402C685.219 309.762 702.723 304.291 709.835 302.65C711.137 302.349 712.511 302.271 713.856 302.383C712.481 294.885 713.892 291.065 719.275 292.411C726.589 294.239 726.589 311.061 726.955 317.278C727.321 323.495 733.537 334.099 733.537 334.099C733.537 334.099 736.463 328.248 736.828 322.031C736.828 322.031 734.269 296.066 742.314 287.655C742.725 287.226 743.125 286.852 743.518 286.51V79.9219H29.3932V419.857H686.722C678.677 374.01 672.654 351.793 669.944 343.042Z" fill="#FFB900"/>
<path d="M738.658 333.736C738.658 333.736 740.284 334.532 743.518 333.246V319.13C742.33 320.969 741.353 322.558 740.851 323.861C739.024 328.616 738.658 333.736 738.658 333.736Z" fill="#FFB900"/>
<path d="M740.121 340.684C734.27 341.415 732.441 349.095 732.441 350.923C732.441 352.351 737.359 350.221 743.519 350.786V341.149C742.242 340.755 741.085 340.563 740.121 340.684Z" fill="#FFB900"/>
<path d="M115.536 305.501C106.722 306.602 103.968 318.172 103.968 320.926C103.968 323.681 116.088 317.621 128.757 322.579C141.428 327.537 137.021 335.801 129.308 338.005C121.595 340.208 114.435 330.843 107.823 330.843C101.213 330.843 97.3563 334.698 99.0094 339.106C100.663 343.513 123.799 342.962 138.674 352.878C153.547 362.794 150.242 374.913 142.531 376.016C134.818 377.117 130.962 364.998 121.046 357.836C111.13 350.674 99.5612 349.022 99.5612 349.022C99.5612 349.022 108.926 359.489 116.088 370.507C123.25 381.525 140.327 387.033 137.572 395.297C134.818 403.56 128.758 406.314 122.699 401.356C116.64 396.398 111.681 377.668 106.723 368.854C101.765 360.04 97.3586 356.735 97.3586 356.735C97.3586 356.735 101.766 369.406 105.622 387.033C109.478 404.661 106.723 413.476 100.113 411.823C93.5028 410.17 91.8497 408.518 91.8497 394.195C91.8497 379.873 91.2991 362.794 91.2991 362.794C91.2991 362.794 91.2864 362.762 91.2599 362.706C87.9802 373.292 79.8897 403.417 69.2326 470.91H62.7008C74.0549 398.754 82.4299 368.909 85.5576 359.291C83.0554 359.204 79.5695 360.148 74.7726 363.346C61.5511 372.16 46.1259 374.914 43.9233 365.55C41.7196 356.185 48.3309 352.328 56.5941 351.778C64.8574 351.227 75.875 351.227 82.4863 349.574C89.0965 347.921 90.1989 347.921 90.7496 345.166C91.3002 342.412 81.385 338.556 74.7737 339.107C68.1636 339.658 45.5764 339.658 40.0676 332.497C34.5588 325.335 43.9233 320.377 51.0853 322.03C58.2472 323.683 75.875 329.192 83.037 330.844C90.1989 332.497 94.6053 333.598 94.6053 326.987C94.6053 320.377 83.037 309.358 75.3244 303.849C67.6118 298.34 60.451 279.059 67.6118 275.754C74.7726 272.449 84.1383 277.958 86.3421 285.119C88.5458 292.281 93.504 309.358 95.156 312.663C96.8091 315.968 100.665 309.908 102.318 307.154C103.971 304.4 101.217 303.849 97.9104 293.933C94.6053 284.016 86.3421 282.364 79.7308 261.981C73.1195 241.599 73.1195 230.029 84.1383 232.784C95.156 235.538 95.156 260.878 95.7066 270.244C96.2573 279.609 105.623 295.585 105.623 295.585C105.623 295.585 110.031 286.771 110.581 277.405C110.581 277.405 106.725 238.292 118.844 225.622C130.963 212.951 138.125 226.172 134.82 243.251C131.515 260.328 119.395 272.999 116.641 280.161C113.886 287.323 113.336 295.034 113.336 295.034C113.336 295.034 118.844 297.788 129.862 288.424C140.88 279.059 158.509 255.921 164.568 267.49C170.628 279.058 165.119 283.466 154.101 286.771C143.084 290.076 128.761 292.83 128.21 296.135C127.659 299.44 140.329 294.482 151.899 298.89C163.467 303.297 160.162 318.171 151.899 319.273C143.632 320.374 124.351 304.398 115.536 305.501Z" fill="white"/>
<path d="M196.152 374.487H8.43382C4.32811 374.487 1 371.159 1 367.053V285.556C1 281.45 4.32811 278.122 8.43382 278.122H196.152C200.258 278.122 203.586 281.45 203.586 285.556V367.053C203.586 371.157 200.258 374.487 196.152 374.487Z" fill="#314E52" stroke="#314E52" stroke-miterlimit="10" stroke-linecap="round" stroke-linejoin="round"/>
<path d="M201.245 367.13H13.5268C9.42107 367.13 6.09296 363.802 6.09296 359.696V278.2C6.09296 274.094 9.42107 270.766 13.5268 270.766H201.245C205.351 270.766 208.679 274.094 208.679 278.2V359.696C208.679 363.802 205.351 367.13 201.245 367.13Z" fill="white" stroke="#314E52" stroke-miterlimit="10" stroke-linecap="round" stroke-linejoin="round"/>
<path d="M208.679 287.232V278.198C208.679 274.093 205.351 270.765 201.245 270.765H13.5268C9.42107 270.765 6.09296 274.093 6.09296 278.198V287.232H208.679Z" fill="#B0BBBD" stroke="#314E52" stroke-miterlimit="10" stroke-linecap="round" stroke-linejoin="round"/>
<path d="M204.742 282.969C209.307 282.969 213.008 279.268 213.008 274.702C213.008 270.137 209.307 266.436 204.742 266.436C200.176 266.436 196.475 270.137 196.475 274.702C196.475 279.268 200.176 282.969 204.742 282.969Z" fill="#314E52" stroke="#314E52" stroke-miterlimit="10" stroke-linecap="round" stroke-linejoin="round"/>
<path d="M200.194 270.155L209.289 279.25" stroke="white" stroke-miterlimit="10" stroke-linecap="round" stroke-linejoin="round"/>
<path d="M209.289 270.155L200.194 279.25" stroke="white" stroke-miterlimit="10" stroke-linecap="round" stroke-linejoin="round"/>
<path d="M110.002 321.594C118.656 321.594 125.672 314.578 125.672 305.924C125.672 297.269 118.656 290.253 110.002 290.253C101.347 290.253 94.3311 297.269 94.3311 305.924C94.3311 314.578 101.347 321.594 110.002 321.594Z" fill="#314E52" stroke="#314E52" stroke-miterlimit="10" stroke-linecap="round" stroke-linejoin="round"/>
<path d="M101.381 297.303L118.622 314.544" stroke="white" stroke-width="3" stroke-miterlimit="10" stroke-linecap="round" stroke-linejoin="round"/>
<path d="M118.622 297.303L101.381 314.544" stroke="white" stroke-width="3" stroke-miterlimit="10" stroke-linecap="round" stroke-linejoin="round"/>
<path d="M151.103 356.434H68.4827C64.6903 356.434 61.6145 353.359 61.6145 349.567V334.772C61.6145 330.979 64.6892 327.904 68.4827 327.904H151.103C154.895 327.904 157.971 330.978 157.971 334.772V349.567C157.97 353.359 154.895 356.434 151.103 356.434Z" fill="#314E52"/>
<path d="M105.72 340.128C105.72 341.058 105.562 341.92 105.246 342.715C104.936 343.511 104.495 344.198 103.922 344.777C103.355 345.356 102.67 345.812 101.869 346.145C101.068 346.472 100.179 346.636 99.2029 346.636C98.2263 346.636 97.3375 346.472 96.5364 346.145C95.7352 345.812 95.0481 345.356 94.4751 344.777C93.902 344.198 93.4576 343.511 93.1418 342.715C92.8319 341.92 92.6769 341.058 92.6769 340.128C92.6769 339.198 92.8319 338.338 93.1418 337.549C93.4576 336.754 93.902 336.067 94.4751 335.488C95.0481 334.909 95.7352 334.456 96.5364 334.128C97.3375 333.795 98.2263 333.628 99.2029 333.628C100.179 333.628 101.068 333.795 101.869 334.128C102.67 334.456 103.355 334.912 103.922 335.497C104.495 336.075 104.936 336.763 105.246 337.558C105.562 338.347 105.72 339.204 105.72 340.128ZM103.027 340.128C103.027 339.461 102.939 338.865 102.764 338.338C102.589 337.806 102.334 337.356 102.001 336.988C101.673 336.613 101.273 336.33 100.799 336.137C100.331 335.938 99.7993 335.839 99.2029 335.839C98.6064 335.839 98.0714 335.938 97.5977 336.137C97.124 336.33 96.7206 336.613 96.3873 336.988C96.0598 337.356 95.8083 337.806 95.6329 338.338C95.4575 338.865 95.3698 339.461 95.3698 340.128C95.3698 340.8 95.4575 341.403 95.6329 341.935C95.8083 342.461 96.0598 342.908 96.3873 343.277C96.7206 343.645 97.124 343.929 97.5977 344.128C98.0714 344.321 98.6064 344.417 99.2029 344.417C99.7993 344.417 100.331 344.321 100.799 344.128C101.273 343.929 101.673 343.645 102.001 343.277C102.334 342.908 102.589 342.461 102.764 341.935C102.939 341.403 103.027 340.8 103.027 340.128ZM110.273 339.023H110.791C111.223 339.023 111.536 338.888 111.729 338.619L114.948 334.312C115.1 334.108 115.267 333.967 115.448 333.891C115.63 333.809 115.852 333.769 116.115 333.769H118.396L114.343 338.988C114.08 339.327 113.808 339.569 113.527 339.716C113.732 339.797 113.916 339.906 114.08 340.04C114.244 340.169 114.402 340.341 114.554 340.558L118.711 346.496H116.369C116.217 346.496 116.086 346.484 115.975 346.461C115.869 346.437 115.776 346.405 115.694 346.364C115.612 346.323 115.542 346.274 115.483 346.215C115.425 346.151 115.369 346.078 115.317 345.996L112.045 341.417C111.934 341.259 111.802 341.148 111.65 341.084C111.498 341.014 111.285 340.979 111.01 340.979H110.273V346.496H107.642V333.769H110.273V339.023Z" fill="white"/>
<path d="M175.557 450.968H265.622L303.446 450.478C303.446 450.478 291.238 405.796 280.939 359.737C278.985 351 266.855 305.792 264.481 301.628C261.345 296.128 255.477 292.764 249.146 292.764L228.526 291.45C228.526 291.45 172.659 290.566 148.479 301.558C124.3 312.549 135.29 333.979 135.29 333.979L175.557 450.968Z" fill="#314E52" stroke="#314E52" stroke-miterlimit="10" stroke-linecap="round" stroke-linejoin="round"/>
<path d="M175.557 450.968H202.697C194.538 425.395 170.048 348.62 163.188 327.013C155.768 303.639 140.368 308.557 137.277 309.815C128.538 320.803 135.289 333.979 135.289 333.979L175.557 450.968Z" fill="white" stroke="#314E52" stroke-miterlimit="10" stroke-linecap="round" stroke-linejoin="round"/>
<path d="M437.811 375.069C437.811 375.069 444.744 374.123 450.415 377.589C456.086 381.056 468.061 391.769 474.047 393.344C480.034 394.92 485.076 396.81 492.638 396.81C500.201 396.81 503.666 395.865 502.091 399.016C500.515 402.167 497.364 402.797 493.898 402.483C490.432 402.168 482.87 400.907 482.87 400.907C482.87 400.907 486.336 402.167 487.911 410.36C489.487 418.553 486.335 422.964 483.815 424.54C481.294 426.116 479.404 421.074 479.404 421.074C479.404 421.074 476.567 425.485 473.417 424.855C470.266 424.224 473.417 421.388 473.731 416.662C474.046 411.935 469.32 403.742 466.799 402.482C464.278 401.221 464.278 401.221 464.278 401.221C464.278 401.221 462.702 407.838 464.278 411.619C465.854 415.4 471.211 422.017 469.319 424.539C467.429 427.059 463.332 424.224 461.126 421.073C458.92 417.922 457.975 410.989 457.345 407.523C456.715 404.056 452.619 397.439 450.728 396.809C448.838 396.179 446.947 396.179 446.317 397.439C445.687 398.7 443.481 399.645 446.947 406.893C450.414 414.14 454.825 417.606 453.564 420.442C452.304 423.279 448.208 422.333 444.427 416.031C440.646 409.729 438.44 396.495 439.07 394.604C439.7 392.714 434.659 391.138 434.659 391.138L437.811 375.069Z" fill="white" stroke="#314E52" stroke-miterlimit="10" stroke-linecap="round" stroke-linejoin="round"/>
<path d="M476.253 400.907C476.253 400.907 483.186 406.894 480.664 416.662" stroke="#314E52" stroke-miterlimit="10" stroke-linecap="round" stroke-linejoin="round"/>
<path d="M440.016 371.287L435.781 403.024L386.134 417.922L376.996 376.329L440.016 371.287Z" fill="#B0BBBD" stroke="#314E52" stroke-miterlimit="10" stroke-linecap="round" stroke-linejoin="round"/>
<path d="M382.766 450.968C377.522 435.047 335.07 306.476 330.045 301.411C324.689 296.012 299.165 291.566 299.165 291.566L313.202 450.968H382.766Z" fill="#314E52" stroke="#314E52" stroke-miterlimit="10" stroke-linecap="round" stroke-linejoin="round"/>
<path d="M376.533 237.959C376.533 237.959 375.95 267.987 381.489 282.564C387.028 297.14 387.61 299.472 387.61 299.472C387.61 299.472 353.793 299.764 341.548 295.974C329.303 292.184 323.473 288.977 323.473 288.977L326.972 258.366C326.972 258.366 369.244 257.492 376.533 237.959Z" fill="#314E52" stroke="#314E52" stroke-miterlimit="10" stroke-linecap="round" stroke-linejoin="round"/>
<path d="M380.031 201.809C380.031 201.809 382.073 230.962 375.367 251.37C368.661 271.778 351.461 272.943 345.048 270.611C338.635 268.278 336.01 262.448 329.596 266.821C323.182 271.194 320.85 291.018 320.85 291.018L284.116 274.401L294.904 207.639C294.904 207.639 348.545 188.107 380.031 201.809Z" fill="white" stroke="#314E52" stroke-miterlimit="10" stroke-linecap="round" stroke-linejoin="round"/>
<path d="M357.578 207.985C355.765 207.05 353.707 206.524 351.527 206.524C348.121 206.524 345.017 207.81 342.671 209.922" stroke="#314E52" stroke-width="3" stroke-miterlimit="10" stroke-linecap="round" stroke-linejoin="round"/>
<path d="M380.386 212.581C378.431 212.016 376.441 211.923 374.543 212.241" stroke="#314E52" stroke-width="3" stroke-miterlimit="10" stroke-linecap="round" stroke-linejoin="round"/>
<path d="M353.971 225.132C353.41 226.826 352.04 227.896 350.911 227.523C349.782 227.148 349.32 225.472 349.881 223.779C350.442 222.084 351.812 221.015 352.941 221.388C354.071 221.763 354.532 223.439 353.971 225.132Z" fill="#314E52"/>
<path d="M374.727 229.441C374.166 231.134 372.796 232.204 371.667 231.831C370.538 231.458 370.077 229.782 370.637 228.087C371.198 226.393 372.568 225.322 373.697 225.697C374.826 226.07 375.288 227.746 374.727 229.441Z" fill="#314E52"/>
<path d="M366.416 230.428C366.416 230.428 365.828 235.519 367.395 238.456C368.962 241.394 368.179 243.155 365.633 243.939C363.087 244.722 359.367 244.526 358.779 241.001" stroke="#314E52" stroke-miterlimit="10" stroke-linecap="round" stroke-linejoin="round"/>
<path d="M345.073 241.001C345.073 241.001 348.793 251.966 360.15 251.574" stroke="#314E52" stroke-width="2" stroke-miterlimit="10" stroke-linecap="round" stroke-linejoin="round"/>
<path d="M361.337 233.872C366.536 228.672 366.536 220.242 361.337 215.042C356.137 209.842 347.707 209.842 342.507 215.042C337.307 220.242 337.307 228.672 342.507 233.872C347.707 239.072 356.137 239.072 361.337 233.872Z" stroke="#314E52" stroke-miterlimit="10" stroke-linecap="round" stroke-linejoin="round"/>
<path d="M387.428 238.088C392.843 233.607 393.599 225.584 389.117 220.17C384.635 214.755 376.613 213.999 371.199 218.481C365.784 222.963 365.028 230.985 369.51 236.399C373.991 241.814 382.014 242.57 387.428 238.088Z" stroke="#314E52" stroke-miterlimit="10" stroke-linecap="round" stroke-linejoin="round"/>
<path d="M365.241 225.729H366.612" stroke="#314E52" stroke-miterlimit="10" stroke-linecap="round" stroke-linejoin="round"/>
<path d="M379.339 228.274L393.287 227.894" stroke="#314E52" stroke-miterlimit="10" stroke-linecap="round" stroke-linejoin="round"/>
<path d="M339.591 222.595L330.78 223.575" stroke="#314E52" stroke-miterlimit="10" stroke-linecap="round" stroke-linejoin="round"/>
<path d="M374.467 450.968H410.296C406.167 441.208 372.59 361.67 367.86 344.818C362.818 326.858 355.256 308.267 347.063 302.28C338.87 296.293 325.321 292.827 326.896 306.061L374.467 450.968Z" fill="#B0BBBD" stroke="#314E52" stroke-miterlimit="10" stroke-linecap="round" stroke-linejoin="round"/>
<path d="M345.836 333.106L359.905 377.528C360.133 378.248 360.842 378.702 361.59 378.61C362.572 378.489 363.197 377.501 362.886 376.562L348.724 333.808L345.836 333.106Z" fill="#FFB900" stroke="#314E52" stroke-miterlimit="10" stroke-linecap="round" stroke-linejoin="round"/>
<path d="M346.746 366.246C346.746 366.246 353.993 348.285 355.253 339.462C356.513 330.639 358.72 323.707 360.294 319.295C361.87 314.884 360.924 308.897 357.458 303.855C353.992 298.814 333.195 289.36 329.099 289.36C325.003 289.36 322.482 295.977 324.688 301.02C326.895 306.061 346.746 366.246 346.746 366.246Z" fill="#B0BBBD" stroke="#314E52" stroke-miterlimit="10" stroke-linecap="round" stroke-linejoin="round"/>
<path d="M351.691 322.727C353.342 313.458 354.106 306.277 354.433 301.03C347.519 295.924 332.514 289.36 329.101 289.36C325.004 289.36 322.484 295.977 324.69 301.019C326.267 304.624 336.869 336.429 342.781 354.257C344.808 349.549 348.807 338.925 351.691 322.727Z" fill="#FFB900" stroke="#314E52" stroke-miterlimit="10" stroke-linecap="round" stroke-linejoin="round"/>
<path d="M318.968 450.968L317.127 367.506C316.497 348.599 292.864 300.39 270.807 297.869C248.75 295.349 230.159 301.966 228.583 307.007C227.125 311.673 205.692 432.95 202.511 450.968H318.968Z" fill="#B0BBBD" stroke="#314E52" stroke-miterlimit="10" stroke-linecap="round" stroke-linejoin="round"/>
<path d="M293.179 332.53L292.566 379.124C292.556 379.878 293.086 380.533 293.825 380.681C294.795 380.875 295.7 380.134 295.7 379.145V334.106L293.179 332.53Z" fill="#FFB900" stroke="#314E52" stroke-miterlimit="10" stroke-linecap="round" stroke-linejoin="round"/>
<path d="M370.693 400.907C370.693 400.907 386.764 401.853 394.957 392.399C403.15 382.946 409.451 371.602 418.274 369.082C427.097 366.561 434.029 369.712 433.399 374.123C432.769 378.534 429.302 375.383 424.891 375.383C420.48 375.383 411.342 382.946 411.342 382.946C411.342 382.946 418.274 381.37 424.261 381.37C430.248 381.37 434.975 387.357 434.659 391.138C434.343 394.919 430.878 394.289 427.412 392.714C423.945 391.138 421.741 389.247 418.274 389.878C414.808 390.508 407.561 393.974 407.561 393.974C407.561 393.974 420.795 393.028 425.206 396.18C429.617 399.331 432.769 405.633 428.987 407.208C425.206 408.784 423.63 401.851 416.697 401.851C409.764 401.851 406.614 404.057 406.614 404.057C406.614 404.057 414.807 404.688 417.012 408.468C419.218 412.249 419.218 417.922 416.696 417.606C414.175 417.292 411.655 412.565 407.873 410.989C404.092 409.413 399.05 411.305 397.789 412.249C396.529 413.195 393.063 417.29 386.13 417.921C379.197 418.551 370.375 413.824 370.375 413.824L370.693 400.907Z" fill="white" stroke="#314E52" stroke-miterlimit="10" stroke-linecap="round" stroke-linejoin="round"/>
<path d="M230.789 303.225C230.789 303.225 198.964 327.172 189.197 369.081C179.429 410.989 202.431 433.361 232.996 440.294C263.56 447.226 373.215 434.307 374.161 433.676C375.107 433.046 375.107 397.755 375.107 397.755C375.107 397.755 311.141 394.289 295.071 390.508C279 386.727 276.48 384.521 276.48 384.521C276.48 384.521 273.013 367.505 281.206 351.12" fill="#B0BBBD"/>
<path d="M230.789 303.225C230.789 303.225 198.964 327.172 189.197 369.081C179.429 410.989 202.431 433.361 232.996 440.294C263.56 447.226 373.215 434.307 374.161 433.676C375.107 433.046 375.107 397.755 375.107 397.755C375.107 397.755 311.141 394.289 295.071 390.508C279 386.727 276.48 384.521 276.48 384.521C276.48 384.521 273.013 367.505 281.206 351.12" stroke="#314E52" stroke-miterlimit="10" stroke-linecap="round" stroke-linejoin="round"/>
<path d="M276.479 384.522C276.479 384.522 266.711 381.686 259.778 378.535" stroke="#314E52" stroke-miterlimit="10" stroke-linecap="round" stroke-linejoin="round"/>
<path d="M210.627 378.232C219.397 374.836 233.084 371.215 246.544 374.439" stroke="#314E52" stroke-miterlimit="10" stroke-linecap="round" stroke-linejoin="round"/>
<path d="M201.169 382.63C201.169 382.63 203.219 381.423 206.69 379.871" stroke="#314E52" stroke-miterlimit="10" stroke-linecap="round" stroke-linejoin="round"/>
<path d="M255.367 366.876C255.367 366.876 264.821 369.396 268.917 378.85" stroke="#314E52" stroke-miterlimit="10" stroke-linecap="round" stroke-linejoin="round"/>
<path d="M237.684 382.627C241.74 380.627 246.978 378.881 252.215 379.48" stroke="#314E52" stroke-miterlimit="10" stroke-linecap="round" stroke-linejoin="round"/>
<path d="M230.158 387.357C230.158 387.357 231.827 385.975 234.516 384.358" stroke="#314E52" stroke-miterlimit="10" stroke-linecap="round" stroke-linejoin="round"/>
<path d="M263.559 281.169C263.559 281.169 250.009 285.58 240.872 292.197C231.734 298.814 225.117 304.801 228.582 307.007C232.049 309.213 241.925 310.122 261.983 316.774C284.591 324.273 302.946 343.243 307.358 349.545C311.769 355.848 315.865 367.822 317.126 367.506C318.386 367.191 314.92 333.475 313.029 316.144C311.139 298.814 309.248 293.457 309.248 293.457C309.248 293.457 284.042 274.866 263.559 281.169Z" fill="#B0BBBD" stroke="#314E52" stroke-miterlimit="10" stroke-linecap="round" stroke-linejoin="round"/>
<path d="M263.559 281.168C263.559 281.168 250.009 285.579 240.872 292.196C239.714 293.035 238.598 293.863 237.536 294.676C237.17 295.675 237.302 296.518 238.209 297.063C242.847 299.846 263.256 297.371 287.375 316.234C302.672 328.196 311.618 339.778 316.121 346.656C315.187 336.351 313.931 324.394 313.031 316.145C312.027 306.937 311.022 301.109 310.301 297.67L306.099 291.343C298.713 286.661 279.678 276.209 263.559 281.168Z" fill="#FFB900" stroke="#314E52" stroke-miterlimit="10" stroke-linecap="round" stroke-linejoin="round"/>
<path d="M332.22 203.267C332.22 203.267 326.39 283.731 328.43 298.015C330.472 312.3 331.929 315.216 331.929 315.216C331.929 315.216 299.277 313.174 276.246 300.056C253.215 286.937 246.218 278.774 246.218 278.774C246.218 278.774 274.206 238.543 274.789 216.969C274.789 216.969 309.771 198.603 332.22 203.267Z" fill="#314E52" stroke="#314E52" stroke-miterlimit="10" stroke-linecap="round" stroke-linejoin="round"/>
<path d="M371.608 173.025C371.608 173.025 364.58 156.913 355.542 148.167C346.505 139.421 324.932 135.631 305.69 140.879C286.448 146.126 272.163 159.245 273.329 161.578C274.495 163.911 278.868 164.493 278.868 164.493C278.868 164.493 275.078 172.074 273.038 183.151C270.996 194.23 273.038 203.85 273.038 203.85C273.038 203.85 282.075 189.857 318.517 182.277C354.959 174.697 369.827 174.988 370.993 175.571C372.16 176.154 371.608 173.025 371.608 173.025Z" fill="#B0BBBD" stroke="#314E52" stroke-miterlimit="10" stroke-linecap="round" stroke-linejoin="round"/>
<path d="M273.039 227.756C273.039 227.756 295.778 212.013 332.22 205.892C368.661 199.77 379.449 204.434 380.323 204.143C381.197 203.851 382.947 201.519 382.947 197.73C382.947 195.532 381.574 189.801 380.421 185.377C379.102 180.315 376.043 175.802 371.609 173.026C369.908 171.961 368.08 171.2 366.33 171.2C360.499 171.2 328.436 170.362 296.945 186.068C274.533 197.246 271.873 204.434 271.873 207.641C271.873 210.849 269.54 223.093 271.29 225.425C273.039 227.756 273.039 227.756 273.039 227.756Z" fill="#B0BBBD" stroke="#314E52" stroke-miterlimit="10" stroke-linecap="round" stroke-linejoin="round"/>
<path d="M283.116 193.728C283.116 193.728 280.284 213.555 281.346 216.741C282.408 219.927 283.824 217.803 283.824 217.803" stroke="#314E52" stroke-miterlimit="10" stroke-linecap="round" stroke-linejoin="round"/>
<path d="M292.579 206.632C292.588 207.789 292.617 208.724 292.676 209.306C293.029 212.846 295.154 212.846 295.154 212.846" stroke="#314E52" stroke-miterlimit="10" stroke-linecap="round" stroke-linejoin="round"/>
<path d="M293.029 189.125C293.029 189.125 292.721 196.385 292.612 202.334" stroke="#314E52" stroke-miterlimit="10" stroke-linecap="round" stroke-linejoin="round"/>
<path d="M305.957 188.928C305.471 195.798 304.982 205.804 306.13 207.182C307.9 209.306 310.378 208.244 310.378 208.244" stroke="#314E52" stroke-miterlimit="10" stroke-linecap="round" stroke-linejoin="round"/>
<path d="M306.484 182.398C306.484 182.398 306.33 184.032 306.14 186.464" stroke="#314E52" stroke-miterlimit="10" stroke-linecap="round" stroke-linejoin="round"/>
<path d="M372.002 194.52C371.797 198.656 370.568 199.393 370.568 199.393" stroke="#314E52" stroke-miterlimit="10" stroke-linecap="round" stroke-linejoin="round"/>
<path d="M366.329 171.198C366.329 171.198 371.63 184.876 371.984 191.603" stroke="#314E52" stroke-miterlimit="10" stroke-linecap="round" stroke-linejoin="round"/>
<path d="M375.395 178.149C375.395 178.149 381.307 192.123 378.888 199.647" stroke="#314E52" stroke-miterlimit="10" stroke-linecap="round" stroke-linejoin="round"/>
<path d="M324.877 201.125C325.377 202.135 325.995 202.925 326.755 203.409" stroke="#314E52" stroke-miterlimit="10" stroke-linecap="round" stroke-linejoin="round"/>
<path d="M323.531 177.343C323.531 177.343 321.969 190.31 323.848 198.137" stroke="#314E52" stroke-miterlimit="10" stroke-linecap="round" stroke-linejoin="round"/>
<path d="M635.437 444.233H399.72V450.968H635.437V444.233Z" fill="white" stroke="#314E52" stroke-miterlimit="10"/>
<path d="M635.437 444.233H501.778V450.968H635.437V444.233Z" fill="#B0BBBD" stroke="#314E52" stroke-miterlimit="10" stroke-linecap="round" stroke-linejoin="round"/>
<path d="M661.858 342.176H528.717L501.778 444.233H634.918L661.858 342.176Z" fill="#314E52" stroke="#314E52" stroke-miterlimit="10" stroke-linecap="round" stroke-linejoin="round"/>
<path d="M29.9462 450.968H742.766" stroke="#314E52" stroke-miterlimit="10"/>
<path d="M497.528 310.186H443.705C442.146 310.186 440.783 311.235 440.386 312.742L429.505 353.962C429.115 355.44 430.23 356.887 431.758 356.887H487.862C488.919 356.887 489.844 356.174 490.115 355.151L500.847 314.494C501.421 312.318 499.779 310.186 497.528 310.186Z" fill="white" stroke="#314E52" stroke-miterlimit="10" stroke-linecap="round" stroke-linejoin="round"/>
<path d="M499.86 318.233L500.846 314.494C501.421 312.317 499.779 310.186 497.527 310.186H443.703C442.145 310.186 440.782 311.235 440.385 312.742L438.935 318.233H499.86Z" fill="#B0BBBD" stroke="#314E52" stroke-miterlimit="10" stroke-linecap="round" stroke-linejoin="round"/>
<path d="M500.769 320.387C505.334 320.387 509.035 316.686 509.035 312.12C509.035 307.555 505.334 303.854 500.769 303.854C496.203 303.854 492.502 307.555 492.502 312.12C492.502 316.686 496.203 320.387 500.769 320.387Z" fill="#314E52" stroke="#314E52" stroke-miterlimit="10" stroke-linecap="round" stroke-linejoin="round"/>
<path d="M496.22 307.572L505.315 316.667" stroke="white" stroke-miterlimit="10" stroke-linecap="round" stroke-linejoin="round"/>
<path d="M505.315 307.572L496.22 316.667" stroke="white" stroke-miterlimit="10" stroke-linecap="round" stroke-linejoin="round"/>
<path d="M570.129 302.429H534.782C533.759 302.429 532.864 303.118 532.603 304.107L525.458 331.177C525.202 332.148 525.934 333.097 526.937 333.097H563.782C564.476 333.097 565.083 332.629 565.261 331.958L572.309 305.258C572.686 303.828 571.608 302.429 570.129 302.429Z" fill="white" stroke="#314E52" stroke-miterlimit="10" stroke-linecap="round" stroke-linejoin="round"/>
<path d="M571.66 307.713L572.309 305.258C572.686 303.828 571.608 302.429 570.129 302.429H534.782C533.759 302.429 532.864 303.118 532.603 304.107L531.651 307.713H571.66Z" fill="#B0BBBD" stroke="#314E52" stroke-miterlimit="10" stroke-linecap="round" stroke-linejoin="round"/>
<path d="M572.309 313.525C576.874 313.525 580.575 309.823 580.575 305.258C580.575 300.692 576.874 296.991 572.309 296.991C567.743 296.991 564.042 300.692 564.042 305.258C564.042 309.823 567.743 313.525 572.309 313.525Z" fill="#314E52" stroke="#314E52" stroke-miterlimit="10" stroke-linecap="round" stroke-linejoin="round"/>
<path d="M567.76 300.711L576.857 309.806" stroke="white" stroke-miterlimit="10" stroke-linecap="round" stroke-linejoin="round"/>
<path d="M576.857 300.711L567.76 309.806" stroke="white" stroke-miterlimit="10" stroke-linecap="round" stroke-linejoin="round"/>
<path d="M391.512 109.05H265.492C261.386 109.05 258.058 105.722 258.058 101.616V20.1196C258.058 16.0139 261.386 12.6858 265.492 12.6858H391.512C395.618 12.6858 398.946 16.0139 398.946 20.1196V101.616C398.946 105.722 395.618 109.05 391.512 109.05Z" fill="#314E52" stroke="#314E52" stroke-miterlimit="10" stroke-linecap="round" stroke-linejoin="round"/>
<path d="M396.605 101.693H270.585C266.479 101.693 263.151 98.3653 263.151 94.2596V12.7629C263.151 8.65722 266.479 5.3291 270.585 5.3291H396.605C400.711 5.3291 404.039 8.65722 404.039 12.7629V94.2596C404.04 98.3653 400.711 101.693 396.605 101.693Z" fill="white" stroke="#314E52" stroke-miterlimit="10" stroke-linecap="round" stroke-linejoin="round"/>
<path d="M404.04 21.7969V12.7629C404.04 8.65722 400.712 5.3291 396.606 5.3291H270.585C266.479 5.3291 263.151 8.65722 263.151 12.7629V21.7969H404.04Z" fill="#B0BBBD" stroke="#314E52" stroke-miterlimit="10" stroke-linecap="round" stroke-linejoin="round"/>
<path d="M400.102 17.5334C404.667 17.5334 408.368 13.8323 408.368 9.26671C408.368 4.70114 404.667 1 400.102 1C395.536 1 391.835 4.70114 391.835 9.26671C391.835 13.8323 395.536 17.5334 400.102 17.5334Z" fill="#314E52" stroke="#314E52" stroke-miterlimit="10" stroke-linecap="round" stroke-linejoin="round"/>
<path d="M395.555 4.71875L404.65 13.8149" stroke="white" stroke-miterlimit="10" stroke-linecap="round" stroke-linejoin="round"/>
<path d="M404.65 4.71875L395.555 13.8149" stroke="white" stroke-miterlimit="10" stroke-linecap="round" stroke-linejoin="round"/>
<path d="M296.248 73.0988L294.871 69.2043C294.789 68.9997 294.701 68.7599 294.608 68.4851C294.52 68.2102 294.435 67.912 294.353 67.5904C294.271 67.9179 294.184 68.2219 294.09 68.5026C294.002 68.7775 293.918 69.0172 293.836 69.2219L292.467 73.0988H296.248ZM300.669 77.9319H298.625C298.397 77.9319 298.21 77.8793 298.064 77.774C297.923 77.6629 297.818 77.5226 297.748 77.353L296.888 74.9233H291.818L290.959 77.353C290.9 77.4992 290.798 77.6337 290.652 77.7565C290.506 77.8734 290.321 77.9319 290.099 77.9319H288.038L293.011 65.2046H295.704L300.669 77.9319ZM304.088 78.0722C303.678 78.0722 303.316 78.0138 303 77.8968C302.684 77.774 302.418 77.6015 302.202 77.3793C301.986 77.1571 301.822 76.8881 301.711 76.5723C301.6 76.2565 301.544 75.8998 301.544 75.5022V70.6253H300.693C300.565 70.6253 300.453 70.5844 300.36 70.5025C300.272 70.4206 300.228 70.2978 300.228 70.1341V69.1868L301.676 68.9237L302.167 66.5817C302.231 66.3185 302.41 66.187 302.702 66.187H303.965V68.9412H307.526L308.035 66.5817C308.099 66.3185 308.278 66.187 308.57 66.187H309.824V68.9412H312.157V70.6253H309.824V75.3443C309.824 75.5958 309.886 75.7946 310.008 75.9408C310.131 76.087 310.301 76.1601 310.517 76.1601C310.634 76.1601 310.734 76.1484 310.815 76.125C310.897 76.0957 310.967 76.0665 311.026 76.0373C311.084 76.0022 311.137 75.9729 311.184 75.9495C311.236 75.9203 311.289 75.9057 311.342 75.9057C311.412 75.9057 311.47 75.9232 311.517 75.9583C311.564 75.9876 311.611 76.0402 311.657 76.1162L312.386 77.274C312.052 77.5372 311.675 77.736 311.254 77.8705C310.833 78.005 310.397 78.0722 309.947 78.0722C309.538 78.0722 309.175 78.0138 308.859 77.8968C308.544 77.774 308.278 77.6015 308.061 77.3793C307.845 77.1571 307.681 76.8881 307.57 76.5723C307.459 76.2565 307.403 75.8998 307.403 75.5022V70.6253H303.965V75.3443C303.965 75.5958 304.023 75.7946 304.14 75.9408C304.263 76.087 304.436 76.1601 304.658 76.1601C304.775 76.1601 304.874 76.1484 304.956 76.125C305.038 76.0957 305.108 76.0665 305.167 76.0373C305.225 76.0022 305.278 75.9729 305.325 75.9495C305.377 75.9203 305.43 75.9057 305.482 75.9057C305.553 75.9057 305.611 75.9232 305.658 75.9583C305.705 75.9876 305.751 76.0402 305.798 76.1162L306.526 77.274C306.193 77.5372 305.816 77.736 305.395 77.8705C304.974 78.005 304.538 78.0722 304.088 78.0722ZM319.105 72.3445C319.105 72.0931 319.07 71.8533 319 71.6252C318.935 71.3972 318.83 71.1954 318.684 71.02C318.538 70.8446 318.354 70.7072 318.131 70.6078C317.909 70.5025 317.643 70.4499 317.333 70.4499C316.754 70.4499 316.301 70.6136 315.974 70.9411C315.646 71.2685 315.433 71.7364 315.333 72.3445H319.105ZM315.298 73.783C315.374 74.6309 315.614 75.2508 316.017 75.6425C316.427 76.0343 316.959 76.2302 317.614 76.2302C317.947 76.2302 318.234 76.1922 318.473 76.1162C318.719 76.0343 318.932 75.9466 319.114 75.8531C319.301 75.7537 319.468 75.6659 319.614 75.5899C319.766 75.5081 319.915 75.4671 320.061 75.4671C320.248 75.4671 320.394 75.5373 320.5 75.6776L321.201 76.5548C320.944 76.853 320.66 77.1015 320.35 77.3003C320.041 77.4933 319.719 77.6483 319.386 77.7652C319.052 77.8763 318.716 77.9524 318.377 77.9933C318.038 78.0401 317.71 78.0635 317.395 78.0635C316.763 78.0635 316.172 77.9611 315.623 77.7565C315.079 77.5459 314.602 77.2389 314.193 76.8355C313.789 76.4261 313.471 75.9203 313.237 75.318C313.003 74.7157 312.886 74.0169 312.886 73.2216C312.886 72.6076 312.985 72.0287 313.184 71.4849C313.389 70.9411 313.681 70.4674 314.061 70.0639C314.441 69.6605 314.903 69.3418 315.447 69.1079C315.991 68.8681 316.605 68.7482 317.289 68.7482C317.868 68.7482 318.4 68.8418 318.886 69.0289C319.377 69.2102 319.798 69.4763 320.149 69.8271C320.505 70.178 320.78 70.6107 320.973 71.1253C321.172 71.634 321.271 72.2159 321.271 72.8708C321.271 73.0521 321.263 73.2012 321.245 73.3181C321.228 73.4351 321.198 73.5286 321.157 73.5988C321.117 73.669 321.061 73.7187 320.991 73.7479C320.921 73.7713 320.83 73.783 320.719 73.783H315.298ZM325.019 69.9411C325.2 69.7657 325.388 69.6049 325.581 69.4587C325.779 69.3125 325.987 69.1868 326.203 69.0815C326.426 68.9763 326.662 68.8944 326.914 68.8359C327.171 68.7775 327.449 68.7482 327.747 68.7482C328.238 68.7482 328.674 68.833 329.054 69.0026C329.434 69.1722 329.753 69.409 330.01 69.7131C330.273 70.0172 330.469 70.3797 330.598 70.8007C330.732 71.2218 330.8 71.6837 330.8 72.1866V77.9319H328.387V72.1866C328.387 71.6837 328.27 71.2949 328.037 71.02C327.803 70.7393 327.458 70.599 327.002 70.599C326.662 70.599 326.344 70.6721 326.045 70.8183C325.747 70.9645 325.464 71.1691 325.195 71.4323V77.9319H322.774V68.8886H324.265C324.569 68.8886 324.771 69.0289 324.87 69.3096L325.019 69.9411ZM342.028 77.9319H339.616V70.6253H335.607V75.3443C335.607 75.5958 335.666 75.7946 335.783 75.9408C335.905 76.087 336.078 76.1601 336.3 76.1601C336.417 76.1601 336.516 76.1484 336.598 76.125C336.68 76.0957 336.75 76.0665 336.809 76.0373C336.867 76.0022 336.92 75.9729 336.967 75.9495C337.019 75.9203 337.072 75.9057 337.125 75.9057C337.195 75.9057 337.253 75.9232 337.3 75.9583C337.347 75.9876 337.394 76.0402 337.44 76.1162L338.168 77.274C337.835 77.5372 337.458 77.736 337.037 77.8705C336.616 78.005 336.18 78.0722 335.73 78.0722C335.321 78.0722 334.958 78.0138 334.642 77.8968C334.326 77.774 334.06 77.6015 333.844 77.3793C333.628 77.1571 333.464 76.8881 333.353 76.5723C333.242 76.2565 333.186 75.8998 333.186 75.5022V70.6253H332.335C332.207 70.6253 332.096 70.5844 332.002 70.5025C331.914 70.4206 331.87 70.2978 331.87 70.1341V69.1868L333.318 68.9237L333.809 66.5817C333.873 66.3185 334.052 66.187 334.344 66.187H335.607V68.9412H342.028V77.9319ZM342.405 66.301C342.405 66.4998 342.364 66.6899 342.282 66.8711C342.2 67.0466 342.089 67.2015 341.949 67.336C341.814 67.4647 341.654 67.5699 341.466 67.6518C341.285 67.7278 341.089 67.7658 340.879 67.7658C340.68 67.7658 340.49 67.7278 340.309 67.6518C340.133 67.5699 339.978 67.4647 339.844 67.336C339.709 67.2015 339.601 67.0466 339.519 66.8711C339.443 66.6899 339.405 66.4998 339.405 66.301C339.405 66.0963 339.443 65.9063 339.519 65.7309C339.601 65.5496 339.709 65.3917 339.844 65.2572C339.978 65.1227 340.133 65.0175 340.309 64.9414C340.49 64.8596 340.68 64.8186 340.879 64.8186C341.089 64.8186 341.285 64.8596 341.466 64.9414C341.654 65.0175 341.814 65.1227 341.949 65.2572C342.089 65.3917 342.2 65.5496 342.282 65.7309C342.364 65.9063 342.405 66.0963 342.405 66.301ZM348.181 68.7482C348.86 68.7482 349.477 68.8564 350.032 69.0728C350.588 69.2891 351.064 69.5991 351.462 70.0025C351.859 70.4002 352.166 70.8855 352.383 71.4586C352.599 72.0317 352.707 72.6778 352.707 73.3971C352.707 74.1163 352.599 74.7654 352.383 75.3443C352.166 75.9174 351.859 76.4057 351.462 76.8091C351.064 77.2126 350.588 77.5226 350.032 77.7389C349.477 77.9553 348.86 78.0635 348.181 78.0635C347.497 78.0635 346.874 77.9553 346.313 77.7389C345.757 77.5226 345.281 77.2126 344.883 76.8091C344.486 76.4057 344.176 75.9174 343.954 75.3443C343.737 74.7654 343.629 74.1163 343.629 73.3971C343.629 72.6778 343.737 72.0317 343.954 71.4586C344.176 70.8855 344.486 70.4002 344.883 70.0025C345.281 69.5991 345.757 69.2891 346.313 69.0728C346.874 68.8564 347.497 68.7482 348.181 68.7482ZM348.181 76.2478C348.871 76.2478 349.383 76.0109 349.716 75.5373C350.05 75.0578 350.216 74.3473 350.216 73.4058C350.216 72.4702 350.05 71.7656 349.716 71.2919C349.383 70.8124 348.871 70.5727 348.181 70.5727C347.474 70.5727 346.953 70.8124 346.62 71.2919C346.287 71.7656 346.12 72.4702 346.12 73.4058C346.12 74.3473 346.287 75.0578 346.62 75.5373C346.953 76.0109 347.474 76.2478 348.181 76.2478ZM356.473 69.9411C356.654 69.7657 356.841 69.6049 357.034 69.4587C357.233 69.3125 357.441 69.1868 357.657 69.0815C357.879 68.9763 358.116 68.8944 358.368 68.8359C358.625 68.7775 358.903 68.7482 359.201 68.7482C359.692 68.7482 360.128 68.833 360.508 69.0026C360.888 69.1722 361.207 69.409 361.464 69.7131C361.727 70.0172 361.923 70.3797 362.052 70.8007C362.186 71.2218 362.253 71.6837 362.253 72.1866V77.9319H359.841V72.1866C359.841 71.6837 359.724 71.2949 359.49 71.02C359.256 70.7393 358.911 70.599 358.455 70.599C358.116 70.599 357.797 70.6721 357.499 70.8183C357.201 70.9645 356.917 71.1691 356.648 71.4323V77.9319H354.227V68.8886H355.719C356.023 68.8886 356.224 69.0289 356.324 69.3096L356.473 69.9411Z" fill="#314E52"/>
<path d="M330.464 31.5347L317.222 54.4686C315.831 56.8797 317.57 59.8933 320.355 59.8933H346.837C349.621 59.8933 351.361 56.8797 349.969 54.4686L336.727 31.5347C335.335 29.1235 331.855 29.1235 330.464 31.5347Z" fill="#314E52"/>
<path d="M331.132 52.7463C331.132 52.4099 331.195 52.0977 331.321 51.8086C331.446 51.5194 331.619 51.2671 331.839 51.0529C332.058 50.8386 332.317 50.6681 332.617 50.5414C332.915 50.4158 333.242 50.3524 333.597 50.3524C333.942 50.3524 334.264 50.4158 334.563 50.5414C334.862 50.6681 335.123 50.8374 335.348 51.0529C335.573 51.2683 335.748 51.5194 335.873 51.8086C335.999 52.0977 336.062 52.4111 336.062 52.7463C336.062 53.0827 335.999 53.3972 335.873 53.6909C335.748 53.9847 335.573 54.2393 335.348 54.4547C335.124 54.6701 334.863 54.8372 334.563 54.9593C334.265 55.0802 333.942 55.1413 333.597 55.1413C333.242 55.1413 332.915 55.0802 332.617 54.9593C332.318 54.8383 332.059 54.6701 331.839 54.4547C331.62 54.2404 331.447 53.9858 331.321 53.6909C331.194 53.3972 331.132 53.0815 331.132 52.7463ZM335.668 34.5425V42.5523C335.668 43.4117 335.616 44.263 335.514 45.1074C335.411 45.953 335.275 46.8135 335.108 47.6913H332.167C331.999 46.8135 331.863 45.953 331.761 45.1074C331.658 44.263 331.606 43.4105 331.606 42.5523V34.5425H335.668Z" fill="#FFB900"/>
<path d="M591.76 274.801H465.74C461.634 274.801 458.306 271.473 458.306 267.368V185.871C458.306 181.765 461.634 178.437 465.74 178.437H591.76C595.866 178.437 599.194 181.765 599.194 185.871V267.368C599.194 271.473 595.866 274.801 591.76 274.801Z" fill="#314E52" stroke="#314E52" stroke-miterlimit="10" stroke-linecap="round" stroke-linejoin="round"/>
<path d="M596.853 267.445H470.833C466.727 267.445 463.399 264.117 463.399 260.011V178.514C463.399 174.408 466.727 171.08 470.833 171.08H596.853C600.959 171.08 604.287 174.408 604.287 178.514V260.011C604.287 264.117 600.959 267.445 596.853 267.445Z" fill="white" stroke="#314E52" stroke-miterlimit="10" stroke-linecap="round" stroke-linejoin="round"/>
<path d="M604.287 187.547V178.513C604.287 174.407 600.959 171.079 596.853 171.079H470.833C466.727 171.079 463.399 174.407 463.399 178.513V187.547H604.287Z" fill="#B0BBBD" stroke="#314E52" stroke-miterlimit="10" stroke-linecap="round" stroke-linejoin="round"/>
<path d="M600.349 183.283C604.915 183.283 608.616 179.582 608.616 175.017C608.616 170.451 604.915 166.75 600.349 166.75C595.784 166.75 592.083 170.451 592.083 175.017C592.083 179.582 595.784 183.283 600.349 183.283Z" fill="#314E52" stroke="#314E52" stroke-miterlimit="10" stroke-linecap="round" stroke-linejoin="round"/>
<path d="M595.802 170.47L604.897 179.565" stroke="white" stroke-miterlimit="10" stroke-linecap="round" stroke-linejoin="round"/>
<path d="M604.897 170.47L595.802 179.565" stroke="white" stroke-miterlimit="10" stroke-linecap="round" stroke-linejoin="round"/>
<path d="M513.458 224.239L511.164 217.752C511.028 217.411 510.882 217.012 510.726 216.554C510.58 216.096 510.439 215.599 510.302 215.064C510.166 215.609 510.02 216.116 509.864 216.583C509.718 217.041 509.577 217.44 509.44 217.781L507.161 224.239H513.458ZM520.822 232.289H517.417C517.038 232.289 516.726 232.201 516.482 232.026C516.249 231.841 516.073 231.607 515.956 231.325L514.525 227.278H506.08L504.648 231.325C504.551 231.568 504.381 231.792 504.137 231.997C503.894 232.191 503.587 232.289 503.217 232.289H499.783L508.067 211.09H512.552L520.822 232.289ZM541.791 221.682C541.791 223.231 541.528 224.658 541.002 225.963C540.486 227.258 539.751 228.373 538.796 229.308C537.851 230.243 536.712 230.974 535.377 231.5C534.043 232.026 532.562 232.289 530.936 232.289H522.784V211.09H530.936C532.562 211.09 534.043 211.353 535.377 211.879C536.712 212.405 537.851 213.14 538.796 214.085C539.751 215.02 540.486 216.135 541.002 217.431C541.528 218.726 541.791 220.143 541.791 221.682ZM537.291 221.682C537.291 220.572 537.145 219.573 536.853 218.687C536.561 217.801 536.142 217.051 535.596 216.437C535.051 215.824 534.384 215.351 533.595 215.02C532.816 214.689 531.929 214.523 530.936 214.523H527.196V228.856H530.936C531.929 228.856 532.816 228.695 533.595 228.373C534.384 228.042 535.051 227.57 535.596 226.956C536.142 226.333 536.561 225.578 536.853 224.692C537.145 223.805 537.291 222.802 537.291 221.682ZM556.496 215.151C556.359 215.375 556.218 215.541 556.072 215.648C555.936 215.746 555.755 215.794 555.531 215.794C555.317 215.794 555.083 215.721 554.83 215.575C554.587 215.419 554.299 215.254 553.968 215.078C553.637 214.903 553.257 214.742 552.829 214.596C552.4 214.44 551.898 214.363 551.324 214.363C550.311 214.363 549.551 214.591 549.045 215.049C548.538 215.497 548.285 216.086 548.285 216.817C548.285 217.285 548.421 217.674 548.694 217.986C548.976 218.288 549.342 218.551 549.79 218.775C550.247 218.999 550.764 219.198 551.338 219.374C551.913 219.549 552.502 219.744 553.106 219.958C553.71 220.163 554.299 220.406 554.874 220.689C555.449 220.971 555.96 221.327 556.408 221.755C556.866 222.184 557.231 222.71 557.504 223.333C557.786 223.947 557.927 224.697 557.927 225.583C557.927 226.547 557.757 227.453 557.416 228.3C557.085 229.138 556.603 229.873 555.97 230.506C555.337 231.13 554.553 231.622 553.617 231.982C552.692 232.342 551.64 232.523 550.462 232.523C549.79 232.523 549.118 232.454 548.446 232.318C547.783 232.182 547.14 231.992 546.517 231.748C545.903 231.505 545.324 231.213 544.779 230.872C544.233 230.531 543.756 230.151 543.347 229.732L544.632 227.657C544.74 227.502 544.881 227.375 545.056 227.278C545.231 227.171 545.416 227.117 545.611 227.117C545.874 227.117 546.152 227.214 546.444 227.409C546.736 227.604 547.072 227.818 547.452 228.052C547.832 228.286 548.27 228.5 548.767 228.695C549.273 228.89 549.877 228.987 550.579 228.987C551.601 228.987 552.39 228.753 552.945 228.286C553.51 227.818 553.793 227.122 553.793 226.197C553.793 225.661 553.652 225.227 553.369 224.896C553.096 224.565 552.736 224.287 552.288 224.063C551.84 223.839 551.329 223.65 550.754 223.494C550.179 223.328 549.59 223.148 548.986 222.953C548.382 222.758 547.793 222.525 547.218 222.252C546.644 221.979 546.132 221.619 545.684 221.171C545.236 220.723 544.871 220.168 544.589 219.505C544.316 218.843 544.18 218.02 544.18 217.036C544.18 216.247 544.335 215.483 544.647 214.742C544.959 214.002 545.416 213.345 546.02 212.77C546.624 212.195 547.364 211.733 548.241 211.382C549.127 211.031 550.14 210.856 551.28 210.856C552.556 210.856 553.734 211.056 554.815 211.455C555.906 211.845 556.827 212.39 557.577 213.091L556.496 215.151Z" fill="#314E52"/>
<path d="M683.253 154.499H495.535C491.429 154.499 488.101 151.171 488.101 147.065V65.5683C488.101 61.4626 491.429 58.1345 495.535 58.1345H683.254C687.359 58.1345 690.687 61.4626 690.687 65.5683V147.065C690.686 151.171 687.358 154.499 683.253 154.499Z" fill="#314E52" stroke="#314E52" stroke-miterlimit="10" stroke-linecap="round" stroke-linejoin="round"/>
<path d="M688.346 147.142H500.628C496.522 147.142 493.194 143.814 493.194 139.708V58.2117C493.194 54.1059 496.522 50.7778 500.628 50.7778H688.347C692.452 50.7778 695.78 54.1059 695.78 58.2117V139.708C695.779 143.814 692.451 147.142 688.346 147.142Z" fill="white" stroke="#314E52" stroke-miterlimit="10" stroke-linecap="round" stroke-linejoin="round"/>
<path d="M695.779 67.2444V58.2104C695.779 54.1047 692.451 50.7766 688.346 50.7766H500.628C496.522 50.7766 493.194 54.1047 493.194 58.2104V67.2444H695.779Z" fill="#B0BBBD" stroke="#314E52" stroke-miterlimit="10" stroke-linecap="round" stroke-linejoin="round"/>
<path d="M691.842 62.9819C696.407 62.9819 700.109 59.2808 700.109 54.7152C700.109 50.1496 696.407 46.4485 691.842 46.4485C687.276 46.4485 683.575 50.1496 683.575 54.7152C683.575 59.2808 687.276 62.9819 691.842 62.9819Z" fill="#314E52" stroke="#314E52" stroke-miterlimit="10" stroke-linecap="round" stroke-linejoin="round"/>
<path d="M687.295 50.1672L696.39 59.2622" stroke="white" stroke-miterlimit="10" stroke-linecap="round" stroke-linejoin="round"/>
<path d="M696.39 50.1672L687.295 59.2622" stroke="white" stroke-miterlimit="10" stroke-linecap="round" stroke-linejoin="round"/>
<path d="M547.791 104.536C547.937 104.536 548.06 104.589 548.159 104.694L549.203 105.808C548.688 106.463 548.048 106.96 547.282 107.299C546.522 107.638 545.615 107.808 544.563 107.808C543.61 107.808 542.753 107.647 541.993 107.326C541.233 106.998 540.586 106.545 540.054 105.966C539.522 105.387 539.113 104.7 538.826 103.905C538.54 103.11 538.397 102.241 538.397 101.3C538.397 100.668 538.464 100.069 538.598 99.5016C538.739 98.9285 538.94 98.4022 539.203 97.9227C539.467 97.4432 539.782 97.0105 540.151 96.6245C540.525 96.2386 540.946 95.9111 541.414 95.6421C541.882 95.3673 542.39 95.1597 542.94 95.0194C543.496 94.8732 544.086 94.8001 544.712 94.8001C545.18 94.8001 545.621 94.841 546.036 94.9229C546.457 95.0047 546.849 95.1188 547.212 95.265C547.574 95.4112 547.908 95.5895 548.212 95.8C548.522 96.0047 548.799 96.2298 549.045 96.4754L548.159 97.6859C548.106 97.7619 548.039 97.8291 547.957 97.8876C547.875 97.9461 547.764 97.9753 547.624 97.9753C547.484 97.9753 547.34 97.9256 547.194 97.8262C547.054 97.7268 546.878 97.6157 546.668 97.4929C546.463 97.3701 546.203 97.259 545.887 97.1596C545.577 97.0602 545.183 97.0105 544.703 97.0105C544.171 97.0105 543.683 97.107 543.238 97.2999C542.794 97.4929 542.411 97.7736 542.089 98.142C541.774 98.5045 541.528 98.9519 541.352 99.484C541.177 100.016 541.089 100.621 541.089 101.3C541.089 101.984 541.183 102.595 541.37 103.133C541.563 103.665 541.823 104.115 542.151 104.484C542.484 104.852 542.87 105.133 543.309 105.326C543.753 105.513 544.227 105.606 544.729 105.606C545.028 105.606 545.297 105.592 545.536 105.563C545.782 105.533 546.007 105.484 546.212 105.413C546.422 105.343 546.618 105.253 546.8 105.142C546.987 105.03 547.174 104.89 547.361 104.721C547.425 104.668 547.492 104.624 547.563 104.589C547.633 104.554 547.709 104.536 547.791 104.536ZM558.241 105.528V107.668H550.688V94.9404H553.32V105.528H558.241ZM562.503 107.668H559.854V94.9404H562.503V107.668ZM573.831 104.536C573.977 104.536 574.1 104.589 574.199 104.694L575.243 105.808C574.728 106.463 574.088 106.96 573.322 107.299C572.562 107.638 571.655 107.808 570.603 107.808C569.65 107.808 568.793 107.647 568.033 107.326C567.273 106.998 566.627 106.545 566.094 105.966C565.562 105.387 565.153 104.7 564.866 103.905C564.58 103.11 564.437 102.241 564.437 101.3C564.437 100.668 564.504 100.069 564.638 99.5016C564.779 98.9285 564.98 98.4022 565.244 97.9227C565.507 97.4432 565.822 97.0105 566.191 96.6245C566.565 96.2386 566.986 95.9111 567.454 95.6421C567.922 95.3673 568.431 95.1597 568.98 95.0194C569.536 94.8732 570.126 94.8001 570.752 94.8001C571.22 94.8001 571.661 94.841 572.077 94.9229C572.498 95.0047 572.889 95.1188 573.252 95.265C573.614 95.4112 573.948 95.5895 574.252 95.8C574.562 96.0047 574.839 96.2298 575.085 96.4754L574.199 97.6859C574.147 97.7619 574.079 97.8291 573.997 97.8876C573.916 97.9461 573.804 97.9753 573.664 97.9753C573.524 97.9753 573.381 97.9256 573.234 97.8262C573.094 97.7268 572.919 97.6157 572.708 97.4929C572.503 97.3701 572.243 97.259 571.927 97.1596C571.617 97.0602 571.223 97.0105 570.743 97.0105C570.211 97.0105 569.723 97.107 569.278 97.2999C568.834 97.4929 568.451 97.7736 568.129 98.142C567.814 98.5045 567.568 98.9519 567.393 99.484C567.217 100.016 567.129 100.621 567.129 101.3C567.129 101.984 567.223 102.595 567.41 103.133C567.603 103.665 567.863 104.115 568.191 104.484C568.524 104.852 568.91 105.133 569.349 105.326C569.793 105.513 570.267 105.606 570.77 105.606C571.068 105.606 571.337 105.592 571.577 105.563C571.822 105.533 572.047 105.484 572.252 105.413C572.462 105.343 572.658 105.253 572.84 105.142C573.027 105.03 573.214 104.89 573.401 104.721C573.465 104.668 573.533 104.624 573.603 104.589C573.673 104.554 573.749 104.536 573.831 104.536ZM579.36 100.194H579.877C580.31 100.194 580.623 100.06 580.816 99.791L584.035 95.4842C584.187 95.2796 584.354 95.1392 584.535 95.0632C584.716 94.9814 584.939 94.9404 585.202 94.9404H587.482L583.43 100.159C583.167 100.499 582.895 100.741 582.614 100.887C582.819 100.969 583.003 101.077 583.167 101.212C583.33 101.341 583.488 101.513 583.64 101.729L587.798 107.668H585.456C585.304 107.668 585.172 107.656 585.061 107.633C584.956 107.609 584.863 107.577 584.781 107.536C584.699 107.495 584.629 107.446 584.57 107.387C584.512 107.323 584.456 107.25 584.403 107.168L581.132 102.589C581.021 102.431 580.889 102.32 580.737 102.256C580.585 102.186 580.372 102.151 580.097 102.151H579.36V107.668H576.728V94.9404H579.36V100.194ZM603.992 94.9404V107.668H601.343V102.186H595.738V107.668H593.089V94.9404H595.738V100.344H601.343V94.9404H603.992ZM609.306 97.0017V100.273H613.552V102.265H609.306V105.606H614.762V107.668H606.657V94.9404H614.762V97.0017H609.306ZM620.713 100.966C621.14 100.966 621.508 100.914 621.818 100.808C622.128 100.697 622.383 100.548 622.581 100.361C622.78 100.168 622.926 99.943 623.02 99.6857C623.114 99.4285 623.16 99.1478 623.16 98.8437C623.16 98.2414 622.959 97.7736 622.555 97.4403C622.157 97.107 621.549 96.9403 620.731 96.9403H619.362V100.966H620.713ZM626.879 107.668H624.502C624.058 107.668 623.736 107.498 623.537 107.159L621.117 103.256C621.017 103.104 620.906 102.993 620.783 102.922C620.666 102.852 620.491 102.817 620.257 102.817H619.362V107.668H616.731V94.9404H620.731C621.619 94.9404 622.38 95.034 623.011 95.2211C623.643 95.4024 624.16 95.6568 624.564 95.9842C624.967 96.3117 625.263 96.7035 625.45 97.1596C625.637 97.6099 625.73 98.1069 625.73 98.6507C625.73 99.0718 625.669 99.4723 625.546 99.8524C625.429 100.227 625.257 100.569 625.029 100.879C624.801 101.189 624.52 101.463 624.187 101.703C623.853 101.943 623.473 102.136 623.046 102.282C623.216 102.376 623.374 102.49 623.52 102.624C623.666 102.753 623.798 102.908 623.915 103.089L626.879 107.668ZM630.772 97.0017V100.273H635.018V102.265H630.772V105.606H636.228V107.668H628.123V94.9404H636.228V97.0017H630.772Z" fill="#314E52"/>
<path d="M184.205 224.437H58.185C54.0793 224.437 50.7512 221.109 50.7512 217.003V65.5669C50.7512 61.4612 54.0793 58.1331 58.185 58.1331H184.205C188.311 58.1331 191.639 61.4612 191.639 65.5669V217.002C191.639 221.109 188.311 224.437 184.205 224.437Z" fill="#314E52" stroke="#314E52" stroke-miterlimit="10" stroke-linecap="round" stroke-linejoin="round"/>
<path d="M189.298 217.081H63.278C59.1723 217.081 55.8442 213.753 55.8442 209.647V58.2114C55.8442 54.1057 59.1723 50.7776 63.278 50.7776H189.298C193.404 50.7776 196.732 54.1057 196.732 58.2114V209.647C196.732 213.753 193.404 217.081 189.298 217.081Z" fill="white" stroke="#314E52" stroke-miterlimit="10" stroke-linecap="round" stroke-linejoin="round"/>
<path d="M166.623 126.449H86.1589V143.232H166.623V126.449Z" fill="white" stroke="#314E52" stroke-miterlimit="10" stroke-linecap="round" stroke-linejoin="round"/>
<path d="M166.623 155.507H86.1589V172.29H166.623V155.507Z" fill="white" stroke="#314E52" stroke-miterlimit="10" stroke-linecap="round" stroke-linejoin="round"/>
<path d="M196.732 119.144V58.2114C196.732 54.1057 193.404 50.7776 189.298 50.7776H63.278C59.1723 50.7776 55.8442 54.1057 55.8442 58.2114V119.144H196.732Z" fill="#B0BBBD" stroke="#314E52" stroke-miterlimit="10" stroke-linecap="round" stroke-linejoin="round"/>
<path d="M192.794 62.9819C197.36 62.9819 201.061 59.2808 201.061 54.7152C201.061 50.1496 197.36 46.4485 192.794 46.4485C188.229 46.4485 184.528 50.1496 184.528 54.7152C184.528 59.2808 188.229 62.9819 192.794 62.9819Z" fill="#314E52" stroke="#314E52" stroke-miterlimit="10" stroke-linecap="round" stroke-linejoin="round"/>
<path d="M188.247 50.1672L197.342 59.2622" stroke="white" stroke-miterlimit="10" stroke-linecap="round" stroke-linejoin="round"/>
<path d="M197.342 50.1672L188.247 59.2622" stroke="white" stroke-miterlimit="10" stroke-linecap="round" stroke-linejoin="round"/>
<path d="M89.682 183.03C89.6001 183.164 89.5153 183.263 89.4276 183.328C89.3457 183.386 89.2375 183.415 89.103 183.415C88.9744 183.415 88.834 183.372 88.682 183.284C88.5358 183.19 88.3633 183.091 88.1645 182.986C87.9657 182.88 87.7376 182.784 87.4803 182.696C87.223 182.603 86.9219 182.556 86.5769 182.556C85.9687 182.556 85.5126 182.693 85.2085 182.968C84.9045 183.237 84.7524 183.591 84.7524 184.029C84.7524 184.31 84.8343 184.544 84.998 184.731C85.1676 184.912 85.3869 185.07 85.6559 185.205C85.9307 185.339 86.2406 185.459 86.5856 185.564C86.9307 185.67 87.2844 185.787 87.647 185.915C88.0095 186.038 88.3633 186.184 88.7083 186.354C89.0533 186.523 89.3603 186.737 89.6293 186.994C89.9042 187.251 90.1234 187.567 90.2872 187.941C90.4568 188.31 90.5415 188.76 90.5415 189.292C90.5415 189.871 90.4392 190.415 90.2345 190.924C90.0357 191.427 89.7463 191.868 89.3662 192.248C88.9861 192.622 88.5154 192.918 87.954 193.134C87.3985 193.351 86.7669 193.459 86.0594 193.459C85.6559 193.459 85.2524 193.418 84.8489 193.336C84.4513 193.254 84.0653 193.14 83.6911 192.994C83.3227 192.848 82.9748 192.672 82.6473 192.468C82.3198 192.263 82.0333 192.035 81.7877 191.783L82.5596 190.538C82.6239 190.444 82.7087 190.368 82.8139 190.31C82.9192 190.245 83.0303 190.213 83.1473 190.213C83.3051 190.213 83.4718 190.272 83.6472 190.389C83.8227 190.506 84.0244 190.634 84.2525 190.775C84.4805 190.915 84.7437 191.044 85.0419 191.161C85.346 191.278 85.7085 191.336 86.1295 191.336C86.7435 191.336 87.2172 191.196 87.5505 190.915C87.8897 190.634 88.0592 190.216 88.0592 189.661C88.0592 189.339 87.9745 189.079 87.8049 188.88C87.6411 188.681 87.4248 188.515 87.1558 188.38C86.8868 188.246 86.5798 188.132 86.2348 188.038C85.8898 187.939 85.536 187.83 85.1735 187.713C84.8109 187.596 84.4571 187.456 84.1121 187.292C83.7671 187.129 83.4601 186.912 83.1911 186.643C82.9221 186.374 82.7028 186.041 82.5333 185.643C82.3695 185.246 82.2877 184.752 82.2877 184.161C82.2877 183.687 82.3812 183.228 82.5683 182.784C82.7555 182.339 83.0303 181.945 83.3929 181.6C83.7554 181.255 84.1998 180.977 84.7261 180.766C85.2582 180.556 85.8664 180.451 86.5506 180.451C87.3166 180.451 88.0242 180.571 88.6732 180.81C89.3282 181.044 89.8808 181.372 90.331 181.793L89.682 183.03ZM99.9005 184.275V193.318H98.4094C98.0994 193.318 97.9006 193.178 97.8129 192.897L97.655 192.266C97.4737 192.441 97.2866 192.602 97.0936 192.748C96.9007 192.894 96.6931 193.02 96.4709 193.125C96.2545 193.231 96.0177 193.313 95.7604 193.371C95.5089 193.429 95.2341 193.459 94.9359 193.459C94.4447 193.459 94.0061 193.374 93.6202 193.204C93.2401 193.035 92.9214 192.798 92.6641 192.494C92.4068 192.19 92.2109 191.827 92.0764 191.406C91.9419 190.985 91.8747 190.523 91.8747 190.02V184.275H94.2956V190.02C94.2956 190.523 94.4096 190.915 94.6377 191.196C94.8716 191.471 95.2166 191.608 95.6727 191.608C96.0118 191.608 96.3305 191.535 96.6288 191.389C96.927 191.237 97.2106 191.032 97.4796 190.775V184.275H99.9005ZM104.32 190.933C104.548 191.196 104.793 191.38 105.056 191.485C105.325 191.59 105.603 191.643 105.89 191.643C106.188 191.643 106.457 191.59 106.697 191.485C106.942 191.374 107.153 191.202 107.328 190.968C107.504 190.728 107.638 190.418 107.732 190.038C107.825 189.658 107.872 189.199 107.872 188.661C107.872 188.181 107.834 187.775 107.758 187.442C107.682 187.102 107.568 186.825 107.416 186.608C107.27 186.392 107.088 186.234 106.872 186.135C106.656 186.035 106.404 185.985 106.118 185.985C105.738 185.985 105.407 186.07 105.127 186.24C104.852 186.404 104.583 186.646 104.32 186.968V190.933ZM104.32 185.319C104.676 184.962 105.071 184.676 105.504 184.459C105.936 184.243 106.422 184.135 106.96 184.135C107.48 184.135 107.948 184.24 108.363 184.45C108.784 184.655 109.141 184.95 109.433 185.336C109.732 185.722 109.96 186.19 110.118 186.74C110.281 187.284 110.363 187.895 110.363 188.573C110.363 189.304 110.27 189.971 110.082 190.573C109.901 191.169 109.641 191.681 109.302 192.108C108.963 192.535 108.556 192.865 108.083 193.099C107.615 193.333 107.091 193.45 106.512 193.45C106.232 193.45 105.98 193.421 105.758 193.362C105.536 193.31 105.331 193.234 105.144 193.134C104.957 193.035 104.785 192.918 104.627 192.783C104.469 192.643 104.32 192.488 104.179 192.318L104.083 192.862C104.042 193.032 103.975 193.152 103.881 193.222C103.788 193.286 103.662 193.318 103.504 193.318H101.899V180.24H104.32V185.319ZM117.543 186.135C117.479 186.234 117.412 186.307 117.341 186.354C117.277 186.395 117.187 186.415 117.07 186.415C116.953 186.415 116.833 186.386 116.71 186.328C116.587 186.269 116.45 186.208 116.298 186.143C116.146 186.073 115.97 186.009 115.771 185.95C115.578 185.892 115.353 185.863 115.096 185.863C114.704 185.863 114.4 185.945 114.184 186.108C113.967 186.266 113.859 186.477 113.859 186.74C113.859 186.921 113.921 187.073 114.043 187.196C114.166 187.319 114.327 187.427 114.526 187.52C114.731 187.608 114.961 187.693 115.219 187.775C115.476 187.851 115.739 187.936 116.008 188.029C116.283 188.123 116.549 188.231 116.806 188.354C117.064 188.477 117.292 188.632 117.491 188.819C117.695 189 117.859 189.222 117.982 189.485C118.105 189.743 118.166 190.055 118.166 190.424C118.166 190.862 118.084 191.269 117.92 191.643C117.762 192.011 117.529 192.33 117.219 192.599C116.909 192.868 116.523 193.079 116.061 193.231C115.599 193.383 115.067 193.459 114.464 193.459C114.155 193.459 113.848 193.429 113.543 193.371C113.239 193.318 112.95 193.242 112.675 193.143C112.4 193.038 112.143 192.918 111.903 192.783C111.663 192.649 111.456 192.503 111.28 192.345L111.842 191.441C111.906 191.336 111.985 191.254 112.079 191.196C112.178 191.137 112.304 191.108 112.456 191.108C112.602 191.108 112.736 191.146 112.859 191.222C112.982 191.292 113.119 191.371 113.272 191.459C113.424 191.541 113.602 191.62 113.807 191.696C114.017 191.766 114.277 191.801 114.587 191.801C114.821 191.801 115.023 191.775 115.192 191.722C115.362 191.669 115.499 191.599 115.605 191.511C115.71 191.418 115.786 191.316 115.833 191.204C115.885 191.087 115.912 190.968 115.912 190.845C115.912 190.646 115.847 190.485 115.719 190.362C115.596 190.234 115.432 190.123 115.228 190.029C115.029 189.936 114.798 189.851 114.535 189.775C114.271 189.699 114.002 189.614 113.728 189.52C113.459 189.427 113.193 189.316 112.929 189.187C112.672 189.058 112.441 188.898 112.237 188.705C112.038 188.506 111.874 188.263 111.745 187.977C111.623 187.69 111.561 187.342 111.561 186.933C111.561 186.559 111.634 186.205 111.78 185.871C111.927 185.532 112.146 185.234 112.438 184.977C112.731 184.719 113.093 184.515 113.526 184.363C113.964 184.211 114.47 184.135 115.043 184.135C115.687 184.135 116.271 184.24 116.798 184.45C117.324 184.661 117.757 184.936 118.096 185.275L117.543 186.135ZM126.242 186.292C126.172 186.386 126.102 186.459 126.032 186.512C125.962 186.559 125.862 186.582 125.734 186.582C125.617 186.582 125.503 186.55 125.392 186.485C125.286 186.415 125.163 186.342 125.023 186.266C124.883 186.184 124.716 186.111 124.523 186.047C124.33 185.977 124.09 185.942 123.804 185.942C123.441 185.942 123.126 186.009 122.857 186.143C122.593 186.272 122.374 186.459 122.199 186.705C122.023 186.95 121.892 187.249 121.804 187.599C121.722 187.95 121.681 188.345 121.681 188.784C121.681 189.707 121.865 190.415 122.234 190.906C122.608 191.397 123.117 191.643 123.76 191.643C123.982 191.643 124.172 191.625 124.33 191.59C124.494 191.549 124.634 191.5 124.751 191.441C124.874 191.383 124.979 191.318 125.067 191.248C125.155 191.178 125.237 191.114 125.313 191.055C125.394 190.997 125.473 190.95 125.549 190.915C125.631 190.874 125.722 190.854 125.821 190.854C126.008 190.854 126.155 190.924 126.26 191.064L126.953 191.941C126.696 192.239 126.421 192.488 126.128 192.687C125.836 192.88 125.532 193.035 125.216 193.152C124.906 193.263 124.59 193.339 124.269 193.38C123.947 193.427 123.629 193.45 123.313 193.45C122.757 193.45 122.231 193.348 121.734 193.143C121.237 192.932 120.801 192.628 120.427 192.231C120.053 191.833 119.754 191.345 119.532 190.766C119.316 190.187 119.208 189.526 119.208 188.784C119.208 188.123 119.304 187.509 119.497 186.942C119.69 186.374 119.974 185.883 120.348 185.468C120.722 185.053 121.184 184.728 121.734 184.494C122.289 184.255 122.93 184.135 123.655 184.135C124.345 184.135 124.95 184.246 125.47 184.468C125.991 184.69 126.459 185.012 126.874 185.433L126.242 186.292ZM130.45 185.766C130.737 185.252 131.067 184.845 131.442 184.547C131.816 184.249 132.254 184.1 132.757 184.1C133.167 184.1 133.5 184.196 133.757 184.389L133.599 186.178C133.57 186.295 133.523 186.377 133.459 186.424C133.401 186.465 133.319 186.485 133.213 186.485C133.12 186.485 132.985 186.474 132.81 186.45C132.635 186.421 132.471 186.406 132.319 186.406C132.097 186.406 131.898 186.439 131.722 186.503C131.553 186.567 131.401 186.658 131.266 186.775C131.132 186.892 131.009 187.035 130.898 187.205C130.793 187.374 130.693 187.567 130.6 187.784V193.318H128.179V184.275H129.608C129.854 184.275 130.024 184.319 130.117 184.407C130.211 184.494 130.278 184.646 130.319 184.863L130.45 185.766ZM137.283 184.275V193.318H134.862V184.275H137.283ZM137.572 181.705C137.572 181.91 137.531 182.1 137.449 182.275C137.367 182.451 137.256 182.606 137.116 182.74C136.981 182.875 136.821 182.98 136.633 183.056C136.452 183.132 136.256 183.17 136.046 183.17C135.847 183.17 135.657 183.132 135.476 183.056C135.3 182.98 135.145 182.875 135.011 182.74C134.876 182.606 134.768 182.451 134.686 182.275C134.61 182.1 134.572 181.91 134.572 181.705C134.572 181.5 134.61 181.31 134.686 181.135C134.768 180.954 134.876 180.796 135.011 180.661C135.145 180.527 135.3 180.421 135.476 180.345C135.657 180.269 135.847 180.231 136.046 180.231C136.256 180.231 136.452 180.269 136.633 180.345C136.821 180.421 136.981 180.527 137.116 180.661C137.256 180.796 137.367 180.954 137.449 181.135C137.531 181.31 137.572 181.5 137.572 181.705ZM141.769 190.933C141.997 191.196 142.243 191.38 142.506 191.485C142.775 191.59 143.053 191.643 143.339 191.643C143.638 191.643 143.907 191.59 144.146 191.485C144.392 191.374 144.603 191.202 144.778 190.968C144.953 190.728 145.088 190.418 145.181 190.038C145.275 189.658 145.322 189.199 145.322 188.661C145.322 188.181 145.284 187.775 145.208 187.442C145.132 187.102 145.018 186.825 144.866 186.608C144.72 186.392 144.538 186.234 144.322 186.135C144.106 186.035 143.854 185.985 143.568 185.985C143.187 185.985 142.857 186.07 142.576 186.24C142.302 186.404 142.033 186.646 141.769 186.968V190.933ZM141.769 185.319C142.126 184.962 142.521 184.676 142.954 184.459C143.386 184.243 143.872 184.135 144.41 184.135C144.93 184.135 145.398 184.24 145.813 184.45C146.234 184.655 146.591 184.95 146.883 185.336C147.181 185.722 147.409 186.19 147.567 186.74C147.731 187.284 147.813 187.895 147.813 188.573C147.813 189.304 147.719 189.971 147.532 190.573C147.351 191.169 147.091 191.681 146.752 192.108C146.412 192.535 146.006 192.865 145.532 193.099C145.065 193.333 144.541 193.45 143.962 193.45C143.682 193.45 143.43 193.421 143.208 193.362C142.986 193.31 142.781 193.234 142.594 193.134C142.407 193.035 142.234 192.918 142.076 192.783C141.919 192.643 141.769 192.488 141.629 192.318L141.533 192.862C141.492 193.032 141.424 193.152 141.331 193.222C141.237 193.286 141.112 193.318 140.954 193.318H139.348V180.24H141.769V185.319ZM155.107 187.731C155.107 187.48 155.072 187.24 155.002 187.012C154.937 186.784 154.832 186.582 154.686 186.406C154.54 186.231 154.356 186.094 154.133 185.994C153.911 185.889 153.645 185.836 153.335 185.836C152.756 185.836 152.303 186 151.976 186.328C151.648 186.655 151.435 187.123 151.335 187.731H155.107ZM151.3 189.169C151.376 190.017 151.616 190.637 152.019 191.029C152.429 191.421 152.961 191.617 153.616 191.617C153.949 191.617 154.236 191.579 154.475 191.503C154.721 191.421 154.934 191.333 155.116 191.24C155.303 191.14 155.47 191.052 155.616 190.976C155.768 190.895 155.917 190.854 156.063 190.854C156.25 190.854 156.396 190.924 156.502 191.064L157.203 191.941C156.946 192.239 156.662 192.488 156.353 192.687C156.043 192.88 155.721 193.035 155.388 193.152C155.054 193.263 154.718 193.339 154.379 193.38C154.04 193.427 153.712 193.45 153.397 193.45C152.765 193.45 152.174 193.348 151.625 193.143C151.081 192.932 150.604 192.625 150.195 192.222C149.792 191.813 149.473 191.307 149.239 190.704C149.005 190.102 148.888 189.403 148.888 188.608C148.888 187.994 148.987 187.415 149.186 186.871C149.391 186.328 149.683 185.854 150.063 185.45C150.444 185.047 150.906 184.728 151.449 184.494C151.993 184.255 152.607 184.135 153.291 184.135C153.87 184.135 154.402 184.228 154.888 184.415C155.379 184.597 155.8 184.863 156.151 185.214C156.508 185.564 156.782 185.997 156.975 186.512C157.174 187.02 157.274 187.602 157.274 188.257C157.274 188.439 157.265 188.588 157.247 188.705C157.23 188.822 157.2 188.915 157.16 188.985C157.119 189.055 157.063 189.105 156.993 189.134C156.923 189.158 156.832 189.169 156.721 189.169H151.3Z" fill="#314E52"/>
<path d="M147.962 77.1135H108.889L128.452 89.9848L147.962 77.1135Z" fill="white"/>
<path d="M128.453 92.7438L106.758 78.4695V105.615H150.149V78.4326L128.453 92.7438Z" fill="white"/>
</svg>
