<svg width="100" height="75" viewBox="0 0 100 75" fill="none" xmlns="http://www.w3.org/2000/svg">
<rect width="75" height="75" rx="3" fill="white"/>
<g clip-path="url(#clip0_1_300)">
<path d="M46.2191 41.7031L49.9378 45.4219C50.2711 45.776 50.5263 46.1458 50.7034 46.5312C50.8805 46.9167 50.9691 47.3281 50.9691 47.7656C50.9691 48.1615 50.8857 48.5625 50.7191 48.9688C50.5524 49.375 50.3024 49.7448 49.9691 50.0781C49.8232 50.2448 49.6722 50.401 49.5159 50.5469C49.3597 50.6927 49.2086 50.8281 49.0628 50.9531C48.8545 51.1615 48.6513 51.3646 48.4534 51.5625C48.2555 51.7604 48.0732 51.9635 47.9066 52.1719C47.9066 52.1927 47.9013 52.2031 47.8909 52.2031C47.8805 52.2031 47.8753 52.2031 47.8753 52.2031C47.3545 52.7656 46.7711 53.1875 46.1253 53.4688C45.4795 53.75 44.7607 53.8906 43.9691 53.8906C43.9066 53.8906 43.8388 53.8906 43.7659 53.8906C43.693 53.8906 43.6149 53.8906 43.5316 53.8906C42.3857 53.8073 41.3076 53.5833 40.2972 53.2188C39.2868 52.8542 38.3857 52.4844 37.5941 52.1094C36.5941 51.6302 35.6149 51.0885 34.6566 50.4844C33.6982 49.901 32.7763 49.2604 31.8909 48.5625C31.0055 47.8646 30.1566 47.1198 29.3441 46.3281C28.5316 45.5573 27.7607 44.724 27.0316 43.8281C25.8024 42.3698 24.7711 40.9375 23.9378 39.5312C23.1045 38.125 22.4066 36.6823 21.8441 35.2031C21.6357 34.6198 21.4222 33.8854 21.2034 33C20.9847 32.1146 20.917 31.1823 21.0003 30.2031C21.042 29.599 21.1878 29.0312 21.4378 28.5C21.6878 27.9688 22.0316 27.4948 22.4691 27.0781L24.7503 24.7344C25.1045 24.401 25.4743 24.151 25.8597 23.9844C26.2451 23.8177 26.6461 23.7344 27.0628 23.7344C27.4795 23.7344 27.8805 23.8177 28.2659 23.9844C28.6513 24.151 29.0003 24.401 29.3128 24.7344C29.542 24.9427 29.7607 25.151 29.9691 25.3594C30.1774 25.5677 30.3857 25.776 30.5941 25.9844C30.6982 26.0885 30.8024 26.1979 30.9066 26.3125C31.0107 26.4271 31.1149 26.5365 31.2191 26.6406L33.0628 28.4844C33.7711 29.1927 34.1253 29.9688 34.1253 30.8125C34.1253 31.6562 33.7711 32.4323 33.0628 33.1406C32.9795 33.2448 32.8857 33.3438 32.7816 33.4375C32.6774 33.5312 32.5836 33.6302 32.5003 33.7344C32.2503 33.9844 31.9951 34.2396 31.7347 34.5C31.4743 34.7604 31.2086 35.0156 30.9378 35.2656C31.1461 35.724 31.3961 36.1823 31.6878 36.6406C31.9795 37.099 32.3336 37.599 32.7503 38.1406C33.6253 39.2031 34.5211 40.1562 35.4378 41C36.3545 41.8438 37.3128 42.5781 38.3128 43.2031C38.417 43.2656 38.5263 43.3281 38.6409 43.3906C38.7555 43.4531 38.8649 43.5156 38.9691 43.5781C39.0524 43.6198 39.1409 43.6615 39.2347 43.7031C39.3284 43.7448 39.417 43.7865 39.5003 43.8281L41.6253 41.7031C41.9795 41.3698 42.3493 41.1146 42.7347 40.9375C43.1201 40.7604 43.5211 40.6719 43.9378 40.6719C44.3545 40.6719 44.7607 40.7604 45.1566 40.9375C45.5524 41.1146 45.9066 41.3698 46.2191 41.7031ZM48.6566 48.8281C48.9899 48.474 49.1566 48.1198 49.1566 47.7656C49.1566 47.4115 48.9795 47.0573 48.6253 46.7031L44.9066 42.9844C44.8024 42.8594 44.667 42.7448 44.5003 42.6406C44.3336 42.5365 44.1461 42.4844 43.9378 42.4844C43.7295 42.4844 43.5368 42.5417 43.3597 42.6562C43.1826 42.7708 43.0316 42.8802 42.9066 42.9844L40.5941 45.2969C40.5316 45.3594 40.417 45.4531 40.2503 45.5781C40.0836 45.7031 39.8545 45.7656 39.5628 45.7656C39.4586 45.7656 39.3545 45.75 39.2503 45.7188C39.1461 45.6875 39.0316 45.651 38.9066 45.6094C38.8857 45.5885 38.8701 45.5729 38.8597 45.5625C38.8493 45.5521 38.8336 45.5469 38.8128 45.5469C38.7295 45.4844 38.6305 45.4271 38.5159 45.375C38.4013 45.3229 38.2816 45.2656 38.1566 45.2031C38.0316 45.1198 37.8961 45.0417 37.7503 44.9688C37.6045 44.8958 37.4586 44.8177 37.3128 44.7344C36.2295 44.0469 35.193 43.2552 34.2034 42.3594C33.2138 41.4635 32.2607 40.4427 31.3441 39.2969L31.3128 39.2656C30.8128 38.6198 30.3857 38.0104 30.0316 37.4375C29.6774 36.8646 29.3753 36.2865 29.1253 35.7031C29.1253 35.7031 29.1253 35.6979 29.1253 35.6875C29.1253 35.6771 29.1253 35.6615 29.1253 35.6406C29.0628 35.4531 29.0316 35.224 29.0316 34.9531C29.0316 34.6823 29.1774 34.401 29.4691 34.1094C29.4691 34.1094 29.4743 34.1094 29.4847 34.1094C29.4951 34.1094 29.5003 34.099 29.5003 34.0781C29.792 33.8281 30.0784 33.5677 30.3597 33.2969C30.6409 33.026 30.917 32.7448 31.1878 32.4531C31.292 32.349 31.3909 32.25 31.4847 32.1562C31.5784 32.0625 31.6774 31.9635 31.7816 31.8594C32.1357 31.5052 32.3128 31.1562 32.3128 30.8125C32.3128 30.4688 32.1357 30.1198 31.7816 29.7656L29.9378 27.9219C29.8336 27.8177 29.7243 27.7083 29.6097 27.5938C29.4951 27.4792 29.3857 27.3698 29.2816 27.2656C29.0941 27.0573 28.8961 26.8542 28.6878 26.6562C28.4795 26.4583 28.2816 26.2552 28.0941 26.0469C28.0732 26.0469 28.0628 26.0469 28.0628 26.0469C27.9586 25.9427 27.8232 25.8385 27.6566 25.7344C27.4899 25.6302 27.292 25.5781 27.0628 25.5781C26.8961 25.5781 26.7243 25.6146 26.5472 25.6875C26.3701 25.7604 26.2086 25.8802 26.0628 26.0469L23.7503 28.3594C23.4586 28.6302 23.2399 28.9323 23.0941 29.2656C22.9482 29.599 22.8545 29.9635 22.8128 30.3594C22.7711 30.9635 22.8076 31.6094 22.9222 32.2969C23.0368 32.9844 23.2503 33.7448 23.5628 34.5781C24.0836 35.9531 24.7399 37.3021 25.5316 38.625C26.3232 39.9479 27.292 41.2969 28.4378 42.6719C29.1253 43.5052 29.8545 44.2969 30.6253 45.0469C31.3961 45.7969 32.1982 46.4948 33.0316 47.1406C33.8649 47.7865 34.7295 48.3906 35.6253 48.9531C36.5211 49.5156 37.4482 50.026 38.4066 50.4844C39.0941 50.8177 39.8909 51.151 40.7972 51.4844C41.7034 51.8177 42.6566 52.0156 43.6566 52.0781C43.7191 52.0781 43.7763 52.0781 43.8284 52.0781C43.8805 52.0781 43.9274 52.0781 43.9691 52.0781C44.5107 52.0781 44.9847 51.9896 45.3909 51.8125C45.7972 51.6354 46.1774 51.3698 46.5316 51.0156C46.7399 50.7656 46.9534 50.526 47.1722 50.2969C47.3909 50.0677 47.6045 49.849 47.8128 49.6406C47.9586 49.4948 48.0993 49.3594 48.2347 49.2344C48.3701 49.1094 48.5107 48.974 48.6566 48.8281ZM38.2191 29.5156C37.9691 29.474 37.7763 29.349 37.6409 29.1406C37.5055 28.9323 37.4586 28.7031 37.5003 28.4531C37.542 28.2031 37.667 28.0052 37.8753 27.8594C38.0836 27.7135 38.3128 27.6615 38.5628 27.7031C39.6253 27.8906 40.6357 28.2344 41.5941 28.7344C42.5524 29.2344 43.417 29.8698 44.1878 30.6406C44.9586 31.4115 45.5941 32.276 46.0941 33.2344C46.5941 34.1927 46.9378 35.2031 47.1253 36.2656C47.167 36.5156 47.1149 36.7448 46.9691 36.9531C46.8232 37.1615 46.6253 37.2865 46.3753 37.3281C46.3336 37.3281 46.3024 37.3281 46.2816 37.3281C46.2607 37.3281 46.2399 37.3281 46.2191 37.3281C45.9899 37.3281 45.792 37.2604 45.6253 37.125C45.4586 36.9896 45.3545 36.8073 45.3128 36.5781C45.167 35.7031 44.8857 34.8698 44.4691 34.0781C44.0524 33.2865 43.5316 32.5677 42.9066 31.9219C42.2607 31.276 41.542 30.75 40.7503 30.3438C39.9586 29.9375 39.1149 29.6615 38.2191 29.5156ZM52.9066 36.0156C52.9482 36.2656 52.8961 36.4896 52.7503 36.6875C52.6045 36.8854 52.4066 37.0052 52.1566 37.0469C52.1357 37.0469 52.1097 37.0469 52.0784 37.0469C52.0472 37.0469 52.0211 37.0469 52.0003 37.0469C51.792 37.0469 51.5993 36.9792 51.4222 36.8438C51.2451 36.7083 51.1357 36.526 51.0941 36.2969C50.8441 34.7344 50.3493 33.2448 49.6097 31.8281C48.8701 30.4115 47.9378 29.1406 46.8128 28.0156C45.667 26.8698 44.3909 25.9323 42.9847 25.2031C41.5784 24.474 40.0836 23.974 38.5003 23.7031C38.2503 23.6615 38.0524 23.5365 37.9066 23.3281C37.7607 23.1198 37.7086 22.8906 37.7503 22.6406C37.792 22.3906 37.917 22.1927 38.1253 22.0469C38.3336 21.901 38.5628 21.849 38.8128 21.8906C39.6878 22.0573 40.542 22.276 41.3753 22.5469C42.2086 22.8385 43.0159 23.1823 43.7972 23.5781C44.5784 23.974 45.3336 24.4427 46.0628 24.9844C46.7711 25.5052 47.4482 26.0885 48.0941 26.7344C48.7191 27.3594 49.3024 28.0365 49.8441 28.7656C50.3649 29.474 50.8284 30.2188 51.2347 31C51.6409 31.7812 51.9795 32.5885 52.2503 33.4219C52.542 34.2552 52.7607 35.1198 52.9066 36.0156Z" fill="#EE212B"/>
</g>
<defs>
<clipPath id="clip0_1_300">
<rect width="32" height="75" fill="white" transform="matrix(1 0 0 -1 21 75)"/>
</clipPath>
</defs>
</svg>
