<svg width="101" height="75" viewBox="0 0 101 75" fill="none" xmlns="http://www.w3.org/2000/svg">
<rect x="0.780273" width="75" height="75" rx="3" fill="white"/>
<g clip-path="url(#clip0_1_309)">
<path d="M51.3115 26.2656H25.2803C24.4469 26.2656 23.7386 26.5573 23.1553 27.1406C22.5719 27.724 22.2803 28.4323 22.2803 29.2656V47.2969C22.2803 48.1302 22.5719 48.8385 23.1553 49.4219C23.7386 50.0052 24.4469 50.2969 25.2803 50.2969H51.3115C52.1449 50.2969 52.8532 50.0052 53.4365 49.4219C54.0199 48.8385 54.3115 48.1302 54.3115 47.2969V29.2656C54.3115 28.4323 54.0199 27.724 53.4365 27.1406C52.8532 26.5573 52.1449 26.2656 51.3115 26.2656ZM25.2803 28.2656H51.3115C51.5824 28.2656 51.8167 28.3646 52.0146 28.5625C52.2126 28.7604 52.3115 28.9948 52.3115 29.2656V31.8594C51.624 32.4427 50.6449 33.25 49.374 34.2812C48.1032 35.3125 45.9365 37.0365 42.874 39.4531C42.3532 39.8698 41.6396 40.4479 40.7334 41.1875C39.8271 41.9271 39.0199 42.2969 38.3115 42.2969C37.5824 42.2969 36.7646 41.9271 35.8584 41.1875C34.9521 40.4479 34.2386 39.8698 33.7178 39.4531C30.6553 37.0365 28.4886 35.3125 27.2178 34.2812C25.9469 33.25 24.9678 32.4427 24.2803 31.8594V29.2656C24.2803 28.9948 24.3792 28.7604 24.5771 28.5625C24.7751 28.3646 25.0094 28.2656 25.2803 28.2656ZM51.3115 48.2969H25.2803C25.0094 48.2969 24.7751 48.1979 24.5771 48C24.3792 47.8021 24.2803 47.5677 24.2803 47.2969V34.4531C24.9886 35.0365 25.9678 35.8281 27.2178 36.8281C28.4678 37.8281 30.2178 39.224 32.4678 41.0156C33.0928 41.5365 33.9365 42.2135 34.999 43.0469C36.0615 43.8802 37.1657 44.2969 38.3115 44.2969C39.4365 44.2969 40.5251 43.8802 41.5771 43.0469C42.6292 42.2135 43.4782 41.5365 44.124 41.0156C46.374 39.224 48.124 37.8281 49.374 36.8281C50.624 35.8281 51.6032 35.0365 52.3115 34.4531V47.2969C52.3115 47.5677 52.2126 47.8021 52.0146 48C51.8167 48.1979 51.5824 48.2969 51.3115 48.2969Z" fill="#EE212B"/>
</g>
<defs>
<clipPath id="clip0_1_309">
<rect width="32" height="75" fill="white" transform="matrix(1 0 0 -1 22.2803 75)"/>
</clipPath>
</defs>
</svg>
