<svg width="701" height="701" viewBox="0 0 701 701" fill="none" xmlns="http://www.w3.org/2000/svg">
<g opacity="0.45">
<path d="M521.617 640.624C585.787 640.624 637.808 588.604 637.808 524.434C637.808 460.263 585.787 408.243 521.617 408.243C457.447 408.243 405.427 460.263 405.427 524.434C405.427 588.604 457.447 640.624 521.617 640.624Z" fill="#DED7FF"/>
<path d="M265.294 491.337C374.578 491.337 463.17 402.745 463.17 293.461C463.17 184.177 374.578 95.5847 265.294 95.5847C156.01 95.5847 67.4174 184.177 67.4174 293.461C67.4174 402.745 156.01 491.337 265.294 491.337Z" fill="#DED7FF"/>
</g>
<path d="M626.419 273.633L620.512 279.041C620.315 279.221 620.143 279.417 619.985 279.621C616.233 277.006 612.108 275.127 607.815 273.993C607.872 273.735 607.914 273.472 607.924 273.202L608.238 265.199C608.335 262.709 606.389 260.604 603.899 260.507L595.896 260.192C593.408 260.095 591.301 262.042 591.204 264.532L590.89 272.534C590.88 272.803 590.901 273.068 590.936 273.328C586.686 274.1 582.535 275.59 578.676 277.804C578.537 277.587 578.382 277.377 578.203 277.18L572.795 271.274C571.112 269.436 568.247 269.309 566.409 270.992L560.503 276.4C558.665 278.083 558.538 280.948 560.222 282.786L565.63 288.692C565.811 288.888 566.007 289.061 566.211 289.219C563.595 292.971 561.717 297.096 560.583 301.389C560.325 301.332 560.062 301.29 559.793 301.28L551.79 300.966C550.592 300.918 549.445 301.338 548.561 302.148C548.555 302.152 548.55 302.158 548.546 302.163C547.66 302.983 547.144 304.098 547.098 305.305L546.784 313.308C546.686 315.798 548.633 317.903 551.123 318L559.125 318.315C559.396 318.326 559.659 318.302 559.92 318.265C560.691 322.517 562.181 326.668 564.395 330.527C564.178 330.665 563.969 330.819 563.771 331L557.865 336.408C556.027 338.091 555.9 340.956 557.584 342.793L562.993 348.7C564.676 350.538 567.54 350.665 569.378 348.98L575.285 343.572C575.482 343.392 575.654 343.196 575.812 342.992C579.565 345.609 583.69 347.488 587.984 348.621C587.928 348.878 587.884 349.14 587.873 349.411L587.559 357.414C587.511 358.621 587.936 359.773 588.756 360.659C589.576 361.546 590.691 362.06 591.897 362.106L599.899 362.42C601.137 362.468 602.278 362.012 603.127 361.236C603.986 360.45 604.544 359.335 604.593 358.081L604.907 350.079C604.918 349.809 604.894 349.544 604.858 349.285C609.11 348.513 613.26 347.023 617.119 344.809C617.259 345.026 617.413 345.237 617.594 345.433L623.002 351.339C624.685 353.177 627.55 353.304 629.387 351.621L635.294 346.213C637.132 344.53 637.259 341.665 635.574 339.827L630.166 333.921C629.986 333.724 629.79 333.552 629.586 333.394C632.203 329.642 634.082 325.516 635.215 321.221C635.472 321.278 635.734 321.321 636.005 321.333L644.008 321.647C645.246 321.695 646.388 321.238 647.236 320.462C648.095 319.676 648.653 318.561 648.7 317.308L649.016 309.305C649.113 306.815 647.167 304.71 644.677 304.612L636.674 304.298C636.405 304.287 636.141 304.308 635.879 304.343C635.107 300.093 633.617 295.944 631.403 292.085C631.62 291.947 631.831 291.792 632.027 291.612L637.933 286.204C639.771 284.521 639.898 281.656 638.214 279.818L632.806 273.911C631.12 272.075 628.257 271.95 626.419 273.633ZM612.231 326.962C603.599 334.866 590.146 334.274 582.241 325.642C574.337 317.01 574.929 303.558 583.56 295.652C592.192 287.749 605.645 288.34 613.55 296.972C621.454 305.605 620.863 319.058 612.231 326.962Z" stroke="#0F1B63" stroke-miterlimit="10"/>
<path d="M159.507 583.946H156.394C155.819 583.946 155.353 583.48 155.353 582.905C155.353 582.33 155.819 581.864 156.394 581.864H159.507C160.081 581.864 160.547 582.33 160.547 582.905C160.547 583.48 160.081 583.946 159.507 583.946ZM149.459 583.946H142.523C141.948 583.946 141.482 583.48 141.482 582.905C141.482 582.33 141.948 581.864 142.523 581.864H149.459C150.034 581.864 150.5 582.33 150.5 582.905C150.5 583.48 150.034 583.946 149.459 583.946ZM135.587 583.946H128.651C128.076 583.946 127.61 583.48 127.61 582.905C127.61 582.33 128.076 581.864 128.651 581.864H135.587C136.161 581.864 136.628 582.33 136.628 582.905C136.628 583.48 136.161 583.946 135.587 583.946ZM121.714 583.946H114.778C114.203 583.946 113.737 583.48 113.737 582.905C113.737 582.33 114.203 581.864 114.778 581.864H121.714C122.289 581.864 122.755 582.33 122.755 582.905C122.755 583.48 122.289 583.946 121.714 583.946ZM107.842 583.946H100.906C100.331 583.946 99.8649 583.48 99.8649 582.905C99.8649 582.33 100.331 581.864 100.906 581.864H107.842C108.417 581.864 108.883 582.33 108.883 582.905C108.883 583.48 108.417 583.946 107.842 583.946ZM93.9694 583.946H87.0332C86.4586 583.946 85.9924 583.48 85.9924 582.905C85.9924 582.33 86.4586 581.864 87.0332 581.864H93.9694C94.544 581.864 95.0102 582.33 95.0102 582.905C95.0102 583.48 94.544 583.946 93.9694 583.946ZM80.097 583.936C80.0871 583.936 80.0787 583.936 80.0688 583.935C77.6506 583.867 75.262 583.473 72.9692 582.76C72.4199 582.59 72.1143 582.007 72.2847 581.457C72.4551 580.909 73.0326 580.602 73.5861 580.773C75.6986 581.429 77.8985 581.792 80.1265 581.856C80.6997 581.871 81.1532 582.35 81.1377 582.925C81.1223 583.488 80.6603 583.936 80.097 583.936ZM67.0188 579.87C66.8245 579.87 66.6287 579.815 66.4541 579.702C64.4373 578.394 62.6022 576.814 61.0037 575.004C60.6248 574.573 60.6657 573.915 61.0952 573.535C61.5234 573.155 62.1811 573.194 62.5641 573.625C64.0373 575.293 65.7259 576.749 67.5864 577.955C68.0681 578.267 68.2061 578.912 67.892 579.394C67.6934 579.702 67.3611 579.87 67.0188 579.87ZM57.9531 569.6C57.5658 569.6 57.194 569.385 57.0138 569.013C55.9659 566.838 55.2195 564.534 54.797 562.165C54.697 561.599 55.073 561.06 55.6392 560.958C56.2011 560.864 56.7448 561.234 56.8447 561.801C57.2335 563.984 57.9207 566.105 58.8883 568.107C59.1376 568.624 58.9207 569.247 58.4038 569.496C58.2588 569.568 58.1052 569.6 57.9531 569.6ZM55.4293 556.112C54.8547 556.112 54.3885 555.646 54.3885 555.071V548.135C54.3885 547.561 54.8547 547.094 55.4293 547.094C56.0039 547.094 56.4701 547.561 56.4701 548.135V555.071C56.4701 555.646 56.0039 556.112 55.4293 556.112ZM55.4293 542.24C54.8547 542.24 54.3885 541.774 54.3885 541.199V534.263C54.3885 533.688 54.8547 533.222 55.4293 533.222C56.0039 533.222 56.4701 533.688 56.4701 534.263V541.199C56.4701 541.774 56.0039 542.24 55.4293 542.24ZM55.4293 528.367C54.8547 528.367 54.3885 527.901 54.3885 527.326V520.39C54.3885 519.816 54.8547 519.35 55.4293 519.35C56.0039 519.35 56.4701 519.816 56.4701 520.39V527.326C56.4701 527.901 56.0039 528.367 55.4293 528.367ZM55.4293 514.495C54.8547 514.495 54.3885 514.029 54.3885 513.454V506.518C54.3885 505.943 54.8547 505.477 55.4293 505.477C56.0039 505.477 56.4701 505.943 56.4701 506.518V513.454C56.4701 514.029 56.0039 514.495 55.4293 514.495ZM55.4293 500.622C54.8547 500.622 54.3885 500.156 54.3885 499.582V492.645C54.3885 492.071 54.8547 491.605 55.4293 491.605C56.0039 491.605 56.4701 492.071 56.4701 492.645V499.582C56.4701 500.156 56.0039 500.622 55.4293 500.622ZM55.4293 486.75C54.8547 486.75 54.3885 486.284 54.3885 485.709V478.773C54.3885 478.198 54.8547 477.732 55.4293 477.732C56.0039 477.732 56.4701 478.198 56.4701 478.773V485.709C56.4701 486.285 56.0039 486.75 55.4293 486.75ZM55.4293 472.877C54.8547 472.877 54.3885 472.411 54.3885 471.837V464.9C54.3885 464.326 54.8547 463.86 55.4293 463.86C56.0039 463.86 56.4701 464.326 56.4701 464.9V471.837C56.4701 472.413 56.0039 472.877 55.4293 472.877ZM55.4293 459.006C54.8547 459.006 54.3885 458.54 54.3885 457.966V451.029C54.3885 450.455 54.8547 449.989 55.4293 449.989C56.0039 449.989 56.4701 450.455 56.4701 451.029V457.966C56.4701 458.54 56.0039 459.006 55.4293 459.006ZM55.4293 445.134C54.8547 445.134 54.3885 444.668 54.3885 444.093V437.157C54.3885 436.582 54.8547 436.116 55.4293 436.116C56.0039 436.116 56.4701 436.582 56.4701 437.157V444.093C56.4701 444.668 56.0039 445.134 55.4293 445.134ZM55.4293 431.261C54.8547 431.261 54.3885 430.795 54.3885 430.221V423.284C54.3885 422.71 54.8547 422.244 55.4293 422.244C56.0039 422.244 56.4701 422.71 56.4701 423.284V430.221C56.4701 430.795 56.0039 431.261 55.4293 431.261ZM55.4293 417.389C54.8547 417.389 54.3885 416.923 54.3885 416.348V409.412C54.3885 408.837 54.8547 408.371 55.4293 408.371C56.0039 408.371 56.4701 408.837 56.4701 409.412V416.348C56.4701 416.923 56.0039 417.389 55.4293 417.389ZM55.4293 403.517C54.8547 403.517 54.3885 403.05 54.3885 402.476V395.54C54.3885 394.965 54.8547 394.499 55.4293 394.499C56.0039 394.499 56.4701 394.965 56.4701 395.54V402.476C56.4701 403.05 56.0039 403.517 55.4293 403.517ZM55.4293 389.644C54.8547 389.644 54.3885 389.178 54.3885 388.603V387.902C54.3885 385.729 54.6533 383.567 55.1744 381.48C55.3138 380.922 55.8899 380.584 56.4363 380.722C56.994 380.862 57.3335 381.426 57.194 381.983C56.7152 383.905 56.4701 385.896 56.4701 387.901V388.602C56.4701 389.178 56.0039 389.644 55.4293 389.644ZM58.7615 376.359C58.5869 376.359 58.4094 376.315 58.2461 376.222C57.7475 375.938 57.5743 375.301 57.8588 374.803C59.0517 372.714 60.5276 370.794 62.2444 369.097C62.6543 368.695 63.312 368.697 63.7162 369.106C64.1204 369.514 64.1176 370.173 63.7077 370.578C62.1261 372.141 60.7657 373.91 59.6671 375.834C59.4742 376.17 59.1235 376.359 58.7615 376.359ZM68.5061 366.73C68.1399 366.73 67.785 366.537 67.5963 366.195C67.3174 365.692 67.4977 365.06 68.0005 364.779C70.1102 363.608 72.3678 362.733 74.7128 362.177C75.2775 362.047 75.831 362.389 75.9648 362.95C76.0972 363.509 75.7521 364.069 75.193 364.202C73.034 364.713 70.9538 365.519 69.0117 366.599C68.8511 366.688 68.6779 366.73 68.5061 366.73ZM241.365 363.548H234.429C233.855 363.548 233.388 363.082 233.388 362.508C233.388 361.933 233.855 361.467 234.429 361.467H241.365C241.94 361.467 242.406 361.933 242.406 362.508C242.406 363.082 241.94 363.548 241.365 363.548ZM227.494 363.548H220.558C219.983 363.548 219.517 363.082 219.517 362.508C219.517 361.933 219.983 361.467 220.558 361.467H227.494C228.069 361.467 228.535 361.933 228.535 362.508C228.534 363.082 228.068 363.548 227.494 363.548ZM213.622 363.548H206.686C206.111 363.548 205.645 363.082 205.645 362.508C205.645 361.933 206.111 361.467 206.686 361.467H213.622C214.196 361.467 214.663 361.933 214.663 362.508C214.661 363.082 214.196 363.548 213.622 363.548ZM199.749 363.548H192.813C192.239 363.548 191.772 363.082 191.772 362.508C191.772 361.933 192.239 361.467 192.813 361.467H199.749C200.324 361.467 200.79 361.933 200.79 362.508C200.79 363.082 200.324 363.548 199.749 363.548ZM185.877 363.548H178.941C178.366 363.548 177.9 363.082 177.9 362.508C177.9 361.933 178.366 361.467 178.941 361.467H185.877C186.452 361.467 186.918 361.933 186.918 362.508C186.918 363.082 186.452 363.548 185.877 363.548ZM172.004 363.548H165.068C164.494 363.548 164.027 363.082 164.027 362.508C164.027 361.933 164.494 361.467 165.068 361.467H172.004C172.579 361.467 173.045 361.933 173.045 362.508C173.045 363.082 172.579 363.548 172.004 363.548ZM158.132 363.548H151.196C150.621 363.548 150.155 363.082 150.155 362.508C150.155 361.933 150.621 361.467 151.196 361.467H158.132C158.707 361.467 159.173 361.933 159.173 362.508C159.173 363.082 158.707 363.548 158.132 363.548ZM144.26 363.548H137.323C136.749 363.548 136.283 363.082 136.283 362.508C136.283 361.933 136.749 361.467 137.323 361.467H144.26C144.834 361.467 145.3 361.933 145.3 362.508C145.3 363.082 144.834 363.548 144.26 363.548ZM130.387 363.548H123.451C122.876 363.548 122.41 363.082 122.41 362.508C122.41 361.933 122.876 361.467 123.451 361.467H130.387C130.962 361.467 131.428 361.933 131.428 362.508C131.428 363.082 130.962 363.548 130.387 363.548ZM116.515 363.548H109.578C109.004 363.548 108.538 363.082 108.538 362.508C108.538 361.933 109.004 361.467 109.578 361.467H116.515C117.089 361.467 117.555 361.933 117.555 362.508C117.555 363.082 117.089 363.548 116.515 363.548ZM102.642 363.548H95.7059C95.1313 363.548 94.6652 363.082 94.6652 362.508C94.6652 361.933 95.1313 361.467 95.7059 361.467H102.642C103.217 361.467 103.683 361.933 103.683 362.508C103.683 363.082 103.217 363.548 102.642 363.548ZM88.7697 363.548H81.8335C81.2589 363.548 80.7927 363.082 80.7927 362.508C80.7927 361.933 81.2589 361.467 81.8335 361.467H88.7697C89.3443 361.467 89.8105 361.933 89.8105 362.508C89.8105 363.082 89.3443 363.548 88.7697 363.548Z" fill="#B19CFE"/>
<path d="M55.4294 477.548C57.9332 477.548 59.963 475.518 59.963 473.014C59.963 470.51 57.9332 468.48 55.4294 468.48C52.9256 468.48 50.8959 470.51 50.8959 473.014C50.8959 475.518 52.9256 477.548 55.4294 477.548Z" fill="#B19CFE"/>
<path d="M55.4294 481.512C50.7452 481.512 46.9327 477.701 46.9327 473.015C46.9327 468.33 50.7452 464.519 55.4294 464.519C60.1137 464.519 63.9261 468.33 63.9261 473.015C63.9261 477.7 60.1137 481.512 55.4294 481.512ZM55.4294 465.558C51.3184 465.558 47.9735 468.903 47.9735 473.014C47.9735 477.125 51.3184 480.47 55.4294 480.47C59.5405 480.47 62.8854 477.125 62.8854 473.014C62.8854 468.903 59.5419 465.558 55.4294 465.558Z" fill="#B19CFE"/>
<path d="M288.949 331.843C288.25 331.843 287.682 331.276 287.682 330.577V322.138C287.682 321.44 288.25 320.872 288.949 320.872C289.647 320.872 290.215 321.44 290.215 322.138V330.577C290.215 331.276 289.647 331.843 288.949 331.843ZM288.949 314.965C288.25 314.965 287.682 314.398 287.682 313.699V305.26C287.682 304.562 288.25 303.994 288.949 303.994C289.647 303.994 290.215 304.562 290.215 305.26V313.699C290.215 314.398 289.647 314.965 288.949 314.965ZM288.949 298.086C288.25 298.086 287.682 297.518 287.682 296.82V288.381C287.682 287.682 288.25 287.115 288.949 287.115C289.647 287.115 290.215 287.682 290.215 288.381V296.82C290.215 297.52 289.647 298.086 288.949 298.086ZM288.949 281.208C288.25 281.208 287.682 280.641 287.682 279.942V271.503C287.682 270.804 288.25 270.237 288.949 270.237C289.647 270.237 290.215 270.804 290.215 271.503V279.942C290.215 280.642 289.647 281.208 288.949 281.208ZM288.949 264.33C288.25 264.33 287.682 263.763 287.682 263.064V254.625C287.682 253.927 288.25 253.359 288.949 253.359C289.647 253.359 290.215 253.927 290.215 254.625V263.064C290.215 263.763 289.647 264.33 288.949 264.33ZM288.949 247.452C288.25 247.452 287.682 246.885 287.682 246.186V237.747C287.682 237.049 288.25 236.481 288.949 236.481C289.647 236.481 290.215 237.049 290.215 237.747V246.186C290.215 246.885 289.647 247.452 288.949 247.452ZM422.972 232.249C422.274 232.249 421.706 231.681 421.706 230.983V226.298C421.706 225.6 422.274 225.032 422.972 225.032C423.671 225.032 424.238 225.6 424.238 226.298V230.983C424.238 231.681 423.671 232.249 422.972 232.249ZM288.949 230.574C288.25 230.574 287.682 230.008 287.682 229.308V220.869C287.682 220.171 288.25 219.603 288.949 219.603C289.647 219.603 290.215 220.171 290.215 220.869V229.308C290.215 230.007 289.647 230.574 288.949 230.574ZM422.972 219.126C422.274 219.126 421.706 218.56 421.706 217.86V209.421C421.706 208.722 422.274 208.154 422.972 208.154C423.671 208.154 424.238 208.722 424.238 209.421V217.86C424.238 218.558 423.671 219.126 422.972 219.126ZM288.949 213.696C288.25 213.696 287.682 213.129 287.682 212.43V203.991C287.682 203.293 288.25 202.725 288.949 202.725C289.647 202.725 290.215 203.293 290.215 203.991V212.43C290.215 213.129 289.647 213.696 288.949 213.696ZM422.972 202.246C422.274 202.246 421.706 201.679 421.706 200.98V192.541C421.706 191.843 422.274 191.275 422.972 191.275C423.671 191.275 424.238 191.843 424.238 192.541V200.98C424.238 201.68 423.671 202.246 422.972 202.246ZM288.949 196.817C288.25 196.817 287.682 196.249 287.682 195.551V187.112C287.682 186.413 288.25 185.846 288.949 185.846C289.647 185.846 290.215 186.413 290.215 187.112V195.551C290.215 196.251 289.647 196.817 288.949 196.817ZM422.972 185.368C422.274 185.368 421.706 184.801 421.706 184.102V175.663C421.706 174.965 422.274 174.397 422.972 174.397C423.671 174.397 424.238 174.965 424.238 175.663V184.102C424.238 184.802 423.671 185.368 422.972 185.368ZM288.949 179.939C288.25 179.939 287.682 179.372 287.682 178.673V170.234C287.682 169.535 288.25 168.968 288.949 168.968C289.647 168.968 290.215 169.535 290.215 170.234V178.673C290.215 179.373 289.647 179.939 288.949 179.939ZM422.972 168.49C422.274 168.49 421.706 167.923 421.706 167.224V158.785C421.706 158.087 422.274 157.519 422.972 157.519C423.671 157.519 424.238 158.087 424.238 158.785V167.224C424.238 167.924 423.671 168.49 422.972 168.49ZM288.949 163.061C288.25 163.061 287.682 162.494 287.682 161.795V153.356C287.682 152.658 288.25 152.09 288.949 152.09C289.647 152.09 290.215 152.658 290.215 153.356V161.795C290.215 162.494 289.647 163.061 288.949 163.061ZM422.972 151.613C422.274 151.613 421.706 151.045 421.706 150.346V141.907C421.706 141.209 422.274 140.641 422.972 140.641C423.671 140.641 424.238 141.209 424.238 141.907V150.346C424.238 151.045 423.671 151.613 422.972 151.613ZM288.949 146.183C288.25 146.183 287.682 145.616 287.682 144.917V136.478C287.682 135.78 288.25 135.212 288.949 135.212C289.647 135.212 290.215 135.78 290.215 136.478V144.917C290.215 145.616 289.647 146.183 288.949 146.183ZM422.917 134.736C422.251 134.736 421.693 134.215 421.655 133.542C421.502 130.836 420.981 128.174 420.107 125.627C419.882 124.966 420.234 124.245 420.895 124.018C421.55 123.793 422.278 124.144 422.502 124.806C423.451 127.572 424.017 130.463 424.183 133.398C424.223 134.097 423.689 134.694 422.992 134.735C422.966 134.735 422.943 134.736 422.917 134.736ZM289.781 129.372C289.684 129.372 289.587 129.36 289.488 129.338C288.808 129.176 288.387 128.494 288.549 127.814C289.225 124.958 290.291 122.21 291.716 119.647C292.054 119.036 292.827 118.816 293.437 119.157C294.048 119.496 294.268 120.268 293.929 120.879C292.615 123.238 291.634 125.769 291.012 128.398C290.874 128.98 290.354 129.372 289.781 129.372ZM417.519 118.978C417.116 118.978 416.722 118.788 416.475 118.433C414.937 116.207 413.106 114.203 411.03 112.475C410.495 112.027 410.421 111.229 410.869 110.692C411.316 110.153 412.114 110.084 412.652 110.53C414.902 112.405 416.888 114.579 418.557 116.992C418.954 117.568 418.81 118.355 418.236 118.754C418.019 118.906 417.767 118.978 417.519 118.978ZM297.868 114.799C297.547 114.799 297.226 114.677 296.978 114.433C296.481 113.941 296.476 113.14 296.968 112.643C299.033 110.554 301.368 108.759 303.907 107.307C304.511 106.96 305.287 107.171 305.635 107.778C305.981 108.385 305.77 109.159 305.163 109.506C302.822 110.843 300.672 112.498 298.768 114.424C298.52 114.674 298.193 114.799 297.868 114.799ZM404.711 108.309C404.538 108.309 404.362 108.274 404.194 108.199C401.728 107.094 399.123 106.333 396.451 105.938C395.758 105.836 395.281 105.191 395.383 104.5C395.486 103.808 396.123 103.315 396.821 103.434C399.724 103.862 402.552 104.688 405.231 105.888C405.869 106.174 406.153 106.924 405.869 107.562C405.656 108.03 405.194 108.309 404.711 108.309ZM312.336 106.536C311.768 106.536 311.253 106.152 311.109 105.577C310.94 104.898 311.352 104.211 312.03 104.042C314.57 103.408 317.199 103.086 319.844 103.086H320.698C321.396 103.086 321.964 103.653 321.964 104.352C321.964 105.05 321.396 105.618 320.698 105.618H319.844C317.406 105.618 314.984 105.914 312.643 106.498C312.542 106.524 312.437 106.536 312.336 106.536ZM388.212 105.618H379.773C379.075 105.618 378.507 105.05 378.507 104.352C378.507 103.653 379.075 103.086 379.773 103.086H388.212C388.911 103.086 389.478 103.653 389.478 104.352C389.478 105.05 388.911 105.618 388.212 105.618ZM371.334 105.618H362.895C362.197 105.618 361.629 105.05 361.629 104.352C361.629 103.653 362.197 103.086 362.895 103.086H371.334C372.033 103.086 372.6 103.653 372.6 104.352C372.599 105.05 372.033 105.618 371.334 105.618ZM354.455 105.618H346.016C345.317 105.618 344.75 105.05 344.75 104.352C344.75 103.653 345.317 103.086 346.016 103.086H354.455C355.153 103.086 355.721 103.653 355.721 104.352C355.721 105.05 355.155 105.618 354.455 105.618ZM337.577 105.618H329.138C328.439 105.618 327.872 105.05 327.872 104.352C327.872 103.653 328.439 103.086 329.138 103.086H337.577C338.275 103.086 338.843 103.653 338.843 104.352C338.843 105.05 338.277 105.618 337.577 105.618Z" fill="#B19CFE"/>
<path d="M355.96 109.108C358.587 109.108 360.716 106.978 360.716 104.352C360.716 101.725 358.587 99.5957 355.96 99.5957C353.333 99.5957 351.204 101.725 351.204 104.352C351.204 106.978 353.333 109.108 355.96 109.108Z" fill="#B19CFE"/>
<path d="M355.96 113.265C351.045 113.265 347.047 109.267 347.047 104.352C347.047 99.4366 351.046 95.4382 355.96 95.4382C360.875 95.4382 364.874 99.4366 364.874 104.352C364.874 109.267 360.875 113.265 355.96 113.265ZM355.96 96.5297C351.646 96.5297 348.138 100.039 348.138 104.352C348.138 108.666 351.648 112.174 355.96 112.174C360.274 112.174 363.782 108.664 363.782 104.352C363.782 100.039 360.274 96.5297 355.96 96.5297Z" fill="#B19CFE"/>
<path d="M361.643 172.924H280.022V186.878H361.643V172.924Z" fill="#C1C1C1"/>
<path d="M427.585 167.672H369.24C364.994 167.672 360.966 169.097 358.236 171.566L342.387 183.426H279.946C277.337 183.426 275.22 185.543 275.22 188.153V274.575C275.22 277.184 277.337 279.301 279.946 279.301H432.086C434.695 279.301 436.812 277.186 436.812 274.575V191.078V188.153V178.176C436.812 172.624 432.682 167.672 427.585 167.672Z" fill="#FFC655"/>
<path d="M186.447 428.828L177.794 437.216C177.507 437.495 177.255 437.798 177.027 438.112C171.271 434.337 164.985 431.688 158.48 430.167C158.553 429.776 158.605 429.379 158.61 428.973L158.739 416.921C158.779 413.172 155.762 410.088 152.011 410.049L139.96 409.919C136.212 409.88 133.126 412.896 133.087 416.647L132.957 428.698C132.953 429.104 132.997 429.501 133.06 429.893C126.699 431.236 120.522 433.654 114.812 437.15C114.594 436.829 114.351 436.519 114.073 436.232L105.684 427.579C103.073 424.886 98.7594 424.818 96.0665 427.429L87.4135 435.818C84.7207 438.429 84.6545 442.743 87.2642 445.435L95.6525 454.088C95.9313 454.376 96.2341 454.628 96.5468 454.856C92.7724 460.612 90.1232 466.898 88.6022 473.403C88.2121 473.33 87.8149 473.278 87.4079 473.273L75.3564 473.144C73.5509 473.124 71.8454 473.804 70.5497 475.06C70.5412 475.068 70.5342 475.076 70.5271 475.084C69.2286 476.355 68.5033 478.056 68.4836 479.871L68.354 491.923C68.3146 495.672 71.3313 498.756 75.0818 498.796L87.1332 498.925C87.5417 498.93 87.936 498.883 88.3261 498.818C89.6697 505.181 92.0879 511.36 95.5849 517.069C95.2638 517.288 94.9539 517.53 94.6666 517.809L86.0136 526.197C83.3208 528.808 83.2546 533.122 85.8643 535.813L94.2526 544.466C96.8637 547.159 101.178 547.225 103.87 544.616L112.523 536.227C112.811 535.949 113.063 535.646 113.291 535.333C119.048 539.108 125.335 541.757 131.842 543.278C131.769 543.667 131.712 544.062 131.708 544.471L131.579 556.522C131.559 558.339 132.248 560.054 133.519 561.353C134.79 562.651 136.491 563.377 138.306 563.396L150.358 563.526C152.221 563.546 153.92 562.811 155.162 561.606C156.419 560.387 157.211 558.685 157.231 556.8L157.36 544.748C157.365 544.34 157.318 543.945 157.253 543.555C163.616 542.212 169.795 539.793 175.506 536.296C175.724 536.618 175.966 536.927 176.245 537.215L184.633 545.868C187.245 548.561 191.558 548.627 194.251 546.017L202.904 537.629C205.597 535.018 205.663 530.704 203.054 528.011L194.665 519.358C194.386 519.071 194.084 518.819 193.77 518.59C197.544 512.833 200.193 506.547 201.714 500.039C202.103 500.113 202.499 500.169 202.907 500.173L214.958 500.303C216.822 500.322 218.52 499.587 219.764 498.383C221.021 497.163 221.813 495.462 221.833 493.576L221.964 481.525C222.003 477.774 218.985 474.692 215.236 474.651L203.184 474.521C202.779 474.517 202.382 474.559 201.99 474.624C200.647 468.262 198.228 462.085 194.733 456.376C195.054 456.157 195.364 455.915 195.651 455.636L204.304 447.248C206.997 444.637 207.063 440.323 204.453 437.632L196.065 428.979C193.453 426.284 189.139 426.217 186.447 428.828ZM167.392 509.654C154.746 521.914 134.486 521.6 122.226 508.956C109.966 496.31 110.28 476.049 122.926 463.789C135.571 451.529 155.832 451.844 168.092 464.489C180.351 477.134 180.036 497.394 167.392 509.654Z" stroke="#0F1B63" stroke-miterlimit="10"/>
<path d="M415.965 527.612H286.436V589.705H415.965V527.612Z" fill="#ED1C24"/>
<path d="M566.373 234.456V517.316C566.373 526.401 559.008 533.766 549.91 533.766H152.49C143.405 533.766 136.028 526.401 136.028 517.316V234.456C136.028 225.37 143.405 217.993 152.49 217.993H549.91C559.008 217.993 566.373 225.37 566.373 234.456Z" fill="#ED1C24"/>
<path opacity="0.5" d="M358.95 513.871C358.95 518.538 355.167 522.321 350.5 522.321C345.833 522.321 342.05 518.538 342.05 513.871C342.05 509.204 345.833 505.421 350.5 505.421C355.167 505.421 358.95 509.204 358.95 513.871Z" fill="white"/>
<path d="M561.204 495.231V237.625C561.204 229.817 555.091 223.487 547.552 223.487H154.849C147.31 223.487 141.198 229.817 141.198 237.625V495.231H561.204Z" fill="#DED7FF"/>
<path d="M441.451 596.395H260.95V595.962C260.95 588.811 266.748 583.014 273.899 583.014H428.501C435.653 583.014 441.45 588.811 441.45 595.962V596.395H441.451Z" fill="#ED1C24"/>
<path d="M175.062 220.844C175.062 208.376 165.663 198.116 153.566 196.73C153.659 195.914 153.718 195.089 153.718 194.25C153.718 182.295 144.027 172.606 132.074 172.606C128.872 172.606 125.842 173.32 123.107 174.568C117.344 165.584 107.277 159.626 95.8102 159.626C77.907 159.626 63.3937 174.139 63.3937 192.043C63.3937 193.619 63.512 195.168 63.7303 196.683C51.4789 197.923 41.9175 208.267 41.9175 220.845C41.9175 234.259 52.7915 245.133 66.2048 245.133H151.979V245.072C164.829 244.438 175.062 233.85 175.062 220.844Z" fill="#B19CFE"/>
<path d="M124.045 263.664V225.928H92.9344V263.664H83.2096L108.49 287.349L133.772 263.664H124.045Z" fill="#FFC655"/>
<path d="M467.726 238.688H391.34C384.277 238.688 378.551 232.961 378.551 225.898V200.494C378.551 193.431 384.277 187.705 391.34 187.705H467.726C474.789 187.705 480.515 193.431 480.515 200.494V225.897C480.515 232.961 474.789 238.688 467.726 238.688Z" fill="#E55A64"/>
<path d="M182.588 605.562H106.204C99.141 605.562 93.4146 599.835 93.4146 592.772V567.369C93.4146 560.307 99.141 554.58 106.204 554.58H182.59C189.653 554.58 195.379 560.307 195.379 567.369V592.772C195.379 599.835 189.653 605.562 182.588 605.562Z" fill="#E55A64"/>
<path d="M219.32 389.885H142.934C135.871 389.885 130.145 384.159 130.145 377.096V351.693C130.145 344.63 135.871 338.903 142.934 338.903H219.32C226.383 338.903 232.11 344.63 232.11 351.693V377.096C232.11 384.159 226.383 389.885 219.32 389.885Z" fill="#E55A64"/>
<path d="M488.474 553.118H484.836C484.233 553.118 483.745 552.63 483.745 552.027C483.745 551.424 484.233 550.935 484.836 550.935H488.474C489.077 550.935 489.565 551.424 489.565 552.027C489.565 552.63 489.077 553.118 488.474 553.118Z" fill="#B19CFE"/>
<path d="M575.811 553.118H568.533C567.93 553.118 567.441 552.63 567.441 552.027C567.441 551.424 567.93 550.935 568.533 550.935H575.811C576.414 550.935 576.903 551.424 576.903 552.027C576.903 552.63 576.414 553.118 575.811 553.118ZM561.254 553.118H553.977C553.374 553.118 552.886 552.63 552.886 552.027C552.886 551.424 553.374 550.935 553.977 550.935H561.254C561.857 550.935 562.346 551.424 562.346 552.027C562.346 552.63 561.857 553.118 561.254 553.118ZM546.699 553.118H539.42C538.818 553.118 538.329 552.63 538.329 552.027C538.329 551.424 538.818 550.935 539.42 550.935H546.699C547.302 550.935 547.79 551.424 547.79 552.027C547.79 552.63 547.302 553.118 546.699 553.118ZM532.142 553.118H524.863C524.261 553.118 523.772 552.63 523.772 552.027C523.772 551.424 524.261 550.935 524.863 550.935H532.142C532.745 550.935 533.233 551.424 533.233 552.027C533.235 552.63 532.745 553.118 532.142 553.118ZM517.586 553.118H510.309C509.707 553.118 509.218 552.63 509.218 552.027C509.218 551.424 509.707 550.935 510.309 550.935H517.586C518.189 550.935 518.678 551.424 518.678 552.027C518.678 552.63 518.189 553.118 517.586 553.118ZM503.031 553.118H495.752C495.15 553.118 494.661 552.63 494.661 552.027C494.661 551.424 495.15 550.935 495.752 550.935H503.031C503.634 550.935 504.122 551.424 504.122 552.027C504.122 552.63 503.634 553.118 503.031 553.118ZM583.018 552.272C582.526 552.272 582.08 551.937 581.959 551.437C581.817 550.851 582.176 550.261 582.762 550.118C585.035 549.568 587.239 548.741 589.311 547.659C589.846 547.38 590.505 547.588 590.782 548.123C591.061 548.656 590.854 549.316 590.319 549.594C588.089 550.758 585.719 551.648 583.276 552.239C583.19 552.262 583.104 552.272 583.018 552.272ZM595.803 545.616C595.5 545.616 595.199 545.49 594.983 545.245C594.585 544.793 594.63 544.103 595.083 543.705C596.841 542.16 598.411 540.405 599.751 538.489C600.094 537.995 600.775 537.874 601.27 538.22C601.765 538.565 601.884 539.247 601.539 539.74C600.101 541.798 598.414 543.683 596.526 545.344C596.317 545.526 596.059 545.616 595.803 545.616ZM604.055 533.802C603.924 533.802 603.79 533.778 603.662 533.729C603.1 533.512 602.82 532.88 603.038 532.318C603.88 530.138 604.455 527.856 604.746 525.537C604.821 524.938 605.348 524.513 605.966 524.59C606.564 524.665 606.988 525.211 606.912 525.81C606.598 528.305 605.98 530.759 605.073 533.105C604.907 533.538 604.493 533.802 604.055 533.802ZM606.069 519.499C605.466 519.499 604.977 519.01 604.977 518.407V511.129C604.977 510.526 605.466 510.038 606.069 510.038C606.672 510.038 607.16 510.526 607.16 511.129V518.407C607.162 519.01 606.672 519.499 606.069 519.499ZM606.069 504.942C605.466 504.942 604.977 504.453 604.977 503.851V496.573C604.977 495.971 605.466 495.482 606.069 495.482C606.672 495.482 607.16 495.971 607.16 496.573V503.851C607.162 504.453 606.672 504.942 606.069 504.942ZM606.069 490.387C605.466 490.387 604.977 489.898 604.977 489.295V482.018C604.977 481.415 605.466 480.926 606.069 480.926C606.672 480.926 607.16 481.415 607.16 482.018V489.295C607.162 489.898 606.672 490.387 606.069 490.387ZM606.069 475.831C605.466 475.831 604.977 475.342 604.977 474.739V467.461C604.977 466.858 605.466 466.37 606.069 466.37C606.672 466.37 607.16 466.858 607.16 467.461V474.739C607.162 475.341 606.672 475.831 606.069 475.831ZM606.069 461.275C605.466 461.275 604.977 460.787 604.977 460.184V452.906C604.977 452.303 605.466 451.814 606.069 451.814C606.672 451.814 607.16 452.303 607.16 452.906V460.184C607.162 460.785 606.672 461.275 606.069 461.275ZM606.069 446.719C605.466 446.719 604.977 446.23 604.977 445.627V438.35C604.977 437.747 605.466 437.258 606.069 437.258C606.672 437.258 607.16 437.747 607.16 438.35V445.627C607.162 446.23 606.672 446.719 606.069 446.719ZM606.069 432.162C605.466 432.162 604.977 431.673 604.977 431.07V423.792C604.977 423.189 605.466 422.7 606.069 422.7C606.672 422.7 607.16 423.189 607.16 423.792V431.07C607.162 431.673 606.672 432.162 606.069 432.162Z" fill="#B19CFE"/>
<path d="M606.068 417.574C605.466 417.574 604.977 417.085 604.977 416.482V413.936H604.062C603.459 413.936 602.97 413.447 602.97 412.844C602.97 412.242 603.459 411.753 604.062 411.753H606.068C606.671 411.753 607.16 412.242 607.16 412.844V416.482C607.161 417.085 606.671 417.574 606.068 417.574Z" fill="#B19CFE"/>
<path d="M572.193 302.608H476.699C470.958 302.608 466.305 307.262 466.305 313.002V511.454C466.305 517.195 470.958 521.848 476.699 521.848H572.193C577.934 521.848 582.587 517.195 582.587 511.454V313.002C582.587 307.262 577.934 302.608 572.193 302.608Z" fill="#B19CFE"/>
<path d="M545.799 314.044H493.271C492.36 314.044 491.62 313.305 491.62 312.394V312.181C491.62 311.27 492.36 310.531 493.271 310.531H545.799C546.71 310.531 547.45 311.27 547.45 312.181V312.394C547.45 313.305 546.71 314.044 545.799 314.044Z" fill="#0F1B63"/>
<path d="M557.272 312.287C557.272 313.257 556.485 314.044 555.514 314.044C554.544 314.044 553.757 313.257 553.757 312.287C553.757 311.316 554.544 310.529 555.514 310.529C556.485 310.529 557.272 311.316 557.272 312.287Z" fill="#0F1B63"/>
<path d="M576.186 322.517H472.706V386.104H576.186V322.517Z" fill="white"/>
<path d="M544.078 349.087L536.491 358.163L516.86 334.678L484.036 373.942H523.3H549.68H564.855L544.078 349.087Z" fill="#FFC655"/>
<path d="M521.561 470.329H472.706V498.983H521.561V470.329Z" fill="white"/>
<path d="M506.402 481.464L502.819 485.749L493.551 474.661L478.055 493.199H496.592H509.047H516.212L506.402 481.464Z" fill="#FFC655"/>
<path d="M521.561 402.459H472.706V405.204H521.561V402.459Z" fill="#B19CFE"/>
<path d="M521.561 396.707H472.706V399.452H521.561V396.707Z" fill="#B19CFE"/>
<path d="M503.597 408.078H472.706V410.823H503.597V408.078Z" fill="#B19CFE"/>
<path d="M521.56 408.078H505.793V410.823H521.56V408.078Z" fill="#B19CFE"/>
<path d="M515.929 413.691H472.706V416.436H515.929V413.691Z" fill="#B19CFE"/>
<path d="M487.718 419.457H472.706V422.202H487.718V419.457Z" fill="#B19CFE"/>
<path d="M501.12 419.457H490.308V422.202H501.12V419.457Z" fill="#B19CFE"/>
<path d="M576.186 440.901H527.331V443.646H576.186V440.901Z" fill="#B19CFE"/>
<path d="M576.186 435.147H527.331V437.892H576.186V435.147Z" fill="#B19CFE"/>
<path d="M558.222 446.519H527.331V449.264H558.222V446.519Z" fill="#B19CFE"/>
<path d="M576.185 446.519H560.418V449.264H576.185V446.519Z" fill="#B19CFE"/>
<path d="M570.554 452.131H527.331V454.876H570.554V452.131Z" fill="#B19CFE"/>
<path d="M542.343 457.897H527.331V460.642H542.343V457.897Z" fill="#B19CFE"/>
<path d="M555.745 457.897H544.933V460.642H555.745V457.897Z" fill="#B19CFE"/>
<path d="M576.186 402.459H527.331V405.204H576.186V402.459Z" fill="#B19CFE"/>
<path d="M576.186 396.707H527.331V399.452H576.186V396.707Z" fill="#B19CFE"/>
<path d="M558.222 408.078H527.331V410.823H558.222V408.078Z" fill="#B19CFE"/>
<path d="M576.185 408.078H560.418V410.823H576.185V408.078Z" fill="#B19CFE"/>
<path d="M576.186 413.691H527.331V416.436H576.186V413.691Z" fill="#B19CFE"/>
<path d="M542.343 419.457H527.331V422.202H542.343V419.457Z" fill="#B19CFE"/>
<path d="M576.186 419.457H544.933V422.202H576.186V419.457Z" fill="#B19CFE"/>
<path d="M521.561 440.901H472.706V443.646H521.561V440.901Z" fill="#B19CFE"/>
<path d="M521.561 435.147H472.706V437.892H521.561V435.147Z" fill="#B19CFE"/>
<path d="M521.561 446.519H472.706V449.264H521.561V446.519Z" fill="#B19CFE"/>
<path d="M521.561 452.131H472.706V454.876H521.561V452.131Z" fill="#B19CFE"/>
<path d="M521.561 457.897H472.706V460.642H521.561V457.897Z" fill="#B19CFE"/>
<path d="M576.186 477.019H527.331V479.763H576.186V477.019Z" fill="#B19CFE"/>
<path d="M576.186 471.267H527.331V474.012H576.186V471.267Z" fill="#B19CFE"/>
<path d="M576.184 482.636H545.293V485.381H576.184V482.636Z" fill="#B19CFE"/>
<path d="M543.098 482.636H527.331V485.381H543.098V482.636Z" fill="#B19CFE"/>
<path d="M564.844 488.249H527.331V490.994H564.844V488.249Z" fill="#B19CFE"/>
<path d="M576.184 488.249H567.449V490.994H576.184V488.249Z" fill="#B19CFE"/>
<path d="M576.186 494.015H540.149V496.76H576.186V494.015Z" fill="#B19CFE"/>
<path d="M538.143 494.015H527.331V496.76H538.143V494.015Z" fill="#B19CFE"/>
<path d="M489.44 572.831H413.054C405.991 572.831 400.265 567.105 400.265 560.042V534.639C400.265 527.576 405.991 521.85 413.054 521.85H489.44C496.503 521.85 502.23 527.576 502.23 534.639V560.042C502.23 567.105 496.503 572.831 489.44 572.831Z" fill="#E55A64"/>
<path d="M610.004 488.274C610.004 490.901 607.874 493.03 605.248 493.03C602.621 493.03 600.492 490.901 600.492 488.274C600.492 485.647 602.621 483.518 605.248 483.518C607.874 483.518 610.004 485.647 610.004 488.274Z" fill="#B19CFE"/>
<path d="M605.246 497.188C600.331 497.188 596.333 493.189 596.333 488.274C596.333 483.359 600.332 479.36 605.246 479.36C610.161 479.36 614.16 483.359 614.16 488.274C614.161 493.189 610.161 497.188 605.246 497.188ZM605.246 480.45C600.932 480.45 597.424 483.96 597.424 488.273C597.424 492.585 600.934 496.095 605.246 496.095C609.56 496.095 613.068 492.585 613.068 488.273C613.068 483.96 609.56 480.45 605.246 480.45Z" fill="#B19CFE"/>
<path d="M646.292 418.488H569.906C562.843 418.488 557.117 412.761 557.117 405.698V380.296C557.117 373.233 562.843 367.506 569.906 367.506H646.292C653.355 367.506 659.081 373.233 659.081 380.296V405.698C659.081 412.761 653.355 418.488 646.292 418.488Z" fill="#E55A64"/>
<path d="M372.058 427.821H339.974V430.732H372.058V427.821Z" fill="#0F1B63"/>
<path d="M454.59 427.821H380.289V430.732H454.59V427.821Z" fill="#0F1B63"/>
<path d="M416.509 452.869C403.755 452.869 390.973 452.853 378.249 452.823L378.255 449.911C403.699 449.972 429.379 449.972 454.586 449.911L454.593 452.823C441.988 452.853 429.263 452.869 416.509 452.869Z" fill="#0F1B63"/>
<path d="M454.59 438.867H366.56V441.778H454.59V438.867Z" fill="#0F1B63"/>
<path d="M454.592 461.004H361.771V463.915H454.592V461.004Z" fill="#0F1B63"/>
<path d="M454.592 472.05H348.897V474.961H454.592V472.05Z" fill="#0F1B63"/>
<path d="M216.265 261.374H166.571V264.285H216.265V261.374Z" fill="#B19CFE"/>
<path d="M331.765 261.374H280.483V264.285H331.765V261.374Z" fill="#B19CFE"/>
<path d="M331.764 272.42H296.192V275.331H331.764V272.42Z" fill="#FFC655"/>
<path d="M331.764 294.558H281.559V297.469H331.764V294.558Z" fill="#FFC655"/>
<path d="M331.765 305.603H271.726V308.514H331.765V305.603Z" fill="#FFC655"/>
<path d="M331.764 318.517H254.536V321.428H331.764V318.517Z" fill="#FFC655"/>
<path d="M274.014 261.374H224.32V264.285H274.014V261.374Z" fill="#FFC655"/>
<path d="M291.647 286.422C284.056 286.422 276.438 286.411 261.202 286.39L251.297 286.375L251.3 283.464L261.206 283.478C291.672 283.521 291.675 283.521 321.926 283.478L331.764 283.464V286.375L321.93 286.39C306.802 286.412 299.238 286.422 291.647 286.422Z" fill="#FFC655"/>
<path d="M204.652 286.422C191.898 286.422 179.173 286.407 166.568 286.377L166.574 283.466C191.781 283.526 217.464 283.526 242.908 283.466L242.913 286.377C230.189 286.408 217.405 286.422 204.652 286.422Z" fill="#B19CFE"/>
<path d="M289.134 272.42H166.571V275.331H289.134V272.42Z" fill="#B19CFE"/>
<path d="M247.733 318.517H166.571V321.428H247.733V318.517Z" fill="#B19CFE"/>
<path d="M275.221 294.558H166.571V297.469H275.221V294.558Z" fill="#B19CFE"/>
<path d="M265.04 305.603H166.571V308.514H265.04V305.603Z" fill="#B19CFE"/>
<path d="M156.169 264.837C157.277 264.837 158.176 263.939 158.176 262.83C158.176 261.722 157.277 260.823 156.169 260.823C155.06 260.823 154.162 261.722 154.162 262.83C154.162 263.939 155.06 264.837 156.169 264.837Z" fill="#ED1C24"/>
<path d="M158.175 273.876C158.175 274.985 157.277 275.883 156.169 275.883C155.06 275.883 154.162 274.985 154.162 273.876C154.162 272.768 155.06 271.869 156.169 271.869C157.277 271.868 158.175 272.767 158.175 273.876Z" fill="#ED1C24"/>
<path d="M156.169 286.928C157.277 286.928 158.175 286.029 158.175 284.921C158.175 283.812 157.277 282.914 156.169 282.914C155.06 282.914 154.162 283.812 154.162 284.921C154.162 286.029 155.06 286.928 156.169 286.928Z" fill="#ED1C24"/>
<path d="M158.175 295.967C158.175 297.075 157.277 297.974 156.169 297.974C155.06 297.974 154.162 297.075 154.162 295.967C154.162 294.858 155.06 293.96 156.169 293.96C157.277 293.96 158.175 294.858 158.175 295.967Z" fill="#ED1C24"/>
<path d="M156.169 309.066C157.277 309.066 158.175 308.167 158.175 307.059C158.175 305.951 157.277 305.052 156.169 305.052C155.06 305.052 154.162 305.951 154.162 307.059C154.162 308.167 155.06 309.066 156.169 309.066Z" fill="#ED1C24"/>
<path d="M158.175 319.972C158.175 321.081 157.277 321.979 156.169 321.979C155.06 321.979 154.162 321.081 154.162 319.972C154.162 318.864 155.06 317.965 156.169 317.965C157.277 317.965 158.175 318.864 158.175 319.972Z" fill="#ED1C24"/>
<path d="M345.011 326.553C344.609 326.553 344.283 326.228 344.283 325.825V261.195C344.283 260.792 344.609 260.467 345.011 260.467C345.414 260.467 345.74 260.792 345.74 261.195V325.827C345.738 326.228 345.413 326.553 345.011 326.553Z" fill="#ED1C24"/>
<path d="M221.123 465.967H216.649C216.236 465.967 215.904 465.633 215.904 465.222C215.904 464.809 216.237 464.477 216.649 464.477H221.123C221.536 464.477 221.868 464.81 221.868 465.222C221.869 465.633 221.536 465.967 221.123 465.967ZM212.176 465.967H207.703C207.29 465.967 206.958 465.633 206.958 465.222C206.958 464.809 207.291 464.477 207.703 464.477H212.176C212.588 464.477 212.921 464.81 212.921 465.222C212.922 465.633 212.588 465.967 212.176 465.967ZM203.228 465.967H201.417C200.399 465.967 199.392 465.706 198.506 465.215C198.144 465.015 198.016 464.561 198.214 464.201C198.416 463.839 198.874 463.712 199.228 463.91C199.895 464.279 200.651 464.475 201.417 464.475H203.228C203.641 464.475 203.973 464.809 203.973 465.22C203.975 465.633 203.641 465.967 203.228 465.967ZM196.274 461.829C195.931 461.829 195.623 461.591 195.547 461.242C195.455 460.82 195.409 460.388 195.409 459.959V456.619C195.409 456.207 195.743 455.874 196.154 455.874C196.565 455.874 196.899 456.208 196.899 456.619V459.959C196.899 460.281 196.934 460.608 197.003 460.926C197.091 461.329 196.836 461.726 196.434 461.813C196.379 461.823 196.326 461.829 196.274 461.829ZM196.154 452.891C195.741 452.891 195.409 452.558 195.409 452.146V447.672C195.409 447.259 195.743 446.927 196.154 446.927C196.565 446.927 196.899 447.261 196.899 447.672V452.146C196.899 452.558 196.567 452.891 196.154 452.891ZM196.154 443.944C195.741 443.944 195.409 443.61 195.409 443.197V438.723C195.409 438.31 195.743 437.978 196.154 437.978C196.565 437.978 196.899 438.312 196.899 438.723V443.197C196.899 443.61 196.567 443.944 196.154 443.944ZM196.154 434.995C195.741 434.995 195.409 434.661 195.409 434.25V429.776C195.409 429.363 195.743 429.031 196.154 429.031C196.565 429.031 196.899 429.364 196.899 429.776V434.25C196.899 434.663 196.567 434.995 196.154 434.995ZM196.154 426.048C195.741 426.048 195.409 425.714 195.409 425.303V424.758C195.409 423.241 195.975 421.792 197.005 420.679C197.285 420.378 197.755 420.358 198.059 420.638C198.361 420.917 198.381 421.39 198.1 421.692C197.327 422.528 196.9 423.617 196.9 424.759V425.304C196.899 425.715 196.567 426.048 196.154 426.048ZM223.917 420.241H219.444C219.032 420.241 218.699 419.907 218.699 419.496C218.699 419.085 219.033 418.751 219.444 418.751H223.917C224.33 418.751 224.664 419.085 224.664 419.496C224.664 419.907 224.33 420.241 223.917 420.241ZM214.97 420.241H210.497C210.084 420.241 209.752 419.907 209.752 419.496C209.752 419.085 210.086 418.751 210.497 418.751H214.97C215.382 418.751 215.715 419.085 215.715 419.496C215.715 419.907 215.382 420.241 214.97 420.241ZM206.022 420.241H201.549C201.137 420.241 200.804 419.907 200.804 419.496C200.804 419.085 201.138 418.751 201.549 418.751H206.022C206.435 418.751 206.767 419.085 206.767 419.496C206.767 419.907 206.435 420.241 206.022 420.241Z" fill="#0F1B63"/>
<path d="M237.352 446.604H213.402V449.587H237.352V446.604Z" fill="#0F1B63"/>
<path d="M282.311 446.604H243.62V449.587H282.311V446.604Z" fill="#0F1B63"/>
<path d="M282.31 471.978H258.362V474.961H282.31V471.978Z" fill="#0F1B63"/>
<path d="M252.095 471.978H213.402V474.961H252.095V471.978Z" fill="#0F1B63"/>
<path d="M255.525 455.246H213.402V458.229H255.525V455.246Z" fill="#0F1B63"/>
<path d="M282.31 455.246H261.792V458.229H282.31V455.246Z" fill="#0F1B63"/>
<path d="M248.067 463.73H213.402V466.713H248.067V463.73Z" fill="#0F1B63"/>
<path d="M282.31 463.73H258.788V466.713H282.31V463.73Z" fill="#0F1B63"/>
<path d="M225.94 410.573H213.403V433.918H225.94V410.573Z" fill="#FFC655"/>
<path d="M245.609 401.71H233.072V433.916H245.609V401.71Z" fill="#ED1C24"/>
<path d="M264.631 383.336H252.093V433.916H264.631V383.336Z" fill="#E55A64"/>
<path d="M255.879 463.73H251.379V466.713H255.879V463.73Z" fill="#0F1B63"/>
<path d="M453.462 304.097H359.609V408.81H453.462V304.097Z" fill="#B19CFE"/>
<path d="M432.628 322.707H367.187V324.89H432.628V322.707Z" fill="white"/>
<path d="M399.838 340.779C388.6 340.779 377.382 340.768 367.185 340.743L367.191 338.56C387.581 338.611 412.046 338.611 432.627 338.56L432.632 340.743C422.338 340.768 411.077 340.779 399.838 340.779Z" fill="white"/>
<path d="M432.628 330.634H367.187V332.817H432.628V330.634Z" fill="white"/>
<path d="M414.894 346.523H367.187V348.706H414.894V346.523Z" fill="white"/>
<path d="M432.628 399.879H367.187V402.062H432.628V399.879Z" fill="white"/>
<path d="M432.627 386.211C412.043 386.161 387.58 386.161 367.191 386.211L367.185 384.028C387.58 383.98 412.047 383.98 432.632 384.028L432.627 386.211Z" fill="white"/>
<path d="M432.628 391.954H367.187V394.137H432.628V391.954Z" fill="white"/>
<path d="M414.894 376.065H367.187V378.248H414.894V376.065Z" fill="white"/>
<path d="M454.917 410.264H358.153V302.608H454.917V410.264ZM359.609 408.809H453.462V304.063H359.609V408.809Z" fill="#E55A64"/>
<path d="M454.19 303.335H358.882V315.878H454.19V303.335Z" fill="#E55A64"/>
<path d="M426.972 370.488C426.714 370.488 426.458 370.398 426.248 370.215L418.914 363.735C418.679 363.528 418.547 363.229 418.547 362.916C418.547 362.604 418.681 362.305 418.914 362.098L426.248 355.618C426.7 355.22 427.389 355.259 427.79 355.714C428.189 356.166 428.145 356.855 427.694 357.255L421.286 362.916L427.694 368.578C428.145 368.978 428.187 369.667 427.79 370.119C427.575 370.364 427.273 370.488 426.972 370.488Z" fill="white"/>
<path d="M438.285 370.488C437.984 370.488 437.682 370.364 437.467 370.119C437.068 369.667 437.112 368.978 437.563 368.578L443.971 362.916L437.563 357.255C437.112 356.855 437.07 356.166 437.467 355.714C437.867 355.262 438.555 355.221 439.009 355.618L446.342 362.098C446.578 362.305 446.71 362.604 446.71 362.916C446.71 363.229 446.576 363.526 446.342 363.735L439.009 370.214C438.801 370.398 438.543 370.488 438.285 370.488Z" fill="white"/>
<path d="M367.908 309.608L370.45 307.066C370.691 306.825 370.691 306.436 370.45 306.196C370.209 305.955 369.82 305.955 369.58 306.196L367.037 308.738L364.495 306.196C364.255 305.955 363.866 305.955 363.625 306.196C363.384 306.436 363.384 306.825 363.625 307.066L366.167 309.608L363.625 312.15C363.384 312.391 363.384 312.78 363.625 313.02C363.745 313.14 363.902 313.201 364.06 313.201C364.218 313.201 364.376 313.14 364.495 313.02L367.037 310.478L369.58 313.02C369.699 313.14 369.857 313.201 370.015 313.201C370.172 313.201 370.33 313.14 370.45 313.02C370.691 312.78 370.691 312.391 370.45 312.15L367.908 309.608Z" fill="white"/>
<path d="M378.813 313.201C376.831 313.201 375.219 311.588 375.219 309.608C375.219 307.626 376.831 306.015 378.813 306.015C380.795 306.015 382.406 307.628 382.406 309.608C382.406 311.589 380.795 313.201 378.813 313.201ZM378.813 307.164C377.467 307.164 376.371 308.26 376.371 309.606C376.371 310.953 377.467 312.049 378.813 312.049C380.159 312.049 381.255 310.953 381.255 309.606C381.255 308.26 380.159 307.164 378.813 307.164Z" fill="white"/>
<path d="M392.715 313.201H386.859C386.518 313.201 386.243 312.925 386.243 312.585C386.243 312.246 386.518 311.97 386.859 311.97H392.715C393.055 311.97 393.33 312.246 393.33 312.585C393.33 312.925 393.054 313.201 392.715 313.201Z" fill="white"/>
<path d="M329.617 163.125L321.141 165.806C320.86 165.895 320.594 166.012 320.34 166.144C317.787 161.756 314.514 157.935 310.724 154.786C310.901 154.552 311.066 154.307 311.202 154.041L315.263 146.133C316.526 143.672 315.552 140.643 313.091 139.378L305.183 135.318C302.723 134.056 299.692 135.029 298.429 137.489L294.368 145.397C294.232 145.664 294.129 145.94 294.043 146.218C289.402 145.006 284.529 144.565 279.608 144.989C279.57 144.706 279.513 144.421 279.424 144.14L276.742 135.664C275.909 133.026 273.084 131.559 270.446 132.394L261.97 135.075C259.332 135.909 257.866 138.734 258.7 141.372L261.381 149.848C261.47 150.129 261.587 150.396 261.719 150.649C257.331 153.203 253.51 156.476 250.361 160.266C250.127 160.088 249.882 159.923 249.616 159.787L241.708 155.726C240.523 155.118 239.173 155.004 237.904 155.405C237.897 155.408 237.888 155.409 237.881 155.414C236.605 155.824 235.566 156.707 234.953 157.898L230.893 165.806C229.63 168.266 230.604 171.296 233.065 172.561L240.973 176.621C241.24 176.759 241.516 176.858 241.795 176.943C240.583 181.584 240.14 186.458 240.564 191.379C240.281 191.417 239.997 191.475 239.715 191.564L231.239 194.245C228.601 195.079 227.135 197.904 227.969 200.542L230.651 209.018C231.484 211.656 234.31 213.122 236.948 212.288L245.423 209.606C245.705 209.518 245.971 209.401 246.224 209.268C248.778 213.658 252.052 217.479 255.844 220.63C255.668 220.862 255.5 221.104 255.362 221.372L251.302 229.28C250.689 230.471 250.578 231.832 250.988 233.106C251.397 234.382 252.28 235.422 253.472 236.033L261.38 240.093C262.602 240.722 263.966 240.796 265.183 240.41C266.415 240.02 267.498 239.158 268.133 237.92L272.193 230.012C272.331 229.745 272.43 229.469 272.516 229.19C277.157 230.402 282.031 230.843 286.953 230.421C286.991 230.704 287.049 230.988 287.138 231.271L289.819 239.747C290.653 242.385 293.478 243.851 296.116 243.017L304.592 240.336C307.229 239.502 308.696 236.677 307.862 234.039L305.18 225.563C305.092 225.282 304.975 225.015 304.842 224.762C309.232 222.209 313.053 218.934 316.204 215.143C316.436 215.32 316.678 215.486 316.947 215.624L324.855 219.685C326.078 220.313 327.441 220.387 328.659 220.003C329.892 219.613 330.975 218.751 331.61 217.513L335.672 209.605C336.935 207.145 335.96 204.114 333.5 202.85L325.592 198.79C325.326 198.654 325.05 198.551 324.769 198.463C325.981 193.823 326.423 188.95 325.999 184.03C326.282 183.992 326.566 183.935 326.849 183.846L335.325 181.164C337.963 180.331 339.429 177.505 338.595 174.869L335.914 166.393C335.079 163.758 332.255 162.291 329.617 163.125ZM290.387 210.168C278 214.086 264.735 207.197 260.817 194.81C256.898 182.423 263.788 169.158 276.175 165.24C288.561 161.322 301.826 168.212 305.744 180.598C309.662 192.986 302.772 206.25 290.387 210.168Z" fill="#0F1B63"/>
<path d="M318.914 359.901L316.854 364.946C316.785 365.113 316.736 365.284 316.699 365.456C313.63 364.937 310.546 364.982 307.576 365.533C307.535 365.358 307.484 365.184 307.412 365.015L305.277 360.001C304.612 358.44 302.804 357.712 301.244 358.376L296.23 360.509C294.671 361.173 293.941 362.984 294.605 364.543L296.74 369.557C296.811 369.726 296.902 369.882 296.999 370.033C294.609 371.744 292.489 373.868 290.76 376.352C290.612 376.259 290.455 376.175 290.286 376.106L285.242 374.045C283.671 373.404 281.873 374.159 281.232 375.73L279.172 380.774C278.531 382.345 279.286 384.143 280.856 384.784L285.901 386.844C286.068 386.913 286.239 386.963 286.411 386.999C285.892 390.068 285.937 393.153 286.488 396.123C286.313 396.164 286.139 396.214 285.97 396.286L280.956 398.421C280.204 398.741 279.622 399.333 279.314 400.087C279.312 400.092 279.31 400.097 279.308 400.101C279.001 400.863 279.01 401.7 279.331 402.455L281.466 407.469C282.131 409.028 283.94 409.757 285.499 409.094L290.513 406.959C290.682 406.887 290.839 406.795 290.988 406.698C292.699 409.09 294.823 411.209 297.309 412.939C297.216 413.087 297.131 413.244 297.062 413.412L295.002 418.457C294.361 420.027 295.116 421.826 296.686 422.466L301.731 424.527C303.301 425.168 305.1 424.413 305.741 422.842L307.801 417.798C307.87 417.63 307.919 417.46 307.956 417.288C311.025 417.806 314.11 417.761 317.081 417.209C317.122 417.384 317.169 417.557 317.243 417.727L319.378 422.741C319.699 423.497 320.296 424.082 321.058 424.389C321.82 424.696 322.656 424.687 323.411 424.366L328.425 422.231C329.2 421.902 329.77 421.289 330.066 420.564C330.366 419.83 330.384 418.982 330.05 418.198L327.917 413.184C327.845 413.013 327.753 412.858 327.655 412.709C330.046 410.998 332.166 408.874 333.895 406.388C334.045 406.481 334.201 406.566 334.368 406.635L339.413 408.695C340.984 409.336 342.782 408.581 343.423 407.011L345.483 401.966C346.124 400.396 345.369 398.597 343.799 397.957L338.754 395.896C338.587 395.827 338.416 395.778 338.244 395.741C338.763 392.672 338.718 389.587 338.165 386.616C338.34 386.576 338.513 386.528 338.684 386.454L343.698 384.319C344.472 383.99 345.043 383.376 345.338 382.652C345.638 381.918 345.657 381.07 345.321 380.286L343.188 375.271C342.523 373.71 340.713 372.982 339.154 373.645L334.14 375.78C333.971 375.852 333.815 375.942 333.664 376.039C331.953 373.649 329.829 371.53 327.345 369.8C327.438 369.653 327.522 369.495 327.591 369.327L329.652 364.282C330.293 362.712 329.538 360.914 327.967 360.273L322.923 358.212C321.354 357.574 319.555 358.331 318.914 359.901ZM325.7 396.833C322.689 404.205 314.241 407.755 306.869 404.745C299.496 401.734 295.947 393.286 298.956 385.914C301.967 378.541 310.415 374.992 317.788 378.003C325.161 381.012 328.71 389.46 325.7 396.833Z" fill="#B19CFE"/>
<path d="M285.501 334.288L282.819 337.005C282.731 337.095 282.653 337.192 282.583 337.294C280.733 336.139 278.725 335.343 276.653 334.908C276.675 334.784 276.687 334.657 276.686 334.529L276.644 330.712C276.63 329.525 275.652 328.569 274.465 328.583L270.647 328.627C269.459 328.641 268.503 329.617 268.517 330.805L268.561 334.622C268.562 334.75 268.579 334.876 268.602 334.999C266.596 335.47 264.657 336.278 262.874 337.426C262.802 337.326 262.725 337.23 262.633 337.14L259.916 334.459C259.071 333.625 257.704 333.633 256.87 334.478L254.189 337.195C253.355 338.04 253.363 339.408 254.208 340.241L256.925 342.923C257.015 343.012 257.112 343.089 257.214 343.16C256.059 345.009 255.263 347.018 254.828 349.089C254.704 349.068 254.577 349.055 254.449 349.056L250.632 349.1C250.061 349.107 249.525 349.334 249.124 349.741C249.121 349.744 249.118 349.745 249.117 349.748C248.714 350.159 248.497 350.703 248.503 351.279L248.547 355.096C248.561 356.283 249.538 357.239 250.725 357.225L254.543 357.181C254.673 357.18 254.797 357.163 254.921 357.139C255.391 359.145 256.2 361.084 257.347 362.868C257.247 362.94 257.152 363.019 257.062 363.109L254.38 365.826C253.546 366.671 253.555 368.038 254.4 368.872L257.117 371.554C257.962 372.387 259.329 372.379 260.163 371.534L262.844 368.817C262.933 368.727 263.011 368.63 263.081 368.529C264.93 369.683 266.94 370.479 269.012 370.914C268.99 371.038 268.976 371.164 268.978 371.293L269.021 375.11C269.029 375.686 269.258 376.224 269.669 376.627C270.081 377.029 270.624 377.246 271.2 377.241L275.018 377.198C275.608 377.191 276.141 376.946 276.527 376.556C276.917 376.162 277.155 375.617 277.148 375.02L277.104 371.203C277.103 371.073 277.084 370.95 277.062 370.826C279.067 370.355 281.007 369.547 282.791 368.399C282.863 368.499 282.942 368.596 283.032 368.685L285.749 371.366C286.594 372.202 287.961 372.192 288.795 371.347L291.477 368.63C292.31 367.785 292.302 366.417 291.457 365.584L288.74 362.902C288.65 362.813 288.553 362.736 288.451 362.666C289.606 360.816 290.402 358.807 290.839 356.735C290.962 356.756 291.088 356.77 291.217 356.769L295.034 356.725C295.624 356.718 296.158 356.474 296.542 356.083C296.933 355.687 297.171 355.143 297.164 354.546L297.121 350.728C297.107 349.541 296.13 348.585 294.943 348.599L291.126 348.642C290.998 348.644 290.872 348.661 290.748 348.683C290.278 346.678 289.47 344.738 288.322 342.955C288.422 342.884 288.519 342.805 288.608 342.715L291.289 339.998C292.123 339.153 292.115 337.785 291.27 336.951L288.553 334.27C287.702 333.435 286.336 333.443 285.501 334.288ZM280.032 360.018C276.113 363.989 269.695 364.032 265.723 360.112C261.751 356.193 261.709 349.775 265.629 345.803C269.547 341.833 275.966 341.791 279.938 345.709C283.908 349.63 283.95 356.048 280.032 360.018Z" stroke="#B19CFE" stroke-width="0.5" stroke-miterlimit="10"/>
<path d="M71.0849 298.799H53.6844V301.71H71.0849V298.799Z" fill="#0F1B63"/>
<path d="M122.659 298.799H78.2759V301.71H122.659V298.799Z" fill="#0F1B63"/>
<path d="M122.659 330.049H95.1863V332.96H122.659V330.049Z" fill="#0F1B63"/>
<path d="M87.9966 330.049H53.6844V332.96H87.9966V330.049Z" fill="#0F1B63"/>
<path d="M91.933 309.44H53.6844V312.351H91.933V309.44Z" fill="#0F1B63"/>
<path d="M122.659 309.44H99.1226V312.351H122.659V309.44Z" fill="#0F1B63"/>
<path d="M83.3757 319.89H53.6844V322.801H83.3757V319.89Z" fill="#0F1B63"/>
<path d="M122.659 319.89H95.6763V322.801H122.659V319.89Z" fill="#0F1B63"/>
<path d="M92.3372 319.89H87.1755V322.801H92.3372V319.89Z" fill="#0F1B63"/>
<path d="M529.69 571.4H512.29V574.311H529.69V571.4Z" fill="#0F1B63"/>
<path d="M581.263 571.4H536.88V574.311H581.263V571.4Z" fill="#0F1B63"/>
<path d="M581.263 602.651H553.79V605.562H581.263V602.651Z" fill="#0F1B63"/>
<path d="M546.6 602.651H512.29V605.562H546.6V602.651Z" fill="#0F1B63"/>
<path d="M550.537 582.043H512.29V584.954H550.537V582.043Z" fill="#0F1B63"/>
<path d="M581.264 582.043H557.727V584.954H581.264V582.043Z" fill="#0F1B63"/>
<path d="M541.981 592.492H512.29V595.403H541.981V592.492Z" fill="#0F1B63"/>
<path d="M581.263 592.492H554.28V595.403H581.263V592.492Z" fill="#0F1B63"/>
<path d="M550.941 592.492H545.779V595.403H550.941V592.492Z" fill="#0F1B63"/>
<path d="M570.122 212.185L563.288 213.649C563.062 213.698 562.845 213.768 562.636 213.853C560.967 210.228 558.691 206.993 555.961 204.243C556.117 204.074 556.265 203.894 556.392 203.696L560.162 197.811C561.335 195.981 560.8 193.537 558.969 192.364L553.085 188.594C551.254 187.422 548.81 187.956 547.637 189.788L543.867 195.672C543.74 195.869 543.639 196.078 543.55 196.29C540.009 194.995 536.229 194.283 532.346 194.247C532.338 194.021 532.314 193.796 532.266 193.568L530.803 186.735C530.348 184.608 528.248 183.249 526.121 183.704L519.288 185.167C517.161 185.622 515.802 187.723 516.257 189.85L517.72 196.683C517.77 196.91 517.84 197.127 517.925 197.335C514.3 199.004 511.065 201.28 508.315 204.01C508.146 203.853 507.966 203.705 507.769 203.579L501.885 199.808C501.003 199.244 499.955 199.054 498.933 199.272C498.927 199.273 498.92 199.275 498.915 199.276C497.885 199.501 497.006 200.114 496.437 201.001L492.667 206.886C491.495 208.716 492.029 211.16 493.861 212.333L499.745 216.103C499.945 216.231 500.154 216.33 500.365 216.417C499.069 219.958 498.358 223.739 498.32 227.622C498.096 227.631 497.87 227.655 497.641 227.703L490.808 229.166C488.681 229.621 487.322 231.721 487.777 233.849L489.24 240.682C489.695 242.809 491.795 244.168 493.922 243.713L500.755 242.25C500.982 242.2 501.199 242.13 501.407 242.046C503.076 245.672 505.352 248.907 508.084 251.656C507.928 251.825 507.78 252.001 507.652 252.201L503.882 258.085C503.313 258.973 503.124 260.028 503.349 261.057C503.575 262.087 504.187 262.965 505.075 263.533L510.959 267.303C511.869 267.886 512.929 268.047 513.911 267.837C514.904 267.624 515.816 267.031 516.406 266.11L520.177 260.226C520.305 260.028 520.403 259.818 520.491 259.607C524.031 260.902 527.813 261.613 531.696 261.651C531.704 261.877 531.728 262.104 531.777 262.33L533.241 269.164C533.696 271.29 535.796 272.649 537.922 272.195L544.756 270.731C546.882 270.276 548.241 268.176 547.786 266.05L546.323 259.216C546.274 258.99 546.203 258.773 546.119 258.564C549.745 256.895 552.98 254.619 555.73 251.887C555.899 252.044 556.076 252.191 556.275 252.32L562.159 256.09C563.069 256.673 564.131 256.833 565.112 256.624C566.105 256.411 567.018 255.818 567.608 254.897L571.378 249.013C572.551 247.182 572.015 244.738 570.185 243.565L564.301 239.795C564.104 239.668 563.894 239.567 563.683 239.478C564.978 235.937 565.69 232.157 565.726 228.276C565.952 228.267 566.178 228.243 566.405 228.196L573.239 226.732C575.365 226.277 576.724 224.178 576.269 222.051L574.806 215.217C574.348 213.089 572.248 211.73 570.122 212.185ZM535.9 246.061C525.913 248.199 516.049 241.815 513.911 231.828C511.773 221.841 518.157 211.977 528.144 209.839C538.131 207.701 547.995 214.085 550.133 224.072C552.271 234.059 545.885 243.923 535.9 246.061Z" fill="#0F1B63"/>
<path d="M411.521 216.608V215.188L422.956 209.364V211.636L414.185 215.862L414.256 215.72V216.075L414.185 215.933L422.956 220.159V222.432L411.521 216.608ZM433.825 203.966L427.965 225.734H426.048L431.907 203.966H433.825ZM448.347 216.608L436.912 222.432V220.159L445.683 215.933L445.612 216.075V215.72L445.683 215.862L436.912 211.636V209.364L448.347 215.188V216.608Z" fill="white"/>
<path d="M127.889 582.094V588H126.381V574.909H127.889V579.716H128.017C128.247 579.209 128.592 578.806 129.053 578.508C129.517 578.205 130.135 578.054 130.906 578.054C131.575 578.054 132.161 578.188 132.664 578.457C133.167 578.721 133.557 579.128 133.834 579.678C134.115 580.223 134.256 580.918 134.256 581.761V588H132.747V581.864C132.747 581.084 132.545 580.481 132.14 580.055C131.739 579.624 131.183 579.409 130.472 579.409C129.977 579.409 129.534 579.513 129.142 579.722C128.754 579.931 128.447 580.236 128.222 580.636C128 581.037 127.889 581.523 127.889 582.094ZM141.285 578.182V579.46H136.197V578.182H141.285ZM137.68 575.83H139.189V585.188C139.189 585.614 139.251 585.933 139.374 586.146C139.502 586.355 139.664 586.496 139.86 586.568C140.06 586.636 140.271 586.67 140.493 586.67C140.659 586.67 140.795 586.662 140.902 586.645C141.008 586.624 141.094 586.607 141.157 586.594L141.464 587.949C141.362 587.987 141.219 588.026 141.036 588.064C140.853 588.107 140.621 588.128 140.339 588.128C139.913 588.128 139.496 588.036 139.086 587.853C138.682 587.67 138.345 587.391 138.077 587.016C137.812 586.641 137.68 586.168 137.68 585.597V575.83ZM143.555 588V578.182H145.012V579.716H145.14C145.344 579.192 145.675 578.785 146.131 578.495C146.586 578.201 147.134 578.054 147.773 578.054C148.421 578.054 148.96 578.201 149.39 578.495C149.825 578.785 150.164 579.192 150.407 579.716H150.509C150.76 579.209 151.138 578.806 151.64 578.508C152.143 578.205 152.746 578.054 153.449 578.054C154.327 578.054 155.045 578.329 155.604 578.879C156.162 579.424 156.441 580.274 156.441 581.429V588H154.932V581.429C154.932 580.705 154.734 580.187 154.338 579.876C153.942 579.565 153.475 579.409 152.938 579.409C152.248 579.409 151.713 579.618 151.334 580.036C150.954 580.449 150.765 580.973 150.765 581.608V588H149.231V581.276C149.231 580.717 149.05 580.268 148.687 579.927C148.325 579.582 147.858 579.409 147.287 579.409C146.895 579.409 146.529 579.513 146.188 579.722C145.851 579.931 145.579 580.221 145.37 580.592C145.165 580.958 145.063 581.382 145.063 581.864V588H143.555ZM160.708 574.909V588H159.199V574.909H160.708Z" fill="white"/>
<path d="M174.48 361.476H176.097V372.767C176.097 373.416 175.985 373.978 175.761 374.453C175.542 374.928 175.208 375.296 174.761 375.556C174.318 375.816 173.758 375.947 173.082 375.947C173.027 375.947 172.972 375.947 172.918 375.947C172.863 375.947 172.808 375.947 172.753 375.947V374.439C172.808 374.439 172.858 374.439 172.904 374.439C172.95 374.439 173 374.439 173.055 374.439C173.548 374.439 173.909 374.293 174.137 374.001C174.366 373.713 174.48 373.302 174.48 372.767V361.476ZM175.275 359.722C174.959 359.722 174.688 359.614 174.459 359.4C174.235 359.185 174.124 358.927 174.124 358.625C174.124 358.324 174.235 358.066 174.459 357.851C174.688 357.636 174.959 357.529 175.275 357.529C175.59 357.529 175.859 357.636 176.083 357.851C176.312 358.066 176.426 358.324 176.426 358.625C176.426 358.927 176.312 359.185 176.083 359.4C175.859 359.614 175.59 359.722 175.275 359.722ZM186.513 363.833L185.061 364.244C184.969 364.002 184.835 363.766 184.656 363.538C184.483 363.305 184.245 363.113 183.944 362.963C183.642 362.812 183.256 362.736 182.786 362.736C182.142 362.736 181.605 362.885 181.176 363.182C180.751 363.474 180.539 363.846 180.539 364.299C180.539 364.701 180.685 365.018 180.977 365.251C181.269 365.484 181.726 365.678 182.347 365.833L183.91 366.217C184.851 366.445 185.552 366.795 186.013 367.265C186.474 367.731 186.705 368.332 186.705 369.067C186.705 369.67 186.532 370.209 186.184 370.684C185.842 371.16 185.362 371.534 184.746 371.808C184.129 372.082 183.412 372.219 182.594 372.219C181.521 372.219 180.632 371.986 179.929 371.52C179.225 371.054 178.78 370.374 178.593 369.479L180.127 369.095C180.274 369.661 180.55 370.086 180.957 370.369C181.368 370.652 181.904 370.794 182.567 370.794C183.32 370.794 183.919 370.634 184.362 370.314C184.809 369.99 185.033 369.602 185.033 369.15C185.033 368.784 184.905 368.478 184.65 368.232C184.394 367.98 184.001 367.793 183.471 367.67L181.717 367.259C180.753 367.03 180.045 366.676 179.593 366.197C179.145 365.712 178.922 365.107 178.922 364.381C178.922 363.787 179.088 363.262 179.422 362.805C179.76 362.348 180.219 361.99 180.799 361.729C181.384 361.469 182.046 361.339 182.786 361.339C183.827 361.339 184.645 361.567 185.239 362.024C185.837 362.481 186.262 363.084 186.513 363.833Z" fill="white"/>
<path d="M435.262 557.277C434.017 557.277 432.945 556.983 432.046 556.395C431.147 555.807 430.455 554.997 429.971 553.965C429.487 552.934 429.245 551.755 429.245 550.429C429.245 549.081 429.493 547.89 429.988 546.859C430.49 545.821 431.187 545.011 432.081 544.429C432.98 543.841 434.029 543.547 435.228 543.547C436.161 543.547 437.003 543.72 437.752 544.066C438.502 544.412 439.115 544.896 439.594 545.518C440.072 546.141 440.369 546.867 440.484 547.697H438.444C438.288 547.092 437.942 546.556 437.406 546.089C436.876 545.616 436.161 545.38 435.262 545.38C434.467 545.38 433.769 545.588 433.17 546.003C432.576 546.412 432.112 546.991 431.778 547.74C431.45 548.484 431.285 549.357 431.285 550.36C431.285 551.386 431.447 552.279 431.769 553.04C432.098 553.801 432.559 554.392 433.153 554.813C433.752 555.233 434.455 555.444 435.262 555.444C435.793 555.444 436.274 555.352 436.706 555.167C437.138 554.983 437.504 554.718 437.804 554.372C438.104 554.026 438.317 553.611 438.444 553.127H440.484C440.369 553.911 440.084 554.617 439.628 555.245C439.179 555.867 438.582 556.363 437.839 556.732C437.101 557.095 436.242 557.277 435.262 557.277ZM448.655 555.79V544.377H450.591V555.79H448.655ZM443.917 551.052V549.115H455.329V551.052H443.917ZM464.703 555.79V544.377H466.64V555.79H464.703ZM459.965 551.052V549.115H471.378V551.052H459.965Z" fill="white"/>
<path d="M591.401 390.04H592.931V400.726C592.931 401.34 592.825 401.872 592.613 402.321C592.406 402.771 592.09 403.119 591.666 403.365C591.247 403.612 590.718 403.735 590.078 403.735C590.026 403.735 589.974 403.735 589.922 403.735C589.87 403.735 589.818 403.735 589.767 403.735V402.308C589.818 402.308 589.866 402.308 589.909 402.308C589.952 402.308 590 402.308 590.052 402.308C590.519 402.308 590.86 402.17 591.076 401.893C591.293 401.621 591.401 401.232 591.401 400.726V390.04ZM592.153 388.38C591.855 388.38 591.597 388.279 591.381 388.075C591.169 387.872 591.063 387.628 591.063 387.343C591.063 387.057 591.169 386.813 591.381 386.61C591.597 386.407 591.855 386.305 592.153 386.305C592.451 386.305 592.706 386.407 592.918 386.61C593.134 386.813 593.242 387.057 593.242 387.343C593.242 387.628 593.134 387.872 592.918 388.075C592.706 388.279 592.451 388.38 592.153 388.38ZM598.665 400.233C598.034 400.233 597.461 400.115 596.946 399.877C596.432 399.635 596.023 399.287 595.721 398.833C595.418 398.375 595.267 397.821 595.267 397.173C595.267 396.602 595.379 396.14 595.604 395.785C595.829 395.426 596.129 395.145 596.505 394.942C596.881 394.739 597.296 394.588 597.75 394.488C598.209 394.385 598.669 394.302 599.132 394.242C599.737 394.164 600.227 394.106 600.603 394.067C600.984 394.024 601.261 393.952 601.433 393.853C601.611 393.753 601.699 393.581 601.699 393.334V393.282C601.699 392.642 601.524 392.145 601.174 391.791C600.828 391.436 600.303 391.259 599.598 391.259C598.868 391.259 598.295 391.419 597.88 391.739C597.465 392.059 597.173 392.4 597.005 392.764L595.552 392.245C595.812 391.64 596.157 391.168 596.59 390.831C597.026 390.49 597.502 390.252 598.016 390.118C598.535 389.98 599.045 389.91 599.547 389.91C599.866 389.91 600.234 389.949 600.649 390.027C601.068 390.101 601.472 390.254 601.861 390.488C602.255 390.721 602.581 391.073 602.841 391.544C603.1 392.016 603.23 392.647 603.23 393.438V400H601.699V398.651H601.621C601.518 398.867 601.345 399.099 601.103 399.345C600.861 399.591 600.539 399.801 600.137 399.974C599.735 400.147 599.244 400.233 598.665 400.233ZM598.898 398.859C599.503 398.859 600.013 398.74 600.428 398.502C600.848 398.264 601.163 397.957 601.375 397.581C601.591 397.205 601.699 396.81 601.699 396.395V394.994C601.634 395.072 601.492 395.143 601.271 395.208C601.055 395.269 600.804 395.323 600.519 395.37C600.238 395.413 599.964 395.452 599.696 395.487C599.432 395.517 599.218 395.543 599.054 395.565C598.656 395.617 598.284 395.701 597.938 395.818C597.597 395.93 597.32 396.101 597.108 396.33C596.901 396.555 596.797 396.862 596.797 397.251C596.797 397.782 596.994 398.184 597.387 398.457C597.785 398.725 598.289 398.859 598.898 398.859ZM613.81 390.04L610.127 400H608.571L604.888 390.04H606.548L609.297 397.977H609.401L612.15 390.04H613.81ZM618.458 400.233C617.827 400.233 617.254 400.115 616.74 399.877C616.225 399.635 615.817 399.287 615.514 398.833C615.212 398.375 615.06 397.821 615.06 397.173C615.06 396.602 615.173 396.14 615.397 395.785C615.622 395.426 615.923 395.145 616.299 394.942C616.675 394.739 617.09 394.588 617.544 394.488C618.002 394.385 618.462 394.302 618.925 394.242C619.53 394.164 620.021 394.106 620.397 394.067C620.777 394.024 621.054 393.952 621.227 393.853C621.404 393.753 621.493 393.581 621.493 393.334V393.282C621.493 392.642 621.318 392.145 620.967 391.791C620.622 391.436 620.096 391.259 619.392 391.259C618.661 391.259 618.088 391.419 617.673 391.739C617.258 392.059 616.967 392.4 616.798 392.764L615.346 392.245C615.605 391.64 615.951 391.168 616.383 390.831C616.82 390.49 617.295 390.252 617.81 390.118C618.328 389.98 618.838 389.91 619.34 389.91C619.66 389.91 620.027 389.949 620.442 390.027C620.862 390.101 621.266 390.254 621.655 390.488C622.048 390.721 622.375 391.073 622.634 391.544C622.893 392.016 623.023 392.647 623.023 393.438V400H621.493V398.651H621.415C621.311 398.867 621.138 399.099 620.896 399.345C620.654 399.591 620.332 399.801 619.93 399.974C619.528 400.147 619.037 400.233 618.458 400.233ZM618.691 398.859C619.297 398.859 619.807 398.74 620.222 398.502C620.641 398.264 620.957 397.957 621.168 397.581C621.385 397.205 621.493 396.81 621.493 396.395V394.994C621.428 395.072 621.285 395.143 621.065 395.208C620.849 395.269 620.598 395.323 620.313 395.37C620.032 395.413 619.757 395.452 619.489 395.487C619.225 395.517 619.011 395.543 618.847 395.565C618.449 395.617 618.078 395.701 617.732 395.818C617.39 395.93 617.114 396.101 616.902 396.33C616.694 396.555 616.591 396.862 616.591 397.251C616.591 397.782 616.787 398.184 617.181 398.457C617.578 398.725 618.082 398.859 618.691 398.859Z" fill="white"/>
</svg>
