<svg width="43" height="180" viewBox="0 0 43 180" fill="none" xmlns="http://www.w3.org/2000/svg">
<rect width="178.73" height="42" transform="matrix(0 1 -1 0 42.3604 0.97998)" fill="#F3F4F7"/>
<path d="M25.8916 46.7944V49.894C25.8916 50.5425 25.7939 51.0991 25.5986 51.564C25.4033 52.0288 25.1143 52.3862 24.7314 52.6362C24.3486 52.8862 23.8779 53.0112 23.3193 53.0112C22.8779 53.0112 22.4951 52.9331 22.1709 52.7769C21.8467 52.6206 21.5752 52.3999 21.3564 52.1147C21.1377 51.8335 20.9658 51.5015 20.8408 51.1187L20.583 50.6147V47.8784L21.8545 47.8667V49.9116C21.8545 50.2437 21.9131 50.519 22.0303 50.7378C22.1475 50.9565 22.3096 51.1206 22.5166 51.23C22.7236 51.3433 22.96 51.3999 23.2256 51.3999C23.5107 51.3999 23.7568 51.3452 23.9639 51.2358C24.1748 51.1265 24.3369 50.9604 24.4502 50.7378C24.5635 50.5151 24.6201 50.2339 24.6201 49.894V48.4058H17.3604V46.7944H25.8916ZM17.3604 51.6108L21.1807 49.6362L21.1865 51.3413L17.4424 53.3394H17.3604V51.6108ZM18.626 60.0776H17.3604V55.5425H18.626V60.0776ZM25.8916 56.0347H17.3604V54.4233H25.8916V56.0347ZM22.3701 59.4858H21.1338V55.5425H22.3701V59.4858ZM25.8916 60.0601H24.6201V55.5425H25.8916V60.0601ZM24.5967 64.5894L17.3604 62.1577V60.4526L25.8916 63.6401V64.73L24.5967 64.5894ZM17.3604 66.6226L24.5967 64.1792L25.8916 64.0327V65.1284L17.3604 68.3335V66.6226ZM20.5303 66.5112H19.2588V61.9351H20.5303V66.5112ZM17.3604 71.7612V69.9214L18.626 69.9331V71.7612C18.626 72.2573 18.7354 72.6733 18.9541 73.0093C19.1768 73.3452 19.4951 73.5991 19.9092 73.771C20.3271 73.9429 20.8271 74.0288 21.4092 74.0288H21.8486C22.2979 74.0288 22.6943 73.98 23.0381 73.8823C23.3818 73.7847 23.6709 73.6401 23.9053 73.4487C24.1396 73.2612 24.3174 73.0288 24.4385 72.7515C24.5596 72.4741 24.6201 72.1558 24.6201 71.7964V69.8862H25.8916V71.7964C25.8916 72.3667 25.7959 72.8862 25.6045 73.355C25.4131 73.8276 25.1377 74.2358 24.7783 74.5796C24.4229 74.9272 23.9971 75.1929 23.501 75.3765C23.0049 75.564 22.4502 75.6577 21.8369 75.6577H21.4092C20.7998 75.6577 20.2451 75.564 19.7451 75.3765C19.249 75.1929 18.8232 74.9272 18.4678 74.5796C18.1123 74.2358 17.8389 73.8257 17.6475 73.3491C17.4561 72.8726 17.3604 72.3433 17.3604 71.7612ZM25.8916 70.8237H17.3604V69.2124H25.8916V70.8237ZM25.8916 80.7202V82.1147L19.4697 84.4468L25.8916 86.7729V88.1733L17.3604 85.0034V83.8843L25.8916 80.7202ZM25.8916 80.0171V81.3823L19.9912 81.6284H17.3604V80.0171H25.8916ZM25.8916 87.5054V88.8765H17.3604V87.2651H19.9912L25.8916 87.5054ZM21.8428 97.4253H21.4033C20.7588 97.4253 20.1787 97.3394 19.6631 97.1675C19.1514 96.9956 18.7158 96.7515 18.3564 96.4351C17.9971 96.1187 17.7217 95.7417 17.5303 95.3042C17.3389 94.8667 17.2432 94.3804 17.2432 93.8452C17.2432 93.3179 17.3389 92.8335 17.5303 92.3921C17.7217 91.9546 17.9971 91.5757 18.3564 91.2554C18.7158 90.9351 19.1514 90.687 19.6631 90.5112C20.1787 90.3354 20.7588 90.2476 21.4033 90.2476H21.8428C22.4912 90.2476 23.0713 90.3354 23.583 90.5112C24.0947 90.687 24.5303 90.9331 24.8896 91.2495C25.2529 91.5659 25.5303 91.9429 25.7217 92.3804C25.9131 92.8218 26.0088 93.3062 26.0088 93.8335C26.0088 94.3687 25.9131 94.855 25.7217 95.2925C25.5303 95.73 25.2529 96.1069 24.8896 96.4233C24.5303 96.7437 24.0947 96.9897 23.583 97.1616C23.0713 97.3374 22.4912 97.4253 21.8428 97.4253ZM21.4033 95.7964H21.8545C22.3193 95.7964 22.7275 95.7534 23.0791 95.6675C23.4346 95.5815 23.7334 95.4546 23.9756 95.2866C24.2178 95.1187 24.3994 94.9116 24.5205 94.6655C24.6455 94.4194 24.708 94.1421 24.708 93.8335C24.708 93.521 24.6455 93.2437 24.5205 93.0015C24.3994 92.7632 24.2178 92.5601 23.9756 92.3921C23.7334 92.2241 23.4346 92.0952 23.0791 92.0054C22.7275 91.9194 22.3193 91.8765 21.8545 91.8765H21.4033C20.9424 91.8765 20.5342 91.9194 20.1787 92.0054C19.8232 92.0952 19.5225 92.2241 19.2764 92.3921C19.0342 92.564 18.8506 92.771 18.7256 93.0132C18.6006 93.2554 18.5381 93.5327 18.5381 93.8452C18.5381 94.1577 18.6006 94.4351 18.7256 94.6772C18.8506 94.9194 19.0342 95.1226 19.2764 95.2866C19.5225 95.4546 19.8232 95.5815 20.1787 95.6675C20.5342 95.7534 20.9424 95.7964 21.4033 95.7964ZM25.8916 98.7905V101.89C25.8916 102.539 25.7939 103.095 25.5986 103.56C25.4033 104.025 25.1143 104.382 24.7314 104.632C24.3486 104.882 23.8779 105.007 23.3193 105.007C22.8779 105.007 22.4951 104.929 22.1709 104.773C21.8467 104.617 21.5752 104.396 21.3564 104.111C21.1377 103.83 20.9658 103.498 20.8408 103.115L20.583 102.611V99.8745L21.8545 99.8628V101.908C21.8545 102.24 21.9131 102.515 22.0303 102.734C22.1475 102.953 22.3096 103.117 22.5166 103.226C22.7236 103.339 22.96 103.396 23.2256 103.396C23.5107 103.396 23.7568 103.341 23.9639 103.232C24.1748 103.123 24.3369 102.957 24.4502 102.734C24.5635 102.511 24.6201 102.23 24.6201 101.89V100.402H17.3604V98.7905H25.8916ZM17.3604 103.607L21.1807 101.632L21.1865 103.337L17.4424 105.335H17.3604V103.607ZM18.626 112.074H17.3604V107.539H18.626V112.074ZM25.8916 108.031H17.3604V106.419H25.8916V108.031ZM22.3701 111.482H21.1338V107.539H22.3701V111.482ZM25.8916 112.056H24.6201V107.539H25.8916V112.056Z" fill="#111111"/>
<path d="M26.6823 126.557H27.5331C27.9004 126.576 28.1905 126.866 28.1905 127.214V134.755C28.1905 135.103 27.9004 135.393 27.5524 135.393H20.0118C19.6637 135.393 19.3737 135.103 19.3544 134.735V133.885C19.3737 133.517 19.6637 133.227 20.0504 133.227L24.5748 133.343L19.0257 127.794C18.755 127.523 18.7743 127.117 19.0257 126.866L19.6444 126.247C19.9151 125.977 20.3018 125.977 20.5725 126.247L26.1216 131.797L26.0056 127.233C26.0249 126.866 26.2956 126.557 26.6823 126.557Z" fill="#EE212B"/>
</svg>
