<svg width="100" height="75" viewBox="0 0 100 75" fill="none" xmlns="http://www.w3.org/2000/svg">
<rect width="75" height="75" rx="3" fill="white"/>
<path d="M37.875 22C39.375 22 40.7812 22.2812 42.0938 22.8438C43.4062 23.4271 44.5573 24.2083 45.5469 25.1875C46.5365 26.1667 47.3125 27.3125 47.875 28.625C48.4583 29.9583 48.75 31.375 48.75 32.875C48.75 33.4583 48.6562 34.1354 48.4688 34.9062C48.2812 35.6771 48.0052 36.5365 47.6406 37.4844C47.276 38.4323 46.8125 39.4792 46.25 40.625C45.6875 41.7708 45.0312 43.0208 44.2812 44.375C43.2396 46.25 42.2865 47.8698 41.4219 49.2344C40.5573 50.599 40.1042 51.3125 40.0625 51.375L38.5625 53.625C38.4792 53.75 38.3802 53.8438 38.2656 53.9062C38.151 53.9688 38.0208 54 37.875 54C37.7292 54 37.599 53.9688 37.4844 53.9062C37.3698 53.8438 37.2708 53.75 37.1875 53.625L35.6875 51.375C35.6458 51.3125 35.1927 50.5938 34.3281 49.2188C33.4635 47.8438 32.5104 46.2292 31.4688 44.375C30.7188 43.0208 30.0625 41.7708 29.5 40.625C28.9375 39.4792 28.474 38.4323 28.1094 37.4844C27.7448 36.5365 27.4688 35.6771 27.2812 34.9062C27.0938 34.1354 27 33.4583 27 32.875C27 31.375 27.2917 29.9583 27.875 28.625C28.4375 27.3125 29.2135 26.1667 30.2031 25.1875C31.1927 24.2083 32.3438 23.4271 33.6562 22.8438C34.9688 22.2812 36.375 22 37.875 22ZM42.8438 43.5938C43.5521 42.3229 44.1771 41.1458 44.7188 40.0625C45.2396 38.9792 45.6771 37.9896 46.0312 37.0938C46.3854 36.1979 46.6562 35.3958 46.8438 34.6875C47.0104 33.9792 47.0938 33.375 47.0938 32.875C47.0938 31.5833 46.8542 30.3854 46.375 29.2812C45.8958 28.1562 45.2396 27.1771 44.4062 26.3438C43.5729 25.5104 42.5938 24.8438 41.4688 24.3438C40.3438 23.8646 39.1458 23.625 37.875 23.625C36.6042 23.625 35.4062 23.8646 34.2812 24.3438C33.1562 24.8438 32.1771 25.5104 31.3438 26.3438C30.5104 27.1771 29.8542 28.1562 29.375 29.2812C28.8958 30.3854 28.6562 31.5833 28.6562 32.875C28.6562 33.375 28.7396 33.9792 28.9062 34.6875C29.0938 35.3958 29.3646 36.1979 29.7188 37.0938C30.0729 37.9896 30.5104 38.9792 31.0312 40.0625C31.5729 41.1458 32.1979 42.3229 32.9062 43.5938C33.9271 45.4271 34.8646 47.0156 35.7188 48.3594C36.5729 49.7031 37.0208 50.4062 37.0625 50.4688L37.875 51.7188L38.6875 50.4688C38.7292 50.4062 39.1771 49.7031 40.0312 48.3594C40.8854 47.0156 41.8229 45.4271 42.8438 43.5938ZM37.875 26.7812C39.5417 26.7812 40.9635 27.3698 42.1406 28.5469C43.3177 29.724 43.9062 31.1354 43.9062 32.7812C43.9062 34.4479 43.3177 35.8698 42.1406 37.0469C40.9635 38.224 39.5417 38.8125 37.875 38.8125C36.2083 38.8125 34.7865 38.224 33.6094 37.0469C32.4323 35.8698 31.8438 34.4479 31.8438 32.7812C31.8438 31.1354 32.4323 29.724 33.6094 28.5469C34.7865 27.3698 36.2083 26.7812 37.875 26.7812ZM37.875 37.1875C39.0833 37.1875 40.1198 36.7604 40.9844 35.9062C41.849 35.0521 42.2812 34.0104 42.2812 32.7812C42.2812 31.5729 41.849 30.5417 40.9844 29.6875C40.1198 28.8333 39.0833 28.4062 37.875 28.4062C36.6667 28.4062 35.6302 28.8333 34.7656 29.6875C33.901 30.5417 33.4688 31.5729 33.4688 32.7812C33.4688 34.0104 33.901 35.0521 34.7656 35.9062C35.6302 36.7604 36.6667 37.1875 37.875 37.1875Z" fill="#EE212B"/>
</svg>
