<svg width="49" height="56" viewBox="0 0 49 56" fill="none" xmlns="http://www.w3.org/2000/svg">
<path d="M41.8242 41.6559L38.4843 44.9457C36.0225 47.3518 32.8287 50.4457 28.901 54.2275C26.4468 56.5911 22.5532 56.5908 20.0994 54.227L10.2762 44.7102C9.04169 43.503 8.00829 42.4849 7.17587 41.6559C-2.39196 32.1266 -2.39196 16.6763 7.17587 7.14701C16.7437 -2.38233 32.2564 -2.38233 41.8242 7.14701C51.392 16.6763 51.392 32.1266 41.8242 41.6559ZM31.5349 25.1713C31.5349 21.3016 28.3852 18.1646 24.5 18.1646C20.6148 18.1646 17.4651 21.3016 17.4651 25.1713C17.4651 29.0409 20.6148 32.1779 24.5 32.1779C28.3852 32.1779 31.5349 29.0409 31.5349 25.1713Z" fill="white"/>
</svg>
