<svg width="59" height="59" viewBox="0 0 59 59" fill="none" xmlns="http://www.w3.org/2000/svg">
<path d="M5.59221 1.71415C8.74858 -0.0453882 12.7743 -0.458665 16.6235 0.512878C18.4966 0.985631 20.0969 2.19559 21.0579 3.86568L24.3764 9.63233C26.8343 13.9035 25.4845 19.3454 21.3128 21.9844L18.3934 23.8311C17.185 24.5955 16.7419 25.7612 17.019 26.6879C18.0078 29.9931 20.2002 33.6636 22.6106 36.1753C23.3279 36.9229 24.641 37.1022 25.9288 36.3539L27.5441 35.4148C32.0074 32.821 37.7381 34.3774 40.2627 38.8692L43.2334 44.1547C44.2055 45.8841 44.3681 47.9512 43.678 49.8106C42.3067 53.5044 39.6661 56.4819 36.4167 57.9737C33.1159 59.4892 29.2506 59.4281 25.754 57.1039C20.2195 53.4256 13.5465 47.2393 7.50371 36.9184C1.38235 26.4632 -0.160891 17.5601 0.0128346 10.9263C0.124093 6.67667 2.3795 3.50506 5.59221 1.71415ZM39.5678 0.315299C38.6755 -0.178592 37.5503 0.141695 37.0546 1.03067C36.559 1.91965 36.8806 3.04071 37.7728 3.53456L39.1918 4.32016C48.1923 9.30213 54.1718 18.3618 55.1964 28.5694L55.3129 29.7286C55.4141 30.7407 56.3201 31.479 57.3355 31.3778C58.3512 31.2765 59.0923 30.3742 58.9907 29.3622L58.8742 28.2029C57.7291 16.7944 51.0466 6.66894 40.9871 1.10086L39.5678 0.315299ZM35.2376 10.1844C35.7628 9.31241 36.8979 9.02965 37.7732 9.55285L38.2319 9.82711C44.268 13.4356 48.4123 19.5001 49.5696 26.4182L49.7341 27.4014C49.9019 28.4045 49.2217 29.3533 48.2149 29.5205C47.208 29.6878 46.2558 29.01 46.088 28.0069L45.9235 27.0237C44.9444 21.1698 41.4377 16.0384 36.3302 12.9851L35.8715 12.7108C34.9962 12.1876 34.7123 11.0565 35.2376 10.1844Z" fill="white"/>
</svg>
